<svg width="17" height="17" viewBox="0 0 17 17" fill="none" xmlns="http://www.w3.org/2000/svg">
<path d="M7.39367 2.21816V5.17563C7.39367 5.76391 7.15998 6.32809 6.74401 6.74406C6.32803 7.16004 5.76385 7.39373 5.17557 7.39373H2.2181C1.62982 7.39373 1.06564 7.16004 0.649667 6.74406C0.233692 6.32809 0 5.76391 0 5.17563V2.21816C0 1.62988 0.233692 1.0657 0.649667 0.649723C1.06564 0.233748 1.62982 5.61406e-05 2.2181 5.61406e-05H5.17557C5.76385 5.61406e-05 6.32803 0.233748 6.74401 0.649723C7.15998 1.0657 7.39367 1.62988 7.39367 2.21816ZM14.3683 0H11.4109C10.8226 0 10.2584 0.233692 9.84242 0.649667C9.42644 1.06564 9.19275 1.62982 9.19275 2.2181V5.17557C9.19275 5.76385 9.42644 6.32803 9.84242 6.74401C10.2584 7.15998 10.8226 7.39367 11.4109 7.39367H14.3683C14.9566 7.39367 15.5208 7.15998 15.9368 6.74401C16.3527 6.32803 16.5864 5.76385 16.5864 5.17557V2.2181C16.5864 1.62982 16.3527 1.06564 15.9368 0.649667C15.5208 0.233692 14.9566 0 14.3683 0ZM5.17582 9.19245H2.21835C1.63007 9.19245 1.06589 9.42614 0.649912 9.84212C0.233937 10.2581 0.000245246 10.8223 0.000245246 11.4106V14.368C0.000245246 14.9563 0.233937 15.5205 0.649912 15.9365C1.06589 16.3524 1.63007 16.5861 2.21835 16.5861H5.17582C5.76409 16.5861 6.32828 16.3524 6.74425 15.9365C7.16023 15.5205 7.39392 14.9563 7.39392 14.368V11.4106C7.39392 10.8223 7.16023 10.2581 6.74425 9.84212C6.32828 9.42614 5.76409 9.19245 5.17582 9.19245ZM14.3683 9.19259H11.4109C10.8226 9.19259 10.2584 9.42628 9.84242 9.84225C9.42644 10.2582 9.19275 10.8224 9.19275 11.4107V14.3682C9.19275 14.9564 9.42644 15.5206 9.84242 15.9366C10.2584 16.3526 10.8226 16.5863 11.4109 16.5863H14.3683C14.9566 16.5863 15.5208 16.3526 15.9368 15.9366C16.3527 15.5206 16.5864 14.9564 16.5864 14.3682V11.4107C16.5864 10.8224 16.3527 10.2582 15.9368 9.84225C15.5208 9.42628 14.9566 9.19259 14.3683 9.19259Z" fill="white"/>
</svg>
