<svg width="49" height="48" viewBox="0 0 49 48" fill="none" xmlns="http://www.w3.org/2000/svg">
<mask id="path-1-inside-1_214_71" fill="white">
<path fill-rule="evenodd" clip-rule="evenodd" d="M23.5 0C10.4327 0.513926 0 11.0546 0 23.9824C0 37.2384 10.969 47.9845 24.5 47.9845C38.031 47.9845 49 37.2384 49 23.9824C49 11.0546 38.5673 0.513926 25.5 2.6489e-09V26.6915L31.316 21.238C31.7189 20.8602 32.3517 20.8806 32.7295 21.2834C33.1072 21.6863 33.0869 22.3191 32.684 22.6969L25.184 29.7295C24.7993 30.0902 24.2007 30.0902 23.816 29.7295L16.316 22.6969C15.9131 22.3191 15.8928 21.6863 16.2705 21.2834C16.6483 20.8806 17.2811 20.8602 17.684 21.238L23.5 26.6915V0Z"/>
</mask>
<path fill-rule="evenodd" clip-rule="evenodd" d="M23.5 0C10.4327 0.513926 0 11.0546 0 23.9824C0 37.2384 10.969 47.9845 24.5 47.9845C38.031 47.9845 49 37.2384 49 23.9824C49 11.0546 38.5673 0.513926 25.5 2.6489e-09V26.6915L31.316 21.238C31.7189 20.8602 32.3517 20.8806 32.7295 21.2834C33.1072 21.6863 33.0869 22.3191 32.684 22.6969L25.184 29.7295C24.7993 30.0902 24.2007 30.0902 23.816 29.7295L16.316 22.6969C15.9131 22.3191 15.8928 21.6863 16.2705 21.2834C16.6483 20.8806 17.2811 20.8602 17.684 21.238L23.5 26.6915V0Z" fill="black"/>
<path d="M23.5 0H24.5V-1.0401L23.4607 -0.999228L23.5 0ZM25.5 2.6489e-09L25.5393 -0.999228L24.5 -1.0401V2.6489e-09H25.5ZM25.5 26.6915H24.5V29L26.184 27.4209L25.5 26.6915ZM31.316 21.238L30.632 20.5085L30.632 20.5085L31.316 21.238ZM32.7295 21.2834L33.459 20.5994L33.4589 20.5994L32.7295 21.2834ZM32.684 22.6969L33.368 23.4264L33.368 23.4264L32.684 22.6969ZM25.184 29.7295L25.868 30.4589L25.184 29.7295ZM23.816 29.7295L23.132 30.4589L23.816 29.7295ZM16.316 22.6969L15.632 23.4264H15.632L16.316 22.6969ZM16.2705 21.2834L15.5411 20.5994L16.2705 21.2834ZM17.684 21.238L18.368 20.5085L18.368 20.5085L17.684 21.238ZM23.5 26.6915L22.816 27.4209L24.5 29V26.6915H23.5ZM1 23.9824C1 11.6119 10.9881 1.49286 23.5393 0.999228L23.4607 -0.999228C9.87731 -0.465005 -1 10.4973 -1 23.9824H1ZM24.5 46.9845C11.5019 46.9845 1 36.6669 1 23.9824H-1C-1 37.81 10.4362 48.9845 24.5 48.9845V46.9845ZM48 23.9824C48 36.6669 37.4981 46.9845 24.5 46.9845V48.9845C38.5638 48.9845 50 37.81 50 23.9824H48ZM25.4607 0.999228C38.0119 1.49286 48 11.6119 48 23.9824H50C50 10.4973 39.1227 -0.465005 25.5393 -0.999228L25.4607 0.999228ZM24.5 2.6489e-09V26.6915H26.5V2.6489e-09H24.5ZM26.184 27.4209L32 21.9674L30.632 20.5085L24.816 25.962L26.184 27.4209ZM32 21.9674V21.9674L33.4589 20.5994C32.7034 19.7937 31.4377 19.753 30.632 20.5085L32 21.9674ZM32 21.9674L32 21.9674L33.368 23.4264C34.1738 22.6708 34.2145 21.4052 33.459 20.5994L32 21.9674ZM32 21.9674L24.5 29L25.868 30.4589L33.368 23.4264L32 21.9674ZM24.5 29L23.132 30.4589C23.9013 31.1803 25.0987 31.1803 25.868 30.4589L24.5 29ZM24.5 29L17 21.9674L15.632 23.4264L23.132 30.4589L24.5 29ZM17 21.9674L15.5411 20.5994C14.7855 21.4052 14.8262 22.6709 15.632 23.4264L17 21.9674ZM17 21.9674L17 21.9674L18.368 20.5085C17.5623 19.753 16.2966 19.7937 15.5411 20.5994L17 21.9674ZM17 21.9674L22.816 27.4209L24.184 25.962L18.368 20.5085L17 21.9674ZM24.5 26.6915V0H22.5V26.6915H24.5Z" fill="black" mask="url(#path-1-inside-1_214_71)"/>
</svg>
