<svg width="24" height="24" viewBox="0 0 24 24" fill="none" xmlns="http://www.w3.org/2000/svg">
<g clip-path="url(#clip0_490_1010)">
<path opacity="0.982" fill-rule="evenodd" clip-rule="evenodd" d="M23.9766 3.21094C23.9766 3.44531 23.9766 3.67969 23.9766 3.91406C23.8189 4.39182 23.4907 4.68088 22.9922 4.78125C15.6484 4.81252 8.3047 4.81252 0.960938 4.78125C0.462367 4.68088 0.134242 4.39182 -0.0234375 3.91406C-0.0234375 3.67969 -0.0234375 3.44531 -0.0234375 3.21094C0.142958 2.80259 0.439832 2.52915 0.867188 2.39063C8.27344 2.35937 15.6797 2.35937 23.0859 2.39063C23.5133 2.52915 23.8102 2.80259 23.9766 3.21094Z" fill="white"/>
<path opacity="0.982" fill-rule="evenodd" clip-rule="evenodd" d="M23.9766 11.6484C23.9766 11.8672 23.9766 12.0859 23.9766 12.3047C23.8238 12.762 23.5113 13.051 23.0391 13.1719C15.6641 13.2032 8.28905 13.2032 0.914062 13.1719C0.441811 13.051 0.129311 12.762 -0.0234375 12.3047C-0.0234375 12.0859 -0.0234375 11.8672 -0.0234375 11.6484C0.129311 11.1911 0.441811 10.9021 0.914062 10.7813C8.28905 10.75 15.6641 10.75 23.0391 10.7813C23.5113 10.9021 23.8238 11.1911 23.9766 11.6484Z" fill="white"/>
<path opacity="0.982" fill-rule="evenodd" clip-rule="evenodd" d="M23.9766 20.0391C23.9766 20.2734 23.9766 20.5078 23.9766 20.7422C23.8102 21.1505 23.5133 21.424 23.0859 21.5625C15.6797 21.5938 8.27344 21.5938 0.867188 21.5625C0.439832 21.424 0.142958 21.1505 -0.0234375 20.7422C-0.0234375 20.5078 -0.0234375 20.2734 -0.0234375 20.0391C0.134242 19.5613 0.462367 19.2722 0.960938 19.1719C8.3047 19.1406 15.6484 19.1406 22.9922 19.1719C23.4907 19.2722 23.8189 19.5613 23.9766 20.0391Z" fill="white"/>
</g>
<defs>
<clipPath id="clip0_490_1010">
<rect width="24" height="24" fill="white"/>
</clipPath>
</defs>
</svg>
