<svg width="16" height="14" viewBox="0 0 16 14" fill="none" xmlns="http://www.w3.org/2000/svg">
<path d="M7.24124 14C5.34538 14 3.51973 13.3009 2.11538 11.9027C-0.693313 9.10623 -0.693313 4.70185 2.04516 1.97532C3.0282 0.926659 4.36234 0.227549 5.83689 0.0178157C6.11776 -0.0520953 6.39863 0.0877267 6.53906 0.367371C6.6795 0.647015 6.6795 0.926659 6.46885 1.13639C4.92408 2.88417 5.06451 5.61068 6.74972 7.28855C8.43493 8.96641 11.1032 9.10623 12.8586 7.56819C13.0693 7.35846 13.4204 7.35846 13.631 7.49828C13.9119 7.6381 14.0523 7.91774 13.9821 8.19739C13.7715 9.66552 13.0693 10.9239 12.0862 11.9726C10.7521 13.3009 8.99667 14 7.24124 14Z" fill="white"/>
<path d="M15.7008 2.63154C15.0317 2.49131 14.5088 1.96836 14.3685 1.29925C14.3319 1.1249 14.1782 1 14 1C13.8219 1 13.6681 1.12486 13.6316 1.29923C13.4913 1.96831 12.9683 2.49126 12.2992 2.63152C12.1249 2.66805 12 2.82183 12 2.99998C12 3.17812 12.1249 3.3319 12.2992 3.36844C12.9683 3.50869 13.4913 4.03167 13.6315 4.70075C13.6681 4.8751 13.8218 5 14 5C14.1781 5 14.3319 4.87514 14.3684 4.70075C14.5087 4.03167 15.0317 3.50872 15.7008 3.36846C15.8751 3.33192 16 3.17815 16 3C16 2.82186 15.8751 2.6681 15.7008 2.63154Z" fill="white"/>
<path d="M10.7756 1.22365C10.2738 1.11848 9.88157 0.726268 9.77636 0.224437C9.74896 0.0936772 9.63364 0 9.50002 0C9.36641 0 9.25108 0.0936428 9.22367 0.22442C9.11846 0.726233 8.72623 1.11844 8.22444 1.22364C8.09368 1.25104 8 1.36637 8 1.49998C8 1.63359 8.09366 1.74892 8.22444 1.77633C8.72622 1.88152 9.11844 2.27375 9.22364 2.77556C9.25104 2.90632 9.36636 3 9.49998 3C9.63359 3 9.74892 2.90636 9.77633 2.77556C9.88154 2.27375 10.2738 1.88154 10.7756 1.77635C10.9063 1.74894 11 1.63361 11 1.5C11 1.36639 10.9064 1.25108 10.7756 1.22365Z" fill="white"/>
</svg>
