<svg width="18" height="18" viewBox="0 0 18 18" fill="none" xmlns="http://www.w3.org/2000/svg">
<path d="M9 4C6.23857 4 4 6.23857 4 9C4 11.7614 6.23857 14 9 14C11.7614 14 14 11.7614 14 9C14 6.23857 11.7614 4 9 4Z" fill="black"/>
<path d="M9.00001 15.9751C8.50295 15.9751 8.10001 16.378 8.10001 16.8751V17.1001C8.10001 17.5972 8.50295 18.0001 9.00001 18.0001C9.49706 18.0001 9.90001 17.5972 9.90001 17.1001V16.8751C9.90001 16.378 9.49706 15.9751 9.00001 15.9751Z" fill="black"/>
<path d="M9.00001 0C8.50295 0 8.10001 0.402944 8.10001 0.9V1.125C8.10001 1.62206 8.50295 2.025 9.00001 2.025C9.49706 2.025 9.90001 1.62206 9.90001 1.125V0.899999C9.90001 0.402943 9.49706 0 9.00001 0Z" fill="black"/>
<path d="M0 9.0001C0 8.50304 0.402944 8.1001 0.9 8.1001H1.125C1.62206 8.1001 2.025 8.50304 2.025 9.0001C2.025 9.49715 1.62206 9.9001 1.125 9.9001H0.899999C0.402943 9.9001 0 9.49715 0 9.0001Z" fill="black"/>
<path d="M15.975 9.0001C15.975 8.50304 16.3779 8.1001 16.875 8.1001H17.1C17.5971 8.1001 18 8.50304 18 9.0001C18 9.49715 17.5971 9.9001 17.1 9.9001H16.875C16.3779 9.9001 15.975 9.49715 15.975 9.0001Z" fill="black"/>
<path d="M2.63604 2.63615C2.98751 2.28468 3.55736 2.28468 3.90883 2.63615L4.06792 2.79525C4.4194 3.14672 4.4194 3.71657 4.06792 4.06804C3.71645 4.41951 3.1466 4.41951 2.79513 4.06804L2.63603 3.90895C2.28456 3.55747 2.28456 2.98762 2.63604 2.63615Z" fill="black"/>
<path d="M13.9321 13.932C14.2836 13.5806 14.8534 13.5806 15.2049 13.932L15.364 14.0912C15.7155 14.4426 15.7155 15.0125 15.364 15.3639C15.0125 15.7154 14.4427 15.7154 14.0912 15.3639L13.9321 15.2048C13.5806 14.8534 13.5806 14.2835 13.9321 13.932Z" fill="black"/>
<path d="M4.06792 13.932C3.71645 13.5806 3.1466 13.5806 2.79514 13.932L2.63602 14.0912C2.28456 14.4426 2.28456 15.0125 2.63603 15.3639C2.9875 15.7154 3.55734 15.7154 3.90881 15.3639L4.06792 15.2048C4.41939 14.8534 4.41939 14.2835 4.06792 13.932Z" fill="black"/>
<path d="M15.364 2.63615C15.0125 2.28468 14.4427 2.28468 14.0912 2.63615L13.9321 2.79526C13.5806 3.14673 13.5806 3.71657 13.9321 4.06804C14.2836 4.41951 14.8534 4.41951 15.2049 4.06805L15.364 3.90893C15.7155 3.55747 15.7155 2.98762 15.364 2.63615Z" fill="black"/>
</svg>
