<svg width="413" height="387" viewBox="0 0 413 387" class="w-[24.5rem] object-contain self-center" fill="none" xmlns="http://www.w3.org/2000/svg">
<g filter="url(#filter0_d_214_951)">
<path fill-rule="evenodd" clip-rule="evenodd" d="M146.847 154.071L127.772 159.061L127.398 159.117L127.023 159.137L126.643 159.121L126.264 159.066L125.885 158.972L125.513 158.838L47.7048 126.332L47.3485 126.161L47.0154 125.958L46.7089 125.725L46.4291 125.467L46.1792 125.184L45.9577 124.88L45.77 124.558L45.6123 124.219L45.4864 123.867L45.3943 123.504L45.3376 123.133L45.3161 122.756L45.3339 122.376L45.3888 121.996L45.4827 121.618L45.6158 121.245L78.122 43.439L78.294 43.081L78.4957 42.7488L78.7298 42.4426L78.9885 42.1641L79.2701 41.9132L79.5752 41.6931L79.8957 41.5028L80.234 41.3445L80.5885 41.2195L99.6635 36.2297L99.3109 36.3551L98.9724 36.5139L98.6481 36.7039L98.3454 36.9246L98.0617 37.1744L97.8031 37.4534L97.5727 37.7596L97.3689 38.0922L97.1969 38.4496L64.6924 116.255L64.5579 116.629L64.462 117.007L64.4091 117.387L64.3931 117.767L64.4108 118.144L64.4692 118.515L64.5613 118.878L64.687 119.23L64.8429 119.569L65.0344 119.891L65.2559 120.195L65.5057 120.478L65.7839 120.736L66.0907 120.968L66.4218 121.171L66.7818 121.342L144.586 153.849L144.958 153.983L145.339 154.077L145.718 154.131L146.099 154.148L146.475 154.128L146.847 154.071Z" fill="#F6908F"/>
</g>
<path d="M147.113 155.097L127.93 160.112L127.559 160.167L127.081 160.197H126.977L126.494 160.171L126.113 160.117L126.011 160.097L125.632 160.003C125.454 159.946 125.279 159.879 125.104 159.819L47.2991 127.313C47.1325 127.23 46.9625 127.153 46.796 127.066L46.4629 126.863L46.3759 126.805L46.0711 126.573L45.9878 126.503L45.7062 126.243C45.5734 126.103 45.4438 125.955 45.3199 125.807L45.1001 125.503L44.854 125.094L44.8096 125.007L44.6113 124.572L44.4857 124.22L44.4574 124.125L44.3652 123.762L44.342 123.662L44.2874 123.291L44.2573 122.813V122.71L44.2839 122.226L44.3389 121.846L44.3584 121.742L44.4525 121.364C44.5092 121.186 44.5781 121.014 44.6368 120.837L77.143 43.0311C77.2246 42.8637 77.3007 42.694 77.3874 42.5283L77.5932 42.1961L77.6499 42.1082L77.8819 41.8026L77.9529 41.7193L78.2116 41.4406C78.3515 41.3072 78.4986 41.1776 78.6492 41.0531L78.9522 40.8325L79.3615 40.5883L79.4482 40.5426L79.884 40.3428L80.2349 40.2178L99.3985 35.2031L100.015 37.2312L99.6944 37.3454L99.4641 37.4522L99.2531 37.5767L98.991 37.7658L98.8156 37.9224L98.6244 38.131L98.4438 38.3662L98.2947 38.6115L98.178 38.8556L65.6723 116.662L65.5785 116.918L65.5075 117.205L65.4651 117.5L65.4545 117.757L65.4686 118.012L65.5146 118.312L65.5767 118.558L65.6849 118.861L65.7825 119.075L65.9081 119.287L66.0993 119.548L66.2518 119.724L66.4607 119.917L66.6982 120.096L66.9443 120.245L67.1853 120.362L144.993 152.868L145.25 152.961L145.536 153.032L145.831 153.074L146.087 153.086L146.345 153.071L146.689 153.019L147.113 155.097ZM127.584 158.013L142.477 154.118L66.3723 122.323C66.2057 122.24 66.0355 122.164 65.8689 122.077L65.5378 121.874L65.4508 121.815L65.1426 121.584L65.0593 121.513L64.7829 121.255C64.6498 121.115 64.5205 120.966 64.3966 120.818L64.1751 120.514L63.9307 120.105L63.8863 120.017L63.6863 119.587L63.5606 119.235L63.4382 118.772L63.4187 118.672L63.36 118.302L63.3334 117.821V117.72L63.3566 117.237L63.4132 116.857L63.4327 116.754L63.5249 116.376C63.5832 116.197 63.6491 116.025 63.7109 115.848L96.1304 38.2494L80.9182 42.2287L80.6169 42.336L80.39 42.4428L80.1793 42.5667L79.9169 42.7558L79.7418 42.9118L79.5486 43.1213L79.3697 43.3565L79.2175 43.602L79.1042 43.8462L46.5957 121.651L46.5038 121.908L46.4311 122.193L46.3902 122.489L46.3796 122.744L46.3919 123.002L46.4397 123.302L46.5052 123.563L46.6008 123.837L46.709 124.064L46.8346 124.275L47.0206 124.536L47.1783 124.712L47.3892 124.907L47.6213 125.085L47.8677 125.235L48.1121 125.352L125.916 157.858L126.175 157.951L126.459 158.022L126.754 158.064L127.01 158.075L127.268 158.061L127.584 158.013Z" fill="black"/>
<path fill-rule="evenodd" clip-rule="evenodd" d="M102.286 36.3606L180.089 68.8666C182.065 69.6913 183.006 71.9802 182.18 73.9545L149.675 151.759C148.849 153.734 146.56 154.673 144.585 153.849L66.7822 121.343C64.8064 120.518 63.8655 118.229 64.6928 116.255L97.1974 38.4494C98.0233 36.4763 100.311 35.5359 102.286 36.3606Z" fill="#F36766"/>
<path d="M102.689 35.3798L180.497 67.8854C181.754 68.4106 182.68 69.4027 183.166 70.576C183.648 71.7496 183.685 73.1061 183.16 74.361L150.654 152.167C150.13 153.425 149.136 154.352 147.964 154.834C146.855 155.289 145.585 155.347 144.392 154.913H144.378L66.3716 122.323C65.1153 121.798 64.1867 120.807 63.7065 119.633C63.2211 118.459 63.1856 117.102 63.7102 115.847L96.2164 38.0418C96.741 36.7849 97.7332 35.856 98.9045 35.374C100.014 34.9202 101.283 34.8615 102.477 35.2965H102.493L102.689 35.3798ZM179.684 69.8469L101.876 37.3409C101.157 37.041 100.382 37.0613 99.7109 37.3355C99.0481 37.6082 98.4846 38.1319 98.1836 38.839L65.6716 116.662C65.3723 117.381 65.39 118.157 65.6662 118.826C65.9406 119.497 66.4706 120.063 67.1846 120.362L144.993 152.868C145.712 153.168 146.486 153.148 147.158 152.873C147.82 152.6 148.384 152.078 148.685 151.371L181.197 73.5465C181.498 72.8277 181.478 72.0518 181.204 71.3822C180.928 70.7126 180.4 70.1454 179.684 69.8469Z" fill="black"/>
<path fill-rule="evenodd" clip-rule="evenodd" d="M64.6875 119.23L45.5842 124.147L45.6126 124.219L45.7702 124.558L45.958 124.881L46.1792 125.184L46.429 125.467L46.7092 125.726L47.0157 125.958L47.3488 126.161L47.7051 126.333L125.513 158.839C126.487 159.19 127.129 159.228 128.133 158.966L128.171 158.956L146.847 154.071C146.085 154.225 145.304 154.15 144.584 153.85L133.71 149.305L66.7814 121.343C66.6572 121.292 66.537 121.235 66.4217 121.172C66.3084 121.109 66.1965 121.042 66.0903 120.969C65.9839 120.896 65.8814 120.819 65.7838 120.737C65.6862 120.655 65.5941 120.568 65.5057 120.479C65.4189 120.388 65.3357 120.294 65.2575 120.197C65.176 120.099 65.1033 119.997 65.0361 119.893C64.9654 119.788 64.9033 119.68 64.8429 119.569C64.7888 119.459 64.7356 119.346 64.6875 119.23Z" fill="#B14C4B"/>
<path d="M64.1433 120.463L47.2762 124.804L47.4127 124.931L47.5936 125.067L47.8683 125.235L48.1127 125.352L125.917 157.858C126.284 157.988 126.581 158.059 126.863 158.073C127.157 158.088 127.469 158.043 127.863 157.94C132.615 156.551 137.665 155.377 142.477 154.118L66.3723 122.323L66.1419 122.217L65.9167 122.102L65.7021 121.98L65.4915 121.845C65.371 121.763 65.2416 121.663 65.1017 121.547C64.9652 121.433 64.8464 121.322 64.7454 121.217L64.5823 121.043L64.4263 120.857L64.2829 120.669C64.2475 120.625 64.2031 120.559 64.1464 120.47L64.1433 120.463ZM45.3233 123.12L65.316 117.973L65.6669 118.831L65.7218 118.953C65.8655 119.237 65.9717 119.393 66.172 119.638L66.2659 119.737C66.3368 119.812 66.4058 119.876 66.4645 119.926C66.5228 119.973 66.5972 120.029 66.6894 120.092L66.9286 120.241L67.0543 120.305C92.8981 131.381 119.038 142.024 144.993 152.869C145.257 152.98 145.532 153.047 145.803 153.075C146.081 153.102 146.361 153.088 146.64 153.033L147.114 155.097C144.426 155.8 129.87 159.991 128.399 159.991C127.791 160.151 127.283 160.218 126.76 160.192C126.241 160.166 125.739 160.047 125.155 159.836L125.103 159.819L47.2991 127.312C45.2899 126.315 44.923 125.446 44.1964 123.409L45.3233 123.12Z" fill="black"/>
<path fill-rule="evenodd" clip-rule="evenodd" d="M113.974 111.145L107.363 103.576L115.583 80.4435L129.86 77.888L139.198 88.9641L134.24 102.911L124.372 104.341L120.672 103.026L123.651 94.6429L127.331 95.951L129.178 90.7552L126.358 87.4522L122.127 88.2881L113.974 111.145ZM135.266 65.7545L144.783 76.9207L144.779 76.9238L155.284 89.2519L144.446 119.743L128.518 122.676L128.52 122.681L112.594 125.614L91.5876 100.964L102.43 70.4615L134.281 64.5955L135.266 65.7545ZM140.773 80.3285L132.243 70.3212L106.385 75.084L97.5749 99.8747L114.63 119.889L127.56 117.507L127.567 117.511L140.488 115.132L149.3 90.33L140.782 80.3325L140.773 80.3285Z" fill="white"/>
<path fill-rule="evenodd" clip-rule="evenodd" d="M81.7555 308.229L59.941 299.85C58.1584 299.002 57.3379 297.474 57.611 295.52L73.6381 212.733C74.1839 210.53 75.9453 209.336 78.1937 209.654L160.982 225.678L161.367 225.774L183.183 234.154L182.797 234.058L100.01 218.034C97.7615 217.717 95.9981 218.908 95.4541 221.112L79.4269 303.899C79.1702 305.716 79.8398 307.115 81.4098 308.065L81.7555 308.229Z" fill="#6289CD"/>
<path d="M81.3767 309.219C74.0833 306.407 66.7776 303.628 59.4844 300.809C58.3821 300.286 57.5691 299.536 57.0694 298.603C56.5677 297.669 56.3906 296.58 56.5609 295.374L72.6075 212.479C72.9443 211.112 73.6758 210.047 74.6826 209.367C75.6873 208.687 76.947 208.406 78.3396 208.603L161.619 224.743L161.745 224.785L183.56 233.165L182.929 235.184L182.576 235.098L99.8301 219.08C98.9885 218.968 98.253 219.124 97.6881 219.507C97.1192 219.89 96.6993 220.515 96.4919 221.335L80.4753 304.079C80.3831 304.763 80.4558 305.356 80.6933 305.853C80.9237 306.341 81.3312 306.767 81.9104 307.126L82.2118 307.269L81.3767 309.219ZM60.3899 298.89L78.444 305.824C78.2952 305.184 78.272 304.494 78.3768 303.753C82.4433 277.829 88.6078 246.49 94.4217 220.859C94.7602 219.491 95.492 218.427 96.4985 217.748C97.5015 217.067 98.763 216.786 100.156 216.982L171.446 230.78L161.068 226.793L160.761 226.718L78.0153 210.7C77.172 210.589 76.4382 210.745 75.8713 211.128C75.3044 211.51 74.8826 212.136 74.6751 212.956L58.6585 295.701C58.5609 296.434 58.6585 297.074 58.9367 297.597C59.222 298.127 59.7128 298.566 60.3899 298.89Z" fill="black"/>
<g filter="url(#filter1_d_214_951)">
<path fill-rule="evenodd" clip-rule="evenodd" d="M100.009 218.034L182.796 234.058C184.894 234.465 186.282 236.516 185.874 238.615L169.85 321.401C169.445 323.502 167.393 324.887 165.291 324.48L82.5079 308.457C80.4062 308.049 79.0225 305.999 79.4263 303.898L95.4535 221.112C95.8593 219.013 97.9095 217.627 100.009 218.034Z" fill="#F7F3E9"/>
</g>
<path d="M100.21 216.99L182.997 233.016C184.336 233.275 185.446 234.057 186.158 235.107C186.867 236.158 187.177 237.478 186.918 238.815L170.895 321.601C170.634 322.941 169.853 324.052 168.802 324.762C167.751 325.471 166.431 325.782 165.095 325.524L82.3076 309.499C80.9663 309.24 79.8553 308.457 79.1465 307.406C78.4554 306.387 78.1454 305.112 78.3635 303.816C78.3635 291.169 91.219 237.405 94.4102 220.913C94.6706 219.572 95.4521 218.461 96.503 217.751C97.5521 217.042 98.8739 216.732 100.21 216.99ZM182.595 235.1L99.8111 219.076C99.0491 218.929 98.2927 219.107 97.6917 219.514C97.091 219.92 96.6429 220.552 96.4958 221.311L80.4721 304.1C80.3215 304.861 80.5021 305.616 80.9079 306.218C81.3117 306.814 81.9356 307.26 82.6905 307.41L165.494 323.438C166.256 323.586 167.012 323.407 167.613 323.001C168.214 322.594 168.662 321.961 168.809 321.203L184.833 238.416C184.98 237.653 184.803 236.898 184.397 236.296C183.989 235.695 183.357 235.248 182.595 235.1Z" fill="black"/>
<g filter="url(#filter2_d_214_951)">
<path fill-rule="evenodd" clip-rule="evenodd" d="M98.1031 218.144L75.0023 210.46L74.9828 210.477C74.2085 211.179 73.8897 211.719 73.6381 212.733L57.6109 295.52C57.3379 297.474 58.1587 299.002 59.941 299.851L81.7466 308.226C81.6313 308.177 81.5162 308.124 81.4097 308.065C81.2947 308.003 81.1883 307.938 81.0818 307.868C80.9791 307.798 80.8763 307.722 80.7804 307.642C80.6849 307.562 80.591 307.478 80.504 307.389C80.4139 307.301 80.332 307.208 80.2525 307.112C80.1726 307.015 80.0982 306.917 80.0255 306.813C79.9583 306.71 79.8927 306.603 79.8341 306.496C79.774 306.386 79.7207 306.274 79.6712 306.16C79.6712 306.157 79.6695 306.155 79.6695 306.154C79.6197 306.04 79.5774 305.923 79.5402 305.805C79.501 305.686 79.4675 305.565 79.4426 305.442C79.4426 305.44 79.4426 305.439 79.4426 305.437C79.416 305.315 79.3965 305.191 79.3805 305.066C79.3682 304.94 79.3593 304.812 79.3576 304.683C79.3576 304.683 79.3576 304.68 79.3576 304.678C79.3559 304.55 79.361 304.421 79.3736 304.291C79.3825 304.161 79.4037 304.03 79.4268 303.899L79.4658 303.71L95.454 221.112C95.4789 220.981 95.509 220.854 95.5462 220.727C95.5851 220.602 95.6294 220.48 95.6772 220.361C95.7287 220.242 95.7837 220.127 95.8421 220.015C95.9042 219.903 97.414 218.439 98.1031 218.144Z" fill="#6289CD"/>
</g>
<path d="M95.864 218.514L75.2867 211.67C75.1822 211.79 75.0969 211.907 75.028 212.028C74.8774 212.276 74.7727 212.567 74.6754 212.954L58.6588 295.7C58.5612 296.434 58.6588 297.074 58.937 297.596C59.2223 298.127 59.7131 298.565 60.3902 298.89L78.4409 305.823C78.4071 305.685 78.3859 305.561 78.3593 305.423L78.3238 305.182L78.3061 304.94C78.2955 304.684 78.2989 304.457 78.313 304.2L78.3167 304.196L78.3433 303.949C82.8671 276.553 89.1097 248.292 94.4097 220.913L94.4646 220.666L94.5284 220.425C94.5851 220.256 94.6329 220.12 94.6967 219.953L94.7994 219.734C94.8329 219.656 94.8701 219.581 94.9073 219.512C94.9674 219.415 95.3749 218.971 95.864 218.514ZM75.3359 209.455L101.093 218.023L98.5183 219.12C98.3732 219.184 98.0879 219.399 97.7848 219.65C97.2497 220.091 96.7835 220.498 96.7766 220.513C96.7766 220.533 96.5835 220.98 96.564 221.033C96.5357 221.133 96.5179 221.21 96.4947 221.312C91.4483 247.383 83.6959 278.684 80.4286 304.383H80.4321L80.4198 304.527C80.4129 304.722 80.4269 304.888 80.4515 305.082L80.4799 305.221C80.5136 305.362 80.5491 305.475 80.5915 305.611H80.5969C80.6501 305.746 80.6962 305.853 80.7617 305.985L80.8307 306.103L80.983 306.329L81.0645 306.435C81.1956 306.58 81.3126 306.697 81.458 306.827C81.6566 306.98 81.8037 307.073 82.0286 307.193L82.0324 307.189L82.1546 307.249L81.3679 309.214C74.0641 306.459 66.767 303.624 59.4844 300.808C58.3821 300.284 57.5691 299.536 57.0694 298.603C56.5677 297.669 56.3906 296.579 56.5609 295.373L72.6075 212.479C72.7566 211.87 72.9354 211.391 73.1993 210.947C73.4632 210.504 73.8 210.118 74.2713 209.691C74.4359 209.541 74.6256 209.412 74.8045 209.277L75.3359 209.455Z" fill="black"/>
<path d="M133.527 252.116L131.76 261.173C131.409 262.975 130.355 264.562 128.833 265.586C127.309 266.612 125.441 266.99 123.641 266.638L114.585 264.87C112.783 264.518 111.193 263.465 110.169 261.943C109.145 260.419 108.766 258.553 109.116 256.751L110.887 247.694C111.238 245.893 112.292 244.305 113.814 243.279C115.338 242.254 117.204 241.876 119.006 242.228L128.062 243.997C129.862 244.348 131.452 245.401 132.478 246.924C133.502 248.446 133.881 250.314 133.527 252.116ZM156.215 249.494L147.158 247.725C145.356 247.373 143.489 247.752 141.967 248.777C140.443 249.802 139.389 251.39 139.038 253.191L137.267 262.248C136.918 264.05 137.296 265.917 138.322 267.44C139.344 268.962 140.936 270.016 142.736 270.367L151.794 272.136C153.593 272.488 155.46 272.109 156.984 271.084C158.508 270.059 159.56 268.471 159.911 266.669L161.678 257.613C162.032 255.811 161.655 253.943 160.629 252.421C159.604 250.899 158.013 249.846 156.215 249.494ZM122.567 272.146L113.509 270.378C111.707 270.027 109.839 270.404 108.317 271.43C106.795 272.455 105.742 274.044 105.39 275.844L103.62 284.901C103.271 286.703 103.648 288.57 104.674 290.092C105.698 291.616 107.286 292.669 109.088 293.021L118.144 294.788C119.946 295.141 121.814 294.763 123.336 293.737C124.858 292.713 125.911 291.124 126.263 289.323L128.032 280.266C128.383 278.465 128.005 276.598 126.979 275.075C125.954 273.551 124.368 272.499 122.567 272.146ZM150.716 277.645L141.66 275.876C139.858 275.524 137.99 275.903 136.468 276.927C134.946 277.953 133.893 279.541 133.541 281.343L131.773 290.399C131.42 292.201 131.799 294.068 132.823 295.591C133.849 297.113 135.435 298.166 137.239 298.518L146.295 300.287C148.097 300.639 149.965 300.26 151.487 299.236C153.009 298.21 154.06 296.622 154.414 294.82L156.183 285.764C156.534 283.963 156.156 282.094 155.13 280.572C154.104 279.05 152.518 277.996 150.716 277.645Z" fill="#6289CD"/>
<path fill-rule="evenodd" clip-rule="evenodd" d="M278.598 50.0641L254.388 58.0351L254.76 57.9187L255.148 57.8385L338.5 45.0818L338.897 45.042H339.287L339.668 45.0809L340.038 45.1567L340.402 45.2683L340.749 45.4123L341.079 45.5889L341.389 45.7955L341.681 46.031L341.945 46.2928L342.19 46.5805L342.404 46.8915L342.585 47.2246L342.739 47.5781L342.854 47.9495L342.936 48.3376L355.692 131.69L355.729 132.085V132.474L355.692 132.856L355.617 133.229L355.506 133.59L355.36 133.937L355.185 134.267L354.978 134.578L354.74 134.869L354.48 135.136L354.191 135.377L353.883 135.591L353.549 135.775L353.197 135.927L352.825 136.043L377.031 128.071L377.405 127.955L377.756 127.804L378.089 127.619L378.401 127.405L378.686 127.165L378.949 126.897L379.186 126.607L379.393 126.295L379.569 125.965L379.712 125.618L379.826 125.258L379.9 124.885L379.939 124.503V124.114L379.9 123.72L367.142 40.3662L367.063 39.9778L366.945 39.6061L366.795 39.253L366.609 38.9199L366.396 38.6088L366.155 38.3212L365.888 38.0599L365.597 37.8244L365.287 37.6175L364.955 37.4406L364.608 37.2967L364.25 37.1851L363.876 37.1092L363.495 37.0712L363.105 37.0703L362.71 37.1107L279.358 49.8674L278.967 49.9476L278.598 50.0641Z" fill="#F7F3E9"/>
<g filter="url(#filter3_d_214_951)">
<path fill-rule="evenodd" clip-rule="evenodd" d="M377.033 128.072L352.826 136.044L352.438 136.122L269.084 148.88L268.69 148.92L268.3 148.919L267.918 148.881L267.546 148.805L267.182 148.695L266.839 148.549L266.506 148.373L266.196 148.166L265.905 147.931L265.639 147.669L265.396 147.382L265.182 147.07L264.999 146.738L264.847 146.384L264.732 146.013L264.652 145.624L251.894 62.2715L251.855 61.8772V61.4871L251.894 61.1054L251.97 60.7322L252.08 60.3716L252.226 60.0256L252.401 59.6957L252.608 59.3838L252.844 59.093L253.105 58.826L253.393 58.5842L253.704 58.3701L254.037 58.1873L254.389 58.0353L278.599 50.0642L278.243 50.2153L277.913 50.3993L277.6 50.6131L277.313 50.8543L277.05 51.1216L276.817 51.4124L276.609 51.724L276.434 52.0543L276.287 52.4002L276.179 52.7611L276.102 53.1337L276.063 53.516V53.9055L276.102 54.2999L288.861 137.653L288.94 138.042L289.057 138.413L289.208 138.766L289.39 139.099L289.603 139.41L289.846 139.698L290.111 139.96L290.402 140.194L290.716 140.402L291.045 140.578L291.393 140.723L291.754 140.833L292.126 140.909L292.509 140.948H292.898L293.29 140.908L376.644 128.152L377.033 128.072Z" fill="#F7BE9A"/>
</g>
<path d="M377.364 129.081L353.156 137.053L352.594 137.174L269.241 149.931L268.792 149.975L268.689 149.98L268.299 149.978L268.195 149.974L267.812 149.936L267.709 149.919L267.231 149.818L266.775 149.674L266.43 149.529C266.258 149.444 266.088 149.352 265.921 149.258L265.608 149.051L265.528 148.993L265.239 148.758L265.161 148.687L264.892 148.425L264.584 148.062L264.524 147.979L264.251 147.581L264.022 147.157L263.868 146.803L263.831 146.699L263.717 146.327C263.673 146.146 263.641 145.963 263.599 145.782L250.842 62.4289L250.798 61.9799L250.795 61.8763V61.4865L250.798 61.383L250.837 61.0006L250.853 60.8927L250.93 60.5201L250.956 60.4208L251.1 59.9641L251.242 59.6178C251.328 59.4464 251.422 59.2753 251.516 59.1087L251.724 58.7974L252.022 58.4239L252.085 58.3492L252.347 58.0819L252.422 58.011L252.713 57.7694C252.867 57.6552 253.028 57.5431 253.191 57.4395L253.526 57.2555L253.62 57.2097L254.058 57.0248L278.266 49.0537L279.012 51.0395L278.714 51.1671L278.457 51.3093L278.257 51.4481L278.027 51.6407L277.841 51.8313L277.68 52.0316L277.509 52.2863L277.403 52.4858L277.284 52.7705L277.205 53.0287L277.152 53.2897L277.123 53.5793V53.8411L277.153 54.1416L289.911 137.494L289.964 137.757L290.055 138.049L290.161 138.294L290.313 138.574L290.443 138.763L290.609 138.96L290.823 139.17L291.024 139.331L291.279 139.501L291.479 139.608L291.771 139.732L292.009 139.803L292.28 139.859L292.57 139.888L292.833 139.889L293.132 139.858L376.485 127.101L376.819 127.033L377.364 129.081ZM352.527 135.023L364.464 131.091L293.45 141.96L292.998 142.003L292.897 142.008L292.507 142.008L292.401 142.003L292.018 141.965L291.912 141.948L291.54 141.872L291.444 141.847L290.984 141.703L290.638 141.559C290.466 141.473 290.296 141.382 290.13 141.287L289.818 141.08L289.444 140.782L289.369 140.716L289.101 140.454L288.791 140.091L288.731 140.009L288.458 139.61L288.274 139.277L288.228 139.182L288.077 138.829L288.04 138.728L287.925 138.357C287.881 138.176 287.847 137.993 287.804 137.811L275.048 54.4581L275.004 54.0094L275.002 53.9055V53.5157L275.004 53.4124L275.045 53.0307L275.063 52.9222L275.136 52.549L275.162 52.4497L275.21 52.2992L254.746 59.038L254.505 59.1393L254.249 59.2824L254.046 59.4207L253.819 59.6133L253.631 59.8038L253.47 60.0033L253.3 60.2586L253.191 60.4577L253.075 60.7428L252.995 61.0006L252.94 61.2619L252.914 61.5518V61.8145L252.942 62.1144L265.7 145.467L265.755 145.73L265.842 146.007L265.957 146.281L266.106 146.546L266.235 146.734L266.401 146.932L266.611 147.138L266.82 147.307L267.069 147.473L267.268 147.58L267.555 147.699L267.819 147.78L268.063 147.83L268.363 147.86L268.623 147.86L268.923 147.83L352.275 135.072L352.527 135.023Z" fill="black"/>
<path fill-rule="evenodd" clip-rule="evenodd" d="M279.358 49.8675L362.71 37.1104C364.822 36.787 366.818 38.2525 367.142 40.3671L379.9 123.718C380.222 125.833 378.759 127.828 376.641 128.152L293.289 140.908C291.175 141.232 289.181 139.766 288.859 137.652L276.101 54.3006C275.777 52.1855 277.244 50.1911 279.358 49.8675Z" fill="#F39C64"/>
<path d="M279.201 48.8164L362.642 36.047C363.953 35.871 365.225 36.2342 366.224 36.9685C367.247 37.7203 367.988 38.8607 368.195 40.2083L380.95 123.562C381.155 124.905 380.794 126.212 380.042 127.235C379.289 128.258 378.15 128.997 376.801 129.203L293.451 141.96C292.104 142.166 290.798 141.802 289.776 141.051C288.752 140.299 288.014 139.158 287.805 137.811L275.049 54.4583C274.843 53.1147 275.208 51.8075 275.96 50.7847C276.709 49.7611 277.852 49.023 279.201 48.8164ZM362.785 38.1747L279.515 50.9189C278.747 51.036 278.101 51.4572 277.672 52.0396C277.243 52.6239 277.036 53.372 277.154 54.1427L289.91 137.495C290.026 138.261 290.447 138.911 291.032 139.34C291.615 139.768 292.361 139.976 293.132 139.858L376.484 127.101C377.253 126.984 377.902 126.562 378.33 125.98C378.759 125.396 378.967 124.648 378.85 123.877L366.09 40.5113C365.967 39.7513 365.547 39.1062 364.97 38.681C364.387 38.2526 363.637 38.0448 362.866 38.1627L362.785 38.1747Z" fill="black"/>
<path fill-rule="evenodd" clip-rule="evenodd" d="M323.269 123.146C323.572 123.21 323.449 123.087 323.4 122.718C323.375 122.52 323.338 122.313 323.309 122.112C322.448 115.94 321.442 109.352 320.682 103.284C320.621 102.789 320.425 102.098 320.522 101.631C321.321 101.421 331.944 100.022 333.723 99.7748C334.791 99.6257 337.301 99.407 338.179 99.1031C341.491 96.7862 345.694 93.3024 349.139 90.8069C349.834 90.3055 350.351 89.8663 350.955 89.4238C351.244 89.2129 352.715 88.2024 352.74 87.9429L350.048 68.5763L349.607 65.4207C348.313 65.0238 337.729 60.5975 336.323 60.0383L323.85 54.9722C323.391 54.7853 323.297 54.8154 322.907 55.131C319.308 58.04 315.215 61.1298 311.537 63.989L303.014 70.6345C302.541 70.9997 300.416 72.5087 300.262 72.9185L300.611 75.4474L304.788 105.493L306.319 116.528L323.269 123.146ZM317.536 79.7397L319.322 92.904L336.789 90.477L334.907 76.8422L326.736 73.53C326.266 73.3326 326.024 73.1042 325.537 73.4985C323.978 74.7689 318.745 78.6477 317.536 79.7397ZM355.41 107.071L353.424 92.8121L338.733 103.914L339.755 111.426L341.052 120.772L355.74 109.659L355.41 107.071Z" fill="white"/>
<path d="M290.312 140.838L266.104 148.809L265.438 146.79L289.648 138.819L290.312 140.838Z" fill="black"/>
<path fill-rule="evenodd" clip-rule="evenodd" d="M289.742 141.026L269.214 147.786L352.276 135.071L352.527 135.023L355.261 134.122L364.465 131.091L355.729 132.428L293.451 141.96C293.298 141.983 293.151 141.999 292.999 142.008C292.8 142.02 292.6 142.019 292.402 142.008C292.272 141.999 292.145 141.986 292.019 141.968C291.984 141.963 291.948 141.958 291.913 141.952C291.787 141.932 291.663 141.905 291.54 141.876C291.351 141.829 291.163 141.772 290.984 141.704C290.865 141.66 290.75 141.612 290.637 141.56C290.463 141.479 290.293 141.387 290.128 141.287C290.02 141.222 289.919 141.153 289.818 141.081C289.802 141.071 289.79 141.061 289.776 141.051C289.763 141.042 289.754 141.034 289.742 141.026Z" fill="#B17149"/>
<path d="M366.444 198.229L346.304 199.988C346.441 200.143 346.573 200.345 346.689 200.516L346.88 200.855C356.335 220.674 370.626 259.165 377.618 280.461L377.648 280.564L377.731 280.944L377.747 281.049L377.79 281.429C377.797 281.625 377.8 281.819 377.8 282.013L377.77 282.39C377.74 282.581 377.705 282.773 377.666 282.963L377.565 283.324L377.396 283.767L377.187 284.192L377.138 284.281L376.886 284.68L376.657 284.978C376.524 285.124 376.39 285.27 376.253 285.407L375.887 285.724L375.577 285.948L375.148 286.196L375.052 286.246C352.531 296.276 325.799 305.28 302.461 314.287L318.864 312.855L319.156 312.822L319.443 312.759L319.765 312.653L398.353 282.32L398.651 282.188L398.851 282.073L399.138 281.868L399.333 281.697L399.489 281.528L399.691 281.266L399.817 281.068L399.937 280.825L400.033 280.575L400.118 280.275L400.157 280.061L400.185 279.722L400.182 279.506L400.148 279.209L400.083 278.921L399.978 278.599L369.646 200.013L369.529 199.747L369.375 199.484L369.194 199.227L369.024 199.033L368.851 198.871L368.629 198.701L368.356 198.531L368.149 198.427L367.901 198.331L367.601 198.247L367.389 198.208L367.049 198.18L366.831 198.184L366.444 198.229ZM342.493 200.321L341.94 200.368L341.729 198.254L342.11 198.209L342.278 198.205L366.264 196.11L366.614 196.07C366.81 196.062 367.006 196.059 367.199 196.059L367.577 196.09C367.764 196.121 367.959 196.155 368.147 196.195L368.509 196.295L368.952 196.464C369.124 196.543 369.295 196.631 369.464 196.719L369.783 196.917L370.169 197.208C370.311 197.336 370.458 197.471 370.594 197.608L370.91 197.972L371.135 198.284L371.193 198.376L371.386 198.714L402.121 278.32L402.151 278.423L402.236 278.804L402.25 278.907L402.294 279.289C402.303 279.483 402.307 279.678 402.307 279.872L402.275 280.25C402.243 280.44 402.208 280.633 402.168 280.822L402.069 281.182L401.901 281.627L401.69 282.052L401.642 282.139L401.389 282.539L401.16 282.837C401.031 282.984 400.894 283.129 400.756 283.266L400.393 283.584L400.079 283.808L399.65 284.056L399.557 284.105L320.044 314.795L319.941 314.825L319.56 314.908L319.456 314.924C311.294 315.873 302.764 316.394 294.542 317.112L294.331 314.998L294.652 314.96L294.941 314.898L295.262 314.792L373.847 284.46L374.145 284.327L374.347 284.211L374.634 284.006L374.829 283.836L374.985 283.666L375.187 283.406L375.313 283.207L375.433 282.963L375.53 282.713L375.616 282.415L375.653 282.2L375.681 281.861L375.676 281.645L375.644 281.346L375.579 281.059L375.476 280.739L345.142 202.151L345.025 201.885L344.862 201.601L344.724 201.407L344.497 201.151L344.347 201.009L344.125 200.839L343.854 200.67L343.645 200.566L343.395 200.469L343.096 200.385L342.883 200.345L342.545 200.317L342.493 200.321Z" fill="black"/>
<g filter="url(#filter4_d_214_951)">
<path fill-rule="evenodd" clip-rule="evenodd" d="M318.956 313.914L294.45 316.054L294.071 316.06L293.695 316.029L293.325 315.963L292.965 315.861L292.615 315.725L292.282 315.559L291.966 315.36L291.669 315.132L291.392 314.873L291.142 314.588L290.915 314.276L290.724 313.938L290.562 313.575L260.199 234.909L260.075 234.531L259.991 234.151L259.947 233.769L259.942 233.388L259.972 233.013L260.037 232.644L260.14 232.283L260.277 231.935L260.443 231.6L260.64 231.284L260.87 230.986L261.129 230.709L261.414 230.459L261.726 230.234L262.064 230.041L262.426 229.88L341.092 199.516L341.471 199.392L341.852 199.309L366.354 197.169L365.973 197.253L365.596 197.377L286.93 227.74L286.569 227.902L286.23 228.096L285.918 228.319L285.633 228.57L285.374 228.846L285.146 229.144L284.947 229.46L284.779 229.795L284.645 230.144L284.542 230.504L284.476 230.873L284.444 231.25L284.449 231.63L284.494 232.012L284.577 232.392L284.701 232.769L315.065 311.435L315.228 311.798L315.422 312.136L315.645 312.447L315.896 312.733L316.171 312.991L316.469 313.221L316.787 313.419L317.121 313.586L317.47 313.721L317.828 313.822L318.2 313.889L318.575 313.921L318.956 313.914Z" fill="#6DC56A"/>
</g>
<path d="M319.046 314.974L294.542 317.113L293.987 317.12L293.612 317.09C293.418 317.058 293.229 317.024 293.037 316.985L292.678 316.883L292.233 316.714L291.806 316.507L291.719 316.456L291.317 316.199L291.019 315.97C290.872 315.842 290.734 315.708 290.594 315.575L290.342 315.29L290.275 315.207L290.054 314.894L289.995 314.804L289.8 314.465L259.062 234.859L259.036 234.756L258.953 234.376L258.935 234.271L258.891 233.89C258.885 233.697 258.882 233.5 258.882 233.305L258.914 232.929C258.944 232.739 258.976 232.547 259.015 232.357L259.119 231.997L259.288 231.552C259.364 231.379 259.454 231.208 259.541 231.038L259.738 230.722C259.851 230.566 259.972 230.41 260.094 230.263L260.351 229.986L260.714 229.66L260.799 229.595L261.199 229.313L261.535 229.118L341.141 198.383L341.247 198.354L341.626 198.271L341.759 198.25L366.263 196.111L366.579 198.208L366.258 198.278L365.929 198.387L287.336 228.719L287.074 228.838L286.787 229L286.595 229.139L286.338 229.364L286.195 229.516L286.025 229.736L285.856 230.007L285.753 230.215L285.656 230.464L285.573 230.764L285.534 230.977L285.505 231.317L285.507 231.533L285.544 231.831L285.605 232.12L285.713 232.44L316.043 311.028L316.164 311.294L316.314 311.556L316.479 311.788L316.688 312.027L316.842 312.169L317.094 312.362L317.297 312.491L317.539 312.612L317.79 312.71L318.088 312.795L318.302 312.832L318.641 312.86L318.937 312.855L319.046 314.974ZM294.358 314.996L314.893 313.202L314.778 313.067L314.554 312.755L314.5 312.663L314.303 312.325L283.569 232.72L283.54 232.616L283.457 232.234L283.441 232.132L283.397 231.751C283.386 231.556 283.384 231.361 283.384 231.166L283.416 230.79C283.448 230.599 283.482 230.406 283.518 230.217L283.621 229.857L283.79 229.412C283.869 229.24 283.956 229.068 284.045 228.9L284.242 228.582L284.532 228.197C284.662 228.053 284.795 227.913 284.929 227.773L285.213 227.521C285.373 227.401 285.537 227.283 285.702 227.172L286.041 226.979C306.884 217.037 336.395 207.511 358.692 198.907L342.005 200.363L341.743 200.42L341.421 200.526L262.835 230.858L262.567 230.976L262.286 231.139L262.068 231.295L261.878 231.462L261.674 231.679L261.522 231.877L261.352 232.146L261.249 232.355L261.152 232.604L261.067 232.902L261.029 233.115L261.003 233.455L261.006 233.673L261.04 233.971L261.102 234.26L261.208 234.58L291.54 313.167L291.659 313.434L291.808 313.696L291.975 313.927L292.184 314.167L292.338 314.308L292.589 314.502L292.795 314.63L293.034 314.752L293.288 314.848L293.587 314.933L293.8 314.972L294.138 314.999L294.358 314.996Z" fill="black"/>
<path fill-rule="evenodd" clip-rule="evenodd" d="M287.281 228.721L365.995 198.34C367.443 197.781 369.083 198.508 369.644 199.956L400.025 278.67C400.583 280.118 399.857 281.76 398.409 282.319L319.694 312.7C318.246 313.258 316.604 312.532 316.044 311.084L285.664 232.369C285.106 230.922 285.832 229.279 287.281 228.721Z" fill="#F9F3E7"/>
<path fill-rule="evenodd" clip-rule="evenodd" d="M260.12 232.348L284.644 230.146C284.683 230.027 284.729 229.91 284.779 229.795C284.828 229.681 284.885 229.571 284.945 229.464C284.947 229.462 284.947 229.459 284.949 229.456C285.007 229.352 285.073 229.249 285.142 229.148L285.146 229.143L285.149 229.138C285.218 229.038 285.294 228.94 285.374 228.846C285.454 228.752 285.539 228.661 285.628 228.574L285.633 228.57L285.635 228.565C285.724 228.48 285.818 228.398 285.917 228.32C286.016 228.241 286.12 228.167 286.227 228.097C286.23 228.095 286.23 228.094 286.232 228.093C286.34 228.024 286.448 227.961 286.565 227.903C286.567 227.902 286.569 227.901 286.571 227.899C286.688 227.84 286.808 227.787 286.931 227.74L365.596 197.376C365.72 197.327 365.846 197.287 365.973 197.252C366.097 197.218 366.223 197.191 366.351 197.169L342.385 199.262L341.852 199.308L341.471 199.392L341.092 199.516L262.424 229.88L262.064 230.041L261.725 230.234L261.414 230.459L261.129 230.709L260.87 230.985L260.639 231.283L260.443 231.6L260.276 231.934L260.139 232.283L260.12 232.348Z" fill="#478145"/>
<path d="M262.385 231.081L283.914 229.147L284.022 228.939C284.059 228.873 284.099 228.807 284.139 228.741L284.276 228.533C284.302 228.493 284.352 228.428 284.414 228.345C284.634 228.073 284.814 227.881 285.071 227.645C285.106 227.61 285.17 227.557 285.252 227.493C285.598 227.234 285.92 227.022 286.317 226.846C286.361 226.825 286.439 226.793 286.549 226.752L358.69 198.907L342.006 200.363L341.743 200.42L341.421 200.526L262.835 230.858L262.568 230.977L262.385 231.081ZM284.735 231.2L260.289 233.397C260.142 233.42 259.988 233.413 259.833 233.37C259.27 233.211 258.94 232.625 259.098 232.061C259.141 231.911 259.203 231.767 259.259 231.622C259.275 231.568 259.298 231.514 259.323 231.461L259.49 231.125L259.493 231.128L259.545 231.038L259.706 230.78C259.735 230.73 259.766 230.681 259.802 230.635L260.032 230.337L260.315 230.029C260.349 229.988 260.386 229.948 260.429 229.912L260.652 229.719C260.694 229.673 260.742 229.632 260.796 229.594L261.106 229.37L261.199 229.313L261.535 229.118C296.096 215.812 316.376 207.983 340.765 198.506L341.094 198.398C341.142 198.379 341.194 198.365 341.247 198.354L341.582 198.281C341.638 198.265 341.697 198.255 341.759 198.25L366.258 196.111C366.805 196.064 367.305 196.445 367.397 196.995C367.493 197.573 367.101 198.121 366.522 198.217L366.383 198.246C366.242 198.282 366.116 198.318 365.978 198.366L287.312 228.729C286.589 229.042 286.183 229.412 285.804 230.101C285.752 230.22 285.701 230.335 285.655 230.458C285.534 230.858 285.176 231.163 284.735 231.2Z" fill="black"/>
<defs>
<filter id="filter0_d_214_951" x="0.316132" y="0.229736" width="181.531" height="202.907" filterUnits="userSpaceOnUse" color-interpolation-filters="sRGB">
<feFlood flood-opacity="0" result="BackgroundImageFix"/>
<feColorMatrix in="SourceAlpha" type="matrix" values="0 0 0 0 0 0 0 0 0 0 0 0 0 0 0 0 0 0 127 0" result="hardAlpha"/>
<feOffset dx="-5" dy="4"/>
<feGaussianBlur stdDeviation="20"/>
<feComposite in2="hardAlpha" operator="out"/>
<feColorMatrix type="matrix" values="0 0 0 0 1 0 0 0 0 1 0 0 0 0 1 0 0 0 0.25 0"/>
<feBlend mode="normal" in2="BackgroundImageFix" result="effect1_dropShadow_214_951"/>
<feBlend mode="normal" in="SourceGraphic" in2="effect1_dropShadow_214_951" result="shape"/>
</filter>
<filter id="filter1_d_214_951" x="60.3563" y="202.963" width="144.589" height="144.589" filterUnits="userSpaceOnUse" color-interpolation-filters="sRGB">
<feFlood flood-opacity="0" result="BackgroundImageFix"/>
<feColorMatrix in="SourceAlpha" type="matrix" values="0 0 0 0 0 0 0 0 0 0 0 0 0 0 0 0 0 0 127 0" result="hardAlpha"/>
<feOffset dy="4"/>
<feGaussianBlur stdDeviation="9.5"/>
<feComposite in2="hardAlpha" operator="out"/>
<feColorMatrix type="matrix" values="0 0 0 0 1 0 0 0 0 1 0 0 0 0 1 0 0 0 0.25 0"/>
<feBlend mode="normal" in2="BackgroundImageFix" result="effect1_dropShadow_214_951"/>
<feBlend mode="normal" in="SourceGraphic" in2="effect1_dropShadow_214_951" result="shape"/>
</filter>
<filter id="filter2_d_214_951" x="12.5596" y="174.46" width="120.544" height="177.765" filterUnits="userSpaceOnUse" color-interpolation-filters="sRGB">
<feFlood flood-opacity="0" result="BackgroundImageFix"/>
<feColorMatrix in="SourceAlpha" type="matrix" values="0 0 0 0 0 0 0 0 0 0 0 0 0 0 0 0 0 0 127 0" result="hardAlpha"/>
<feOffset dx="-5" dy="4"/>
<feGaussianBlur stdDeviation="20"/>
<feComposite in2="hardAlpha" operator="out"/>
<feColorMatrix type="matrix" values="0 0 0 0 1 0 0 0 0 1 0 0 0 0 1 0 0 0 0.25 0"/>
<feBlend mode="normal" in2="BackgroundImageFix" result="effect1_dropShadow_214_951"/>
<feBlend mode="normal" in="SourceGraphic" in2="effect1_dropShadow_214_951" result="shape"/>
</filter>
<filter id="filter3_d_214_951" x="206.855" y="14.0642" width="205.177" height="178.855" filterUnits="userSpaceOnUse" color-interpolation-filters="sRGB">
<feFlood flood-opacity="0" result="BackgroundImageFix"/>
<feColorMatrix in="SourceAlpha" type="matrix" values="0 0 0 0 0 0 0 0 0 0 0 0 0 0 0 0 0 0 127 0" result="hardAlpha"/>
<feOffset dx="-5" dy="4"/>
<feGaussianBlur stdDeviation="20"/>
<feComposite in2="hardAlpha" operator="out"/>
<feColorMatrix type="matrix" values="0 0 0 0 1 0 0 0 0 1 0 0 0 0 1 0 0 0 0.25 0"/>
<feBlend mode="normal" in2="BackgroundImageFix" result="effect1_dropShadow_214_951"/>
<feBlend mode="normal" in="SourceGraphic" in2="effect1_dropShadow_214_951" result="shape"/>
</filter>
<filter id="filter4_d_214_951" x="214.942" y="161.169" width="186.412" height="198.891" filterUnits="userSpaceOnUse" color-interpolation-filters="sRGB">
<feFlood flood-opacity="0" result="BackgroundImageFix"/>
<feColorMatrix in="SourceAlpha" type="matrix" values="0 0 0 0 0 0 0 0 0 0 0 0 0 0 0 0 0 0 127 0" result="hardAlpha"/>
<feOffset dx="-5" dy="4"/>
<feGaussianBlur stdDeviation="20"/>
<feComposite in2="hardAlpha" operator="out"/>
<feColorMatrix type="matrix" values="0 0 0 0 1 0 0 0 0 1 0 0 0 0 1 0 0 0 0.25 0"/>
<feBlend mode="normal" in2="BackgroundImageFix" result="effect1_dropShadow_214_951"/>
<feBlend mode="normal" in="SourceGraphic" in2="effect1_dropShadow_214_951" result="shape"/>
</filter>
</defs>
</svg>
