<svg width="44" height="44" viewBox="0 0 44 44" fill="none" xmlns="http://www.w3.org/2000/svg">
<path d="M19.6139 5.88433V13.7299C19.6139 15.2905 18.994 16.7871 17.8905 17.8906C16.787 18.9941 15.2903 19.6141 13.7297 19.6141H5.88418C4.3236 19.6141 2.82693 18.9941 1.72344 17.8906C0.619938 16.7871 0 15.2905 0 13.7299V5.88433C0 4.32375 0.619938 2.82708 1.72344 1.72358C2.82693 0.620087 4.3236 0.00014893 5.88418 0.00014893H13.7297C15.2903 0.00014893 16.787 0.620087 17.8905 1.72358C18.994 2.82708 19.6139 4.32375 19.6139 5.88433ZM38.1163 0H30.2707C28.7101 0 27.2134 0.619938 26.1099 1.72344C25.0065 2.82693 24.3865 4.3236 24.3865 5.88418V13.7297C24.3865 15.2903 25.0065 16.787 26.1099 17.8905C27.2134 18.994 28.7101 19.6139 30.2707 19.6139H38.1163C39.6768 19.6139 41.1735 18.994 42.277 17.8905C43.3805 16.787 44.0004 15.2903 44.0004 13.7297V5.88418C44.0004 4.3236 43.3805 2.82693 42.277 1.72344C41.1735 0.619938 39.6768 0 38.1163 0ZM13.7304 24.3857H5.88483C4.32425 24.3857 2.82758 25.0056 1.72409 26.1091C0.620589 27.2126 0.000650588 28.7093 0.000650588 30.2699V38.1155C0.000650588 39.676 0.620589 41.1727 1.72409 42.2762C2.82758 43.3797 4.32425 43.9996 5.88483 43.9996H13.7304C15.291 43.9996 16.7876 43.3797 17.8911 42.2762C18.9946 41.1727 19.6146 39.676 19.6146 38.1155V30.2699C19.6146 28.7093 18.9946 27.2126 17.8911 26.1091C16.7876 25.0056 15.291 24.3857 13.7304 24.3857ZM38.1163 24.3861H30.2707C28.7101 24.3861 27.2134 25.006 26.11 26.1095C25.0065 27.213 24.3865 28.7097 24.3865 30.2703V38.1158C24.3865 39.6764 25.0065 41.1731 26.11 42.2766C27.2134 43.3801 28.7101 44 30.2707 44H38.1163C39.6768 44 41.1735 43.3801 42.277 42.2766C43.3805 41.1731 44.0004 39.6764 44.0004 38.1158V30.2703C44.0004 28.7097 43.3805 27.213 42.277 26.1095C41.1735 25.006 39.6768 24.3861 38.1163 24.3861Z" fill="#BB6A37"/>
</svg>
