<svg width="66" height="76" viewBox="0 0 66 76" fill="none" xmlns="http://www.w3.org/2000/svg">
<path d="M32.536 17.135L32.0801 17.3982L31.6243 17.6613L30.7125 18.1877L30.2566 18.4508L29.8008 18.714L29.3449 18.9774L28.889 19.2405L28.4334 19.5037L27.9775 19.7668L27.5216 20.03L27.0655 20.2932L26.6099 20.5563L26.154 20.8195L25.6981 21.0828L24.7864 21.6092L24.3305 21.8725L23.8746 22.1355L23.4187 22.3989L22.9629 22.6618L22.5072 22.9252L21.5954 23.4515L21.1396 23.7146L20.6837 23.978L20.2278 24.2412L19.3161 24.7675L18.8602 25.0307L18.4652 25.2587V53.5993L18.4765 53.6057L19.0908 53.9511L19.7051 54.2966L20.3192 54.642L20.9337 54.9875L21.5481 55.3331L22.1622 55.6786L22.7767 56.0238L23.3908 56.3693L24.0051 56.7149L24.6197 57.0604L25.2338 57.4058L25.8481 57.7513L27.0767 58.4422L27.6911 58.7878L28.3054 59.1333H28.6859V31.1597L28.8169 31.084L30.1845 30.2945L30.6402 30.0313L31.0963 29.768L31.5519 29.505L32.0078 29.2416L32.4637 28.9785L32.9195 28.7153L32.9997 28.669L33.0001 28.6688V28.669L33.0805 28.7153L33.5364 28.9785L33.9923 29.2416L34.4479 29.505L34.9038 29.768L35.3597 30.0313L35.8156 30.2945L37.1832 31.084L37.3141 31.1597V37.5843H32.9997V47.805H37.3141L37.4544 47.7324L38.1229 47.3869L38.7911 47.0415L39.46 46.6958L40.1285 46.3504L40.797 46.0049L41.4655 45.6595L42.1339 45.314L42.8026 44.9686L43.4711 44.6229L44.1396 44.2777L44.808 43.9322L45.4767 43.5866L46.1452 43.2411L46.8137 42.8957L47.4824 42.5502L47.5348 42.5231V25.2587L47.1399 25.0307L46.684 24.7675L46.2281 24.5043L45.7723 24.2412L45.3164 23.978L44.8605 23.7146L44.4046 23.4515L43.9488 23.1883L43.4929 22.9252L43.037 22.6618L42.5813 22.3989L42.1253 22.1355L41.6696 21.8725L41.2135 21.6092L40.7578 21.346L40.302 21.0828L39.8461 20.8195L39.39 20.5563L38.9343 20.2932L38.4783 20.03L38.0226 19.7668L37.5667 19.5037L36.655 18.9774L36.1993 18.714L35.7432 18.4508L35.2876 18.1877L34.8315 17.9245L34.3758 17.6613L33.9199 17.3982L33.4641 17.135L33.0001 16.8672V16.867L32.9997 16.8672L32.536 17.135Z" fill="#D02027"/>
<path d="M59.1132 53.0765L32.9997 68.1531L6.88659 53.0765V22.9236L32.9997 7.84688L59.1132 22.9236V53.0765ZM32.9997 0.5L0.524017 19.2499V56.7501L32.9997 75.5L65.4759 56.7501V19.2499L32.9997 0.5Z" fill="#E95E64"/>
</svg>
