<svg width="60" height="60" viewBox="0 0 60 60" fill="none" xmlns="http://www.w3.org/2000/svg">
<g clip-path="url(#clip0_214_220)">
<path d="M51.1249 50.8564C62.6435 39.3378 62.6435 20.6624 51.1249 9.14385C39.6063 -2.37475 20.9309 -2.37476 9.41231 9.14385C-2.1063 20.6624 -2.1063 39.3378 9.41231 50.8564C20.9309 62.375 39.6063 62.375 51.1249 50.8564Z" fill="#011D41"/>
<path d="M5.98195 44.0221C-1.7624 30.6089 2.83345 13.4575 16.2467 5.71337C29.66 -2.03072 46.8122 2.56487 54.5555 15.9781C62.2988 29.3914 57.704 46.5436 44.2907 54.2869C30.8775 62.0302 13.726 57.4354 5.98195 44.0221Z" fill="url(#paint0_linear_214_220)"/>
<mask id="mask0_214_220" style="mask-type:luminance" maskUnits="userSpaceOnUse" x="5" y="5" width="50" height="50">
<path d="M30.2687 5.62051C43.7335 5.62051 54.6483 16.5355 54.6483 30.0001C54.6483 43.4647 43.733 54.3798 30.2687 54.3798C16.8043 54.3798 5.88904 43.4647 5.88904 30.0001C5.88904 16.5355 16.8041 5.62051 30.2687 5.62051Z" fill="white"/>
</mask>
<g mask="url(#mask0_214_220)">
<path d="M30.2687 30.0001L54.267 -0.653809L55.3791 0.250296L30.2687 30.0001Z" fill="#3AAE56"/>
<path d="M30.2687 30.0001L55.1936 0.0996704L56.1016 0.875576L30.2687 30.0001Z" fill="#3AAE56"/>
<path d="M30.2687 30.0001L55.92 0.720276L56.8083 1.51836L30.2687 30.0001Z" fill="#3BAF57"/>
<path d="M30.2687 30.0001L56.6306 1.3587L57.4994 2.1782L30.2687 30.0001Z" fill="#3BAF57"/>
<path d="M30.2687 30.0001L57.3258 2.01413L58.1739 2.85478L30.2687 30.0001Z" fill="#3CAF57"/>
<path d="M30.2687 30.0001L58.0042 2.68661L58.8317 3.5479L30.2687 30.0001Z" fill="#3CAF57"/>
<path d="M30.2687 30.0001L58.6663 3.37558L59.4724 4.25673L30.2687 30.0001Z" fill="#3DB057"/>
<path d="M30.2687 30.0001L59.3112 4.08057L60.0954 4.98132L30.2687 30.0001Z" fill="#3DB058"/>
<path d="M30.2687 30.0001L59.9385 4.80099L60.7003 5.72083L30.2687 30.0001Z" fill="#3EB058"/>
<path d="M30.2687 30.0001L60.5481 5.53693L61.2871 6.47482L30.2687 30.0001Z" fill="#3EB058"/>
<path d="M30.2687 30.0001L61.1393 6.28729L61.8551 7.24325L30.2687 30.0001Z" fill="#3FB158"/>
<path d="M30.2687 30.0001L61.7119 7.05209L62.404 8.02533L30.2687 30.0001Z" fill="#3FB158"/>
<path d="M30.2687 30.0001L62.2655 7.8306L62.9336 8.8206L30.2687 30.0001Z" fill="#40B159"/>
<path d="M30.2687 30.0001L62.7999 8.6225L63.4435 9.62849L30.2687 30.0001Z" fill="#40B159"/>
<path d="M30.2687 30.0001L63.3148 9.42728L63.9336 10.4487L30.2687 30.0001Z" fill="#41B159"/>
<path d="M30.2687 30.0001L63.8098 10.2444L64.4031 11.2809L30.2687 30.0001Z" fill="#41B259"/>
<path d="M30.2687 30.0001L64.2844 11.0735L64.8524 12.1241L30.2687 30.0001Z" fill="#42B259"/>
<path d="M30.2687 30.0001L64.7387 11.9142L65.2806 12.9782L30.2687 30.0001Z" fill="#42B25A"/>
<path d="M30.2687 30.0001L65.1723 12.7654L65.6877 13.8428L30.2687 30.0001Z" fill="#43B25A"/>
<path d="M30.2687 30.0001L65.5847 13.6272L66.0735 14.7167L30.2687 30.0001Z" fill="#43B35A"/>
<path d="M30.2687 30.0001L65.9758 14.4988L66.4378 15.6L30.2687 30.0001Z" fill="#44B35A"/>
<path d="M30.2687 30.0001L66.3454 15.3799L66.7803 16.4922L30.2687 30.0001Z" fill="#44B35A"/>
<path d="M30.2687 30.0001L66.6934 16.2696L67.101 17.3922L30.2687 30.0001Z" fill="#45B35B"/>
<path d="M30.2687 30.0001L67.0194 17.1675L67.3991 18.2999L30.2687 30.0001Z" fill="#45B35B"/>
<path d="M30.2687 30.0001L67.3233 18.0734L67.6751 19.2146L30.2687 30.0001Z" fill="#46B45B"/>
<path d="M30.2687 30.0001L67.6047 18.9863L67.9287 20.136L30.2687 30.0001Z" fill="#46B45B"/>
<path d="M30.2687 30.0001L67.864 19.9059L68.1593 21.063L30.2687 30.0001Z" fill="#47B45B"/>
<path d="M30.2687 30.0001L68.1002 20.8316L68.3672 21.9958L30.2687 30.0001Z" fill="#47B45B"/>
<path d="M30.2687 30.0001L68.3138 21.7628L68.5522 22.9332L30.2687 30.0001Z" fill="#48B55C"/>
<path d="M30.2687 30.0001L68.5044 22.6989L68.7142 23.8746L30.2687 30.0001Z" fill="#48B55C"/>
<path d="M30.2687 30.0001L68.6721 23.6396L68.8529 24.82L30.2687 30.0001Z" fill="#49B55C"/>
<path d="M30.2687 30.0001L68.8168 24.584L68.9685 25.7685L30.2687 30.0001Z" fill="#49B55C"/>
<path d="M30.2687 30.0001L68.9381 25.5314L69.0606 26.7195L30.2687 30.0001Z" fill="#4AB65C"/>
<path d="M30.2687 30.0001L69.0361 26.482L69.1294 27.6724L30.2687 30.0001Z" fill="#4AB65D"/>
<path d="M30.2687 30.0001L69.1106 27.4343L69.1749 28.6268L30.2687 30.0001Z" fill="#4BB65D"/>
<path d="M30.2687 30.0001L69.1619 28.3885L69.1968 29.582L30.2687 30.0001Z" fill="#4BB65D"/>
<path d="M30.2687 30.0001L69.1898 29.3434L69.1952 30.5377L30.2687 30.0001Z" fill="#4CB65D"/>
<path d="M30.2687 30.0001L69.1942 30.2988L69.1705 31.4929L30.2687 30.0001Z" fill="#4CB75D"/>
<path d="M30.2687 30.0001L69.1751 31.254L69.122 32.447L30.2687 30.0001Z" fill="#4DB75E"/>
<path d="M30.2687 30.0001L69.1325 32.2084L69.0503 33.3999L30.2687 30.0001Z" fill="#4DB75E"/>
<path d="M30.2687 30.0001L69.0668 33.1615L68.9551 34.3504L30.2687 30.0001Z" fill="#4EB75E"/>
<path d="M30.2687 30.0001L68.9775 34.1126L68.8367 35.2986L30.2687 30.0001Z" fill="#4EB85E"/>
<path d="M30.2687 30.0001L68.8648 35.0613L68.6951 36.2435L30.2687 30.0001Z" fill="#4FB85E"/>
<path d="M30.2687 30.0001L68.7291 36.0072L68.5302 37.1847L30.2687 30.0001Z" fill="#4FB85F"/>
<path d="M30.2687 30.0001L68.5702 36.9492L68.3425 38.1216L30.2687 30.0001Z" fill="#50B85F"/>
<path d="M30.2687 30.0001L68.3881 37.8869L68.1317 39.0536L30.2687 30.0001Z" fill="#50B85F"/>
<path d="M30.2687 30.0001L68.183 38.8201L67.898 39.9798L30.2687 30.0001Z" fill="#51B95F"/>
<path d="M30.2687 30.0001L67.955 39.7479L67.6419 40.9005L30.2687 30.0001Z" fill="#51B95F"/>
<path d="M30.2687 30.0001L67.7045 40.6698L67.363 41.8144L30.2687 30.0001Z" fill="#52B960"/>
<path d="M30.2687 30.0001L67.4314 41.5853L67.062 42.721L30.2687 30.0001Z" fill="#52B960"/>
<path d="M30.2687 30.0001L67.1358 42.4938L66.7388 43.6202L30.2687 30.0001Z" fill="#53BA60"/>
<path d="M30.2687 30.0001L66.8182 43.3948L66.3934 44.5112L30.2687 30.0001Z" fill="#53BA60"/>
<path d="M30.2687 30.0001L66.4785 44.2878L66.0263 45.3934L30.2687 30.0001Z" fill="#54BA60"/>
<path d="M30.2687 30.0001L66.1169 45.1721L65.6379 46.2663L30.2687 30.0001Z" fill="#54BA61"/>
<path d="M30.2687 30.0001L65.7338 46.0473L65.228 47.1294L30.2687 30.0001Z" fill="#55BB61"/>
<path d="M30.2687 30.0001L65.3291 46.9129L64.7972 47.9821L30.2687 30.0001Z" fill="#55BB61"/>
<path d="M30.2687 30.0001L64.9035 47.7683L64.3456 48.8241L30.2687 30.0001Z" fill="#56BB61"/>
<path d="M30.2687 30.0001L64.457 48.6128L63.8733 49.6547L30.2687 30.0001Z" fill="#56BB61"/>
<path d="M30.2687 30.0001L63.9901 49.4462L63.3808 50.4734L30.2687 30.0001Z" fill="#57BB62"/>
<path d="M30.2687 30.0001L63.5026 50.2681L62.8683 51.28L30.2687 30.0001Z" fill="#57BC62"/>
<path d="M30.2687 30.0001L62.9952 51.0775L62.3364 52.0734L30.2687 30.0001Z" fill="#58BC62"/>
<path d="M30.2687 30.0001L62.4682 51.8743L61.7849 52.8537L30.2687 30.0001Z" fill="#58BC62"/>
<path d="M30.2687 30.0001L61.9216 52.6579L61.2146 53.6203L30.2687 30.0001Z" fill="#59BC62"/>
<path d="M30.2687 30.0001L61.356 53.4279L60.6257 54.3728L30.2687 30.0001Z" fill="#59BD63"/>
<path d="M30.2687 30.0001L60.7717 54.1837L60.0182 55.1105L30.2687 30.0001Z" fill="#5ABD63"/>
<path d="M30.2687 30.0001L60.1691 54.925L59.3932 55.833L30.2687 30.0001Z" fill="#5ABD63"/>
<path d="M30.2687 30.0001L59.5483 55.6514L58.7504 56.5398L30.2687 30.0001Z" fill="#5BBD63"/>
<path d="M30.2687 30.0001L58.9101 56.3621L58.0906 57.2308L30.2687 30.0001Z" fill="#5BBD63"/>
<path d="M30.2687 30.0001L58.2544 57.0572L57.4137 57.9054L30.2687 30.0001Z" fill="#5CBE64"/>
<path d="M30.2687 30.0001L57.5819 57.7356L56.7209 58.5631L30.2687 30.0001Z" fill="#5CBE64"/>
<path d="M30.2687 30.0001L56.8932 58.3978L56.0118 59.2039L30.2687 30.0001Z" fill="#5DBE64"/>
<path d="M30.2687 30.0001L56.1882 59.0427L55.2875 59.8268L30.2687 30.0001Z" fill="#5DBE64"/>
<path d="M30.2687 30.0001L55.4675 59.67L54.548 60.4317L30.2687 30.0001Z" fill="#5EBF64"/>
<path d="M30.2687 30.0001L54.7319 60.2795L53.7937 61.0185L30.2687 30.0001Z" fill="#5EBF65"/>
<path d="M30.2687 30.0001L53.9815 60.8707L53.0256 61.5865L30.2687 30.0001Z" fill="#5FBF65"/>
<path d="M30.2687 30.0001L53.2167 61.4434L52.2435 62.1354L30.2687 30.0001Z" fill="#5FBF65"/>
<path d="M30.2687 30.0001L52.4382 61.9969L51.4482 62.665L30.2687 30.0001Z" fill="#60C065"/>
<path d="M30.2687 30.0001L51.646 62.5314L50.6401 63.175L30.2687 30.0001Z" fill="#60C065"/>
<path d="M30.2687 30.0001L50.8413 63.0463L49.8198 63.6651L30.2687 30.0001Z" fill="#61C065"/>
<path d="M30.2687 30.0001L50.0243 63.5412L48.9879 64.1345L30.2687 30.0001Z" fill="#61C066"/>
<path d="M30.2687 30.0001L49.195 64.0159L48.1444 64.5839L30.2687 30.0001Z" fill="#62C066"/>
<path d="M30.2687 30.0001L48.3546 64.4701L47.2904 65.0121L30.2687 30.0001Z" fill="#62C166"/>
<path d="M30.2687 30.0001L47.5032 64.9037L46.426 65.4191L30.2687 30.0001Z" fill="#63C166"/>
<path d="M30.2687 30.0001L46.6414 65.3162L45.5518 65.805L30.2687 30.0001Z" fill="#63C166"/>
<path d="M30.2687 30.0001L45.7698 65.7072L44.6686 66.1692L30.2687 30.0001Z" fill="#64C167"/>
<path d="M30.2687 30.0001L44.8889 66.0769L43.7766 66.5118L30.2687 30.0001Z" fill="#65C267"/>
<path d="M30.2687 30.0001L43.9992 66.4248L42.8766 66.8324L30.2687 30.0001Z" fill="#65C267"/>
<path d="M30.2687 30.0001L43.101 66.7509L41.9689 67.1306L30.2687 30.0001Z" fill="#66C267"/>
<path d="M30.2687 30.0001L42.1954 67.0547L41.054 67.4066L30.2687 30.0001Z" fill="#66C267"/>
<path d="M30.2687 30.0001L41.2822 67.3362L40.1328 67.6601L30.2687 30.0001Z" fill="#67C268"/>
<path d="M30.2687 30.0001L40.3627 67.5954L39.2055 67.8908L30.2687 30.0001Z" fill="#67C368"/>
<path d="M30.2687 30.0001L39.4371 67.8317L38.273 68.0987L30.2687 30.0001Z" fill="#68C368"/>
<path d="M30.2687 30.0001L38.506 68.0453L37.3357 68.2836L30.2687 30.0001Z" fill="#68C368"/>
<path d="M30.2687 30.0001L37.5696 68.2359L36.3939 68.4456L30.2687 30.0001Z" fill="#69C368"/>
<path d="M30.2687 30.0001L36.6291 68.4036L35.4485 68.5844L30.2687 30.0001Z" fill="#69C469"/>
<path d="M30.2687 30.0001L35.6848 68.5483L34.5 68.6999L30.2687 30.0001Z" fill="#6AC469"/>
<path d="M30.2687 30.0001L34.7371 68.6695L33.5492 68.792L30.2687 30.0001Z" fill="#6AC469"/>
<path d="M30.2687 30.0001L33.7868 68.7675L32.5961 68.8609L30.2687 30.0001Z" fill="#6BC469"/>
<path d="M30.2687 30.0001L32.8345 68.8421L31.6417 68.9063L30.2687 30.0001Z" fill="#6BC569"/>
<path d="M30.2687 30.0001L31.8803 68.8934L30.6865 68.9282L30.2687 30.0001Z" fill="#6CC56A"/>
<path d="M30.2686 30.0001L30.9254 68.9213L29.7311 68.9267L30.2686 30.0001Z" fill="#6CC56A"/>
<path d="M30.2686 30.0001L29.9699 68.9256L28.7759 68.9019L30.2686 30.0001Z" fill="#6DC56A"/>
<path d="M30.2687 30.0001L29.0148 68.9066L27.8218 68.8534L30.2687 30.0001Z" fill="#6DC56A"/>
<path d="M30.2686 30.0001L28.0604 68.864L26.8689 68.7817L30.2686 30.0001Z" fill="#6EC66A"/>
<path d="M30.2686 30.0001L27.1072 68.7982L25.9181 68.6865L30.2686 30.0001Z" fill="#6EC66B"/>
<path d="M30.2687 30.0001L26.156 68.709L24.9702 68.5681L30.2687 30.0001Z" fill="#6FC66B"/>
<path d="M30.2686 30.0001L25.2072 68.5962L24.0253 68.4265L30.2686 30.0001Z" fill="#6FC66B"/>
<path d="M30.2687 30.0001L24.2616 68.4606L23.0841 68.2617L30.2687 30.0001Z" fill="#70C76B"/>
<path d="M30.2687 30.0001L23.3196 68.3017L22.1472 68.0739L30.2687 30.0001Z" fill="#70C76B"/>
<path d="M30.2686 30.0001L22.3816 68.1196L21.2152 67.8632L30.2686 30.0001Z" fill="#71C76C"/>
<path d="M30.2687 30.0001L21.4487 67.9145L20.2887 67.6295L30.2687 30.0001Z" fill="#71C76C"/>
<path d="M30.2686 30.0001L20.5208 67.6865L19.3683 67.3733L30.2686 30.0001Z" fill="#72C76C"/>
<path d="M30.2687 30.0001L19.599 67.436L18.4545 67.0945L30.2687 30.0001Z" fill="#72C86C"/>
<path d="M30.2687 30.0001L18.6832 67.1628L17.5477 66.7935L30.2687 30.0001Z" fill="#73C86C"/>
<path d="M30.2687 30.0001L17.7748 66.8672L16.6486 66.4702L30.2687 30.0001Z" fill="#73C86D"/>
<path d="M30.2686 30.0001L16.8737 66.5497L15.7576 66.1249L30.2686 30.0001Z" fill="#74C86D"/>
<path d="M30.2686 30.0001L15.9809 66.21L14.8754 65.7578L30.2686 30.0001Z" fill="#74C96D"/>
<path d="M30.2687 30.0001L15.0965 65.8483L14.0026 65.3693L30.2687 30.0001Z" fill="#75C96D"/>
<path d="M30.2686 30.0001L14.2212 65.4653L13.1394 64.9594L30.2686 30.0001Z" fill="#75C96D"/>
<path d="M30.2686 30.0001L13.3558 65.0606L12.2866 64.5287L30.2686 30.0001Z" fill="#76C96E"/>
<path d="M30.2687 30.0001L12.5005 64.6349L11.4447 64.077L30.2687 30.0001Z" fill="#76CA6E"/>
<path d="M30.2687 30.0001L11.6557 64.1884L10.6141 63.6047L30.2687 30.0001Z" fill="#77CA6E"/>
<path d="M30.2687 30.0001L10.8226 63.7216L9.79517 63.1123L30.2687 30.0001Z" fill="#77CA6E"/>
<path d="M30.2686 30.0001L10.0007 63.234L8.98877 62.5997L30.2686 30.0001Z" fill="#78CA6E"/>
<path d="M30.2686 30.0001L9.19126 62.7266L8.19507 62.0679L30.2686 30.0001Z" fill="#78CA6F"/>
<path d="M30.2687 30.0001L8.39448 62.1997L7.41479 61.5164L30.2687 30.0001Z" fill="#79CB6F"/>
<path d="M30.2687 30.0001L7.61085 61.6531L6.64819 60.946L30.2687 30.0001Z" fill="#79CB6F"/>
<path d="M30.2686 30.0001L6.84086 61.0874L5.896 60.3572L30.2686 30.0001Z" fill="#7ACB6F"/>
<path d="M30.2687 30.0001L6.08487 60.5031L5.15833 59.7497L30.2687 30.0001Z" fill="#7ACB6F"/>
<path d="M30.2687 30.0001L5.34377 59.9006L4.43579 59.1247L30.2687 30.0001Z" fill="#7BCC6F"/>
<path d="M30.2687 30.0001L4.61739 59.2797L3.72876 58.4819L30.2687 30.0001Z" fill="#7BCC70"/>
<path d="M30.2687 30.0001L3.90649 58.6415L3.03772 57.822L30.2687 30.0001Z" fill="#7CCC70"/>
<path d="M30.2687 30.0001L3.21155 57.9858L2.36316 57.1452L30.2687 30.0001Z" fill="#7CCC70"/>
<path d="M30.2687 30.0001L2.53294 57.3134L1.70544 56.4523L30.2687 30.0001Z" fill="#7DCC70"/>
<path d="M30.2687 30.0001L1.87103 56.6247L1.06494 55.7432L30.2687 30.0001Z" fill="#7DCD70"/>
<path d="M30.2687 30.0001L1.22618 55.9197L0.442017 55.0189L30.2687 30.0001Z" fill="#7ECD71"/>
<path d="M30.2686 30.0001L0.598768 55.199L-0.163208 54.2794L30.2686 30.0001Z" fill="#7ECD71"/>
<path d="M30.2686 30.0001L-0.0107372 54.4633L-0.749756 53.5252L30.2686 30.0001Z" fill="#7FCD71"/>
<path d="M30.2687 30.0001L-0.601946 53.7129L-1.31775 52.757L30.2687 30.0001Z" fill="#7FCE71"/>
<path d="M30.2686 30.0001L-1.17463 52.9481L-1.8667 51.9749L30.2686 30.0001Z" fill="#80CE71"/>
<path d="M30.2687 30.0001L-1.7284 52.1696L-2.39648 51.1796L30.2687 30.0001Z" fill="#80CE72"/>
<path d="M30.2687 30.0001L-2.26279 51.3775L-2.90637 50.3715L30.2687 30.0001Z" fill="#81CE72"/>
<path d="M30.2687 30.0001L-2.77742 50.5727L-3.39624 49.5515L30.2687 30.0001Z" fill="#81CF72"/>
<path d="M30.2687 30.0001L-3.27243 49.7558L-3.86597 48.7193L30.2687 30.0001Z" fill="#82CF72"/>
<path d="M30.2687 30.0001L-3.74706 48.9265L-4.31506 47.8759L30.2687 30.0001Z" fill="#82CF72"/>
<path d="M30.2687 30.0001L-4.2016 48.0861L-4.74329 47.0218L30.2687 30.0001Z" fill="#83CF73"/>
<path d="M30.2687 30.0001L-4.63488 47.2346L-5.15051 46.1574L30.2687 30.0001Z" fill="#83CF73"/>
<path d="M30.2686 30.0001L-5.04743 46.3728L-5.5365 45.2832L30.2686 30.0001Z" fill="#84D073"/>
<path d="M30.2687 30.0001L-5.43839 45.5012L-5.90063 44.4L30.2687 30.0001Z" fill="#84D073"/>
<path d="M30.2686 30.0001L-5.80839 44.6203L-6.24329 43.508L30.2686 30.0001Z" fill="#85D073"/>
<path d="M30.2687 30.0001L-6.15604 43.7306L-6.5636 42.6081L30.2687 30.0001Z" fill="#85D074"/>
<path d="M30.2687 30.0001L-6.4821 42.8325L-6.86206 41.7003L30.2687 30.0001Z" fill="#86D174"/>
<path d="M30.2686 30.0001L-6.78598 41.9268L-7.13782 40.7854L30.2686 30.0001Z" fill="#86D174"/>
<path d="M30.2687 30.0001L-7.06763 41.0137L-7.39136 39.8643L30.2687 30.0001Z" fill="#87D174"/>
<path d="M30.2687 30.0001L-7.3266 40.0941L-7.62195 38.937L30.2687 30.0001Z" fill="#87D174"/>
<path d="M30.2687 30.0001L-7.56284 39.1686L-7.83008 38.0045L30.2687 30.0001Z" fill="#88D175"/>
<path d="M30.2687 30.0001L-7.77641 38.2374L-8.01501 37.0671L30.2687 30.0001Z" fill="#88D275"/>
<path d="M30.2687 30.0001L-7.9673 37.3011L-8.17676 36.1253L30.2687 30.0001Z" fill="#89D275"/>
<path d="M30.2687 30.0001L-8.13499 36.3606L-8.31555 35.18L30.2687 30.0001Z" fill="#89D275"/>
<path d="M30.2687 30.0001L-8.27948 35.4162L-8.43115 34.2315L30.2687 30.0001Z" fill="#8AD275"/>
<path d="M30.2687 30.0001L-8.40067 34.4685L-8.52319 33.2807L30.2687 30.0001Z" fill="#8AD376"/>
<path d="M30.2687 30.0001L-8.49866 33.5183L-8.59204 32.3276L30.2687 30.0001Z" fill="#8BD376"/>
<path d="M30.2687 30.0001L-8.57348 32.5659L-8.63745 31.3732L30.2687 30.0001Z" fill="#8BD376"/>
<path d="M30.2687 30.0001L-8.6246 31.6118L-8.65942 30.418L30.2687 30.0001Z" fill="#8CD376"/>
<path d="M30.2687 30.0001L-8.65241 30.6568L-8.65808 29.4626L30.2687 30.0001Z" fill="#8CD476"/>
<path d="M30.2687 30.0001L-8.65686 29.7014L-8.63313 28.5074L30.2687 30.0001Z" fill="#8DD477"/>
<path d="M30.2686 30.0001L-8.63806 28.7462L-8.58492 27.5532L30.2686 30.0001Z" fill="#8DD477"/>
<path d="M30.2687 30.0001L-8.59546 27.7918L-8.51292 26.6004L30.2687 30.0001Z" fill="#8ED477"/>
<path d="M30.2687 30.0001L-8.52942 26.8387L-8.41799 25.6496L30.2687 30.0001Z" fill="#8ED477"/>
<path d="M30.2687 30.0001L-8.44019 25.8874L-8.2996 24.7016L30.2687 30.0001Z" fill="#8FD577"/>
<path d="M30.2686 30.0001L-8.32776 24.9387L-8.15803 23.7568L30.2686 30.0001Z" fill="#90D578"/>
<path d="M30.2687 30.0001L-8.19177 23.9931L-7.99315 22.8155L30.2687 30.0001Z" fill="#90D578"/>
<path d="M30.2687 30.0001L-8.03284 23.051L-7.80507 21.8787L30.2687 30.0001Z" fill="#91D578"/>
<path d="M30.2687 30.0001L-7.85071 22.1131L-7.59431 20.9467L30.2687 30.0001Z" fill="#91D678"/>
<path d="M30.2686 30.0001L-7.64575 21.1801L-7.36098 20.0201L30.2686 30.0001Z" fill="#92D678"/>
<path d="M30.2686 30.0001L-7.41797 20.2523L-7.10456 19.0998L30.2686 30.0001Z" fill="#92D679"/>
<path d="M30.2686 30.0001L-7.16724 19.3304L-6.82597 18.1859L30.2686 30.0001Z" fill="#93D679"/>
<path d="M30.2687 30.0001L-6.89404 18.4147L-6.52466 17.2792L30.2687 30.0001Z" fill="#93D679"/>
<path d="M30.2687 30.0001L-6.59863 17.5062L-6.20139 16.38L30.2687 30.0001Z" fill="#94D779"/>
<path d="M30.2687 30.0001L-6.28088 16.6052L-5.8563 15.489L30.2687 30.0001Z" fill="#94D779"/>
<path d="M30.2687 30.0001L-5.94116 15.7124L-5.48924 14.6069L30.2687 30.0001Z" fill="#95D779"/>
<path d="M30.2686 30.0001L-5.57959 14.8279L-5.10084 13.734L30.2686 30.0001Z" fill="#95D77A"/>
<path d="M30.2686 30.0001L-5.19653 13.9527L-4.69096 12.8709L30.2686 30.0001Z" fill="#96D87A"/>
<path d="M30.2687 30.0001L-4.79199 13.0873L-4.25985 12.0181L30.2687 30.0001Z" fill="#96D87A"/>
<path d="M30.2686 30.0001L-4.36646 12.232L-3.80826 11.1762L30.2686 30.0001Z" fill="#97D87A"/>
<path d="M30.2687 30.0001L-3.91992 11.3872L-3.33619 10.3456L30.2687 30.0001Z" fill="#97D87A"/>
<path d="M30.2687 30.0001L-3.45276 10.554L-2.84349 9.52658L30.2687 30.0001Z" fill="#98D97B"/>
<path d="M30.2687 30.0001L-2.96545 9.73217L-2.33116 8.72025L30.2687 30.0001Z" fill="#98D97B"/>
<path d="M30.2687 30.0001L-2.45813 8.92274L-1.79907 7.92654L30.2687 30.0001Z" fill="#99D97B"/>
<path d="M30.2686 30.0001L-1.93091 8.12595L-1.24786 7.14627L30.2686 30.0001Z" fill="#99D97B"/>
<path d="M30.2687 30.0001L-1.38428 7.3423L-0.677244 6.37964L30.2687 30.0001Z" fill="#9AD97B"/>
<path d="M30.2687 30.0001L-0.818848 6.57233L-0.0883412 5.62747L30.2687 30.0001Z" fill="#9ADA7C"/>
<path d="M30.2687 30.0001L-0.234375 5.81629L0.518831 4.88974L30.2687 30.0001Z" fill="#9BDA7C"/>
<path d="M30.2686 30.0001L0.368164 5.07521L1.14407 4.16724L30.2686 30.0001Z" fill="#9BDA7C"/>
<path d="M30.2687 30.0001L0.988892 4.34883L1.78698 3.46021L30.2687 30.0001Z" fill="#9CDA7C"/>
<path d="M30.2686 30.0001L1.6272 3.63793L2.4467 2.76917L30.2686 30.0001Z" fill="#9CDB7C"/>
<path d="M30.2687 30.0001L2.28271 2.94299L3.12336 2.0946L30.2687 30.0001Z" fill="#9DDB7D"/>
<path d="M30.2687 30.0001L2.9552 2.26435L3.81649 1.43686L30.2687 30.0001Z" fill="#9DDB7D"/>
<path d="M30.2687 30.0001L3.64417 1.60244L4.52531 0.796356L30.2687 30.0001Z" fill="#9EDB7D"/>
<path d="M30.2687 30.0001L4.34912 0.957591L5.24987 0.173431L30.2687 30.0001Z" fill="#9EDB7D"/>
<path d="M30.2687 30.0001L5.06958 0.330274L5.98942 -0.431702L30.2687 30.0001Z" fill="#9FDC7D"/>
<path d="M30.2686 30.0001L5.80542 -0.279261L6.74332 -1.01828L30.2686 30.0001Z" fill="#9FDC7E"/>
<path d="M30.2686 30.0001L6.55579 -0.87047L7.51174 -1.58627L30.2686 30.0001Z" fill="#A0DC7E"/>
<path d="M30.2687 30.0001L7.32068 -1.44312L8.29391 -2.13519L30.2687 30.0001Z" fill="#A0DC7E"/>
<path d="M30.2687 30.0001L8.09912 -1.99693L9.08912 -2.66501L30.2687 30.0001Z" fill="#A1DD7E"/>
<path d="M30.2686 30.0001L8.89099 -2.53141L9.89699 -3.17499L30.2686 30.0001Z" fill="#A1DD7E"/>
<path d="M30.2686 30.0001L9.6958 -3.04601L10.7173 -3.66483L30.2686 30.0001Z" fill="#A2DD7F"/>
<path d="M30.2687 30.0001L10.5131 -3.54102L11.5495 -4.13455L30.2687 30.0001Z" fill="#A2DD7F"/>
<path d="M30.2687 30.0001L11.342 -4.01562L12.3927 -4.58362L30.2687 30.0001Z" fill="#A3DE7F"/>
<path d="M30.2687 30.0001L12.1827 -4.47015L13.2468 -5.01184L30.2687 30.0001Z" fill="#A3DE7F"/>
<path d="M30.2687 30.0001L13.0339 -4.90349L14.1114 -5.41913L30.2687 30.0001Z" fill="#A4DE7F"/>
<path d="M30.2687 30.0001L13.8958 -5.31596L14.9853 -5.80502L30.2687 30.0001Z" fill="#A4DE80"/>
<path d="M30.2687 30.0001L14.7673 -5.70698L15.8685 -6.16922L30.2687 30.0001Z" fill="#A5DE80"/>
<path d="M30.2686 30.0001L15.6484 -6.07688L16.7607 -6.51178L30.2686 30.0001Z" fill="#A5DF80"/>
<path d="M30.2686 30.0001L16.5381 -6.4246L17.6607 -6.83215L30.2686 30.0001Z" fill="#A6DF80"/>
<path d="M30.2687 30.0001L17.436 -6.75066L18.5684 -7.13062L30.2687 30.0001Z" fill="#A6DF80"/>
<path d="M30.2686 30.0001L18.3419 -7.0545L19.4831 -7.40634L30.2686 30.0001Z" fill="#A7DF81"/>
<path d="M30.2687 30.0001L19.2549 -7.33619L20.4046 -7.65991L30.2687 30.0001Z" fill="#A7E081"/>
<path d="M30.2687 30.0001L20.1744 -7.59515L21.3316 -7.8905L30.2687 30.0001Z" fill="#A8E081"/>
<path d="M30.2687 30.0001L21.1002 -7.83146L22.2643 -8.09869L30.2687 30.0001Z" fill="#A8E081"/>
<path d="M30.2687 30.0001L22.0314 -8.04503L23.2017 -8.28363L30.2687 30.0001Z" fill="#A9E081"/>
<path d="M30.2687 30.0001L22.9675 -8.23592L24.1433 -8.44537L30.2687 30.0001Z" fill="#A9E082"/>
<path d="M30.2687 30.0001L23.9082 -8.40357L25.0886 -8.58414L30.2687 30.0001Z" fill="#AAE182"/>
<path d="M30.2687 30.0001L24.8525 -8.54803L26.037 -8.69971L30.2687 30.0001Z" fill="#AAE182"/>
<path d="M30.2687 30.0001L25.8 -8.66925L26.9882 -8.79178L30.2687 30.0001Z" fill="#ABE182"/>
<path d="M30.2686 30.0001L26.7505 -8.76728L27.9409 -8.86066L30.2686 30.0001Z" fill="#ABE182"/>
<path d="M30.2687 30.0001L27.7029 -8.8421L28.8954 -8.90607L30.2687 30.0001Z" fill="#ACE283"/>
<path d="M30.2686 30.0001L28.657 -8.89316L29.8505 -8.92798L30.2686 30.0001Z" fill="#ACE283"/>
<path d="M30.2687 30.0001L29.6119 -8.92102L30.8062 -8.9267L30.2687 30.0001Z" fill="#ADE283"/>
<path d="M30.2687 30.0001L30.5674 -8.92542L31.7614 -8.90168L30.2687 30.0001Z" fill="#ADE283"/>
<path d="M30.2687 30.0001L31.5226 -8.90656L32.7156 -8.85342L30.2687 30.0001Z" fill="#AEE383"/>
<path d="M30.2687 30.0001L32.477 -8.86401L33.6684 -8.78147L30.2687 30.0001Z" fill="#AEE383"/>
<path d="M30.2687 30.0001L33.4301 -8.79797L34.619 -8.68654L30.2687 30.0001Z" fill="#AFE384"/>
<path d="M30.2687 30.0001L34.3811 -8.70871L35.5672 -8.56813L30.2687 30.0001Z" fill="#AFE384"/>
<path d="M30.2687 30.0001L35.3299 -8.59625L36.512 -8.42652L30.2687 30.0001Z" fill="#B0E384"/>
<path d="M30.2687 30.0001L36.2758 -8.46033L37.4533 -8.26171L30.2687 30.0001Z" fill="#B0E484"/>
<path d="M30.2687 30.0001L37.2178 -8.30142L38.3901 -8.07366L30.2687 30.0001Z" fill="#B1E484"/>
<path d="M30.2687 30.0001L38.1554 -8.11932L39.3221 -7.86292L30.2687 30.0001Z" fill="#B1E485"/>
<path d="M30.2687 30.0001L39.0887 -7.91425L40.2484 -7.62947L30.2687 30.0001Z" fill="#B2E485"/>
<path d="M30.2687 30.0001L40.0165 -7.68649L41.169 -7.37309L30.2687 30.0001Z" fill="#B2E585"/>
<path d="M30.2687 30.0001L40.9384 -7.43576L42.0829 -7.0945L30.2687 30.0001Z" fill="#B3E585"/>
<path d="M30.2687 30.0001L41.8539 -7.1626L42.9896 -6.79322L30.2687 30.0001Z" fill="#B3E585"/>
<path d="M30.2687 30.0001L42.7623 -6.86725L43.8888 -6.47001L30.2687 30.0001Z" fill="#B4E586"/>
<path d="M30.2687 30.0001L43.6634 -6.54944L44.7798 -6.12486L30.2687 30.0001Z" fill="#B4E586"/>
<path d="M30.2687 30.0001L44.5564 -6.20975L45.6619 -5.75782L30.2687 30.0001Z" fill="#B5E686"/>
<path d="M30.2687 30.0001L45.4406 -5.84808L46.5348 -5.36933L30.2687 30.0001Z" fill="#B5E686"/>
<path d="M30.2687 30.0001L46.3158 -5.46503L47.3979 -4.95945L30.2687 30.0001Z" fill="#B6E686"/>
<path d="M30.2687 30.0001L47.1815 -5.06058L48.2507 -4.52843L30.2687 30.0001Z" fill="#B6E687"/>
<path d="M30.2687 30.0001L48.0369 -4.63498L49.0926 -4.07678L30.2687 30.0001Z" fill="#B7E787"/>
<path d="M30.2687 30.0001L48.8814 -4.18845L49.9232 -3.60471L30.2687 30.0001Z" fill="#B7E787"/>
<path d="M30.2687 30.0001L49.7148 -3.72131L50.7419 -3.11204L30.2687 30.0001Z" fill="#B8E787"/>
<path d="M30.2687 30.0001L50.5366 -3.23404L51.5485 -2.59975L30.2687 30.0001Z" fill="#B8E787"/>
<path d="M30.2687 30.0001L51.3461 -2.72668L52.342 -2.06763L30.2687 30.0001Z" fill="#B9E888"/>
<path d="M30.2687 30.0001L52.1429 -2.19943L53.1223 -1.51639L30.2687 30.0001Z" fill="#B9E888"/>
<path d="M30.2687 30.0001L52.9265 -1.65283L53.8889 -0.945799L30.2687 30.0001Z" fill="#BAE888"/>
<path d="M30.2687 30.0001L53.6965 -1.08743L54.4523 -0.502925L30.2687 30.0001Z" fill="#39AE56"/>
</g>
<path d="M30.2687 13.1735C39.5617 13.1735 47.0951 20.7071 47.0951 30.0001C47.0951 39.2932 39.5617 46.8273 30.2687 46.8273C20.9756 46.8273 13.442 39.2953 13.442 30.0009C13.442 20.7066 20.9756 13.1735 30.2687 13.1735Z" fill="white" fill-opacity="0.43"/>
<path d="M30.2687 22.8207C34.2336 22.8207 37.4479 26.035 37.4479 30.0001C37.4479 33.9653 34.2336 37.1801 30.2687 37.1801C26.3038 37.1801 23.0892 33.9658 23.0892 30.0009C23.0892 26.036 26.3035 22.8207 30.2687 22.8207Z" fill="white" fill-opacity="0.43"/>
<path d="M27.6645 5.758C23.0567 6.68061 18.7954 8.86361 15.3545 12.0641C11.9137 15.2646 9.42835 19.357 8.17507 23.886C6.92179 28.415 6.94973 33.2029 8.25577 37.7169C9.56181 42.231 12.0947 46.2941 15.5727 49.4542C11.6715 46.5091 8.74573 42.4591 7.17527 37.8302C5.60481 33.2012 5.46216 28.207 6.76585 23.496C9.43354 13.8557 17.7191 6.82332 27.6645 5.758Z" fill="black" fill-opacity="0.6"/>
<path d="M54.535 27.636C55.0888 30.65 55.0175 33.7457 54.3256 36.731C53.6336 39.7163 52.3357 42.5276 50.5124 44.9905C48.689 47.4535 46.3791 49.5156 43.7259 51.049C41.0727 52.5824 38.1327 53.5544 35.0884 53.9046C47.3494 51.4337 55.7512 40.0843 54.535 27.636Z" fill="white" fill-opacity="0.6"/>
<path d="M40.5698 16.2291C40.6489 16.2883 40.7012 16.3766 40.7152 16.4744C40.7292 16.5721 40.7037 16.6715 40.6445 16.7505C40.5853 16.8296 40.497 16.8819 40.3992 16.8959C40.3015 16.9099 40.2021 16.8845 40.1231 16.8252C37.2816 14.6997 33.8293 13.5495 30.2809 13.5461C26.7324 13.5428 23.2779 14.6864 20.4325 16.8066C17.5871 18.9267 15.5031 21.9097 14.4914 25.3109C13.4796 28.7121 13.5943 32.3491 14.8183 35.6798C16.0423 39.0105 18.31 41.8563 21.2834 43.793C24.2567 45.7297 27.7764 46.6534 31.3176 46.4265C34.8588 46.1996 38.2318 44.8342 40.9337 42.5339C43.6355 40.2336 45.5215 37.1216 46.3104 33.6619C46.3212 33.6142 46.3412 33.569 46.3694 33.529C46.3976 33.489 46.4334 33.4549 46.4748 33.4287C46.5161 33.4025 46.5623 33.3848 46.6105 33.3764C46.6587 33.368 46.7081 33.3693 46.7559 33.38C46.8037 33.3907 46.8489 33.4108 46.8889 33.439C46.9289 33.4672 46.963 33.503 46.9891 33.5444C47.0153 33.5857 47.0331 33.6318 47.0415 33.6801C47.0498 33.7283 47.0486 33.7777 47.0378 33.8255C46.2138 37.4421 44.2428 40.6955 41.4188 43.1005C38.5948 45.5055 35.069 46.9333 31.3673 47.1709C27.6656 47.4086 23.9862 46.4433 20.8779 44.4192C17.7695 42.395 15.3987 39.4203 14.119 35.9388C12.8392 32.4572 12.7191 28.6552 13.7765 25.0998C14.834 21.5444 17.0123 18.426 19.9867 16.2097C22.9611 13.9933 26.5721 12.7978 30.2815 12.8013C33.9908 12.8048 37.5996 14.0072 40.5698 16.2291Z" fill="white"/>
<path d="M33.9053 23.3833C33.9493 23.4063 33.9883 23.4378 34.0199 23.4761C34.0516 23.5144 34.0753 23.5586 34.0896 23.6061C34.104 23.6536 34.1087 23.7035 34.1035 23.7529C34.0983 23.8023 34.0834 23.8502 34.0595 23.8937C34.0355 23.9372 34.0032 23.9755 33.9643 24.0064C33.9254 24.0373 33.8807 24.0601 33.8329 24.0734C33.7851 24.0868 33.7351 24.0905 33.6858 24.0843C33.6365 24.0782 33.589 24.0622 33.546 24.0374C32.2986 23.3522 30.8678 23.0753 29.4548 23.2455C28.0418 23.4157 26.7177 24.0245 25.6687 24.9863C24.6197 25.9481 23.8985 27.2146 23.6066 28.6075C23.3147 30.0004 23.4668 31.4498 24.0414 32.7519C24.616 34.0539 25.5842 35.1431 26.81 35.8663C28.0358 36.5895 29.4574 36.9103 30.8749 36.7835C32.2925 36.6568 33.6347 36.089 34.7127 35.1599C35.7908 34.2308 36.5505 32.9871 36.8851 31.6038C36.8963 31.5558 36.9168 31.5106 36.9455 31.4707C36.9743 31.4307 37.0106 31.3969 37.0525 31.371C37.0944 31.3452 37.141 31.3279 37.1896 31.3202C37.2382 31.3125 37.2879 31.3145 37.3357 31.326C37.3835 31.3376 37.4286 31.3585 37.4683 31.3876C37.508 31.4167 37.5416 31.4533 37.567 31.4954C37.5925 31.5375 37.6094 31.5842 37.6167 31.6329C37.624 31.6816 37.6216 31.7312 37.6097 31.7789C37.2384 33.3139 36.3953 34.6939 35.199 35.7248C34.0027 36.7558 32.5133 37.3858 30.9403 37.5264C29.3673 37.6669 27.7898 37.3108 26.4297 36.5083C25.0696 35.7057 23.9952 34.497 23.3577 33.0522C22.7202 31.6073 22.5516 29.999 22.8757 28.4533C23.1997 26.9077 24.0001 25.5025 25.1642 24.4353C26.3283 23.3682 27.7977 22.6927 29.3656 22.504C30.9335 22.3153 32.5212 22.6228 33.9053 23.3833Z" fill="white"/>
<path d="M47.7684 19.2641L51.0915 22.0435C51.2545 22.1798 51.3891 22.3469 51.4876 22.5353C51.586 22.7236 51.6464 22.9295 51.6653 23.1412C51.6842 23.3529 51.6612 23.5663 51.5976 23.7691C51.534 23.9719 51.4311 24.1602 51.2948 24.3232L45.3563 31.4242C45.0809 31.7535 44.686 31.9599 44.2584 31.9981C43.8308 32.0362 43.4056 31.9029 43.0763 31.6275L39.7532 28.8484C39.5901 28.712 39.4555 28.5449 39.3571 28.3566C39.2586 28.1682 39.1982 27.9623 39.1794 27.7506C39.1605 27.5389 39.1835 27.3256 39.2471 27.1228C39.3107 26.92 39.4136 26.7317 39.5499 26.5686L45.4884 19.4676C45.7637 19.1383 46.1586 18.9318 46.5862 18.8937C47.0138 18.8555 47.439 18.9887 47.7684 19.2641Z" fill="#011D41"/>
<path d="M47.2811 19.7023L50.7466 22.6006C51.1129 22.9068 51.1403 23.4777 50.8075 23.8754L44.8293 31.0236C44.4968 31.4214 43.9301 31.4957 43.5638 31.1892L40.0983 28.2912C39.732 27.9848 39.7047 27.4142 40.0374 27.0162L46.0156 19.8679C46.3479 19.4702 46.9153 19.3962 47.2811 19.7023Z" fill="white"/>
<path d="M47.1108 20.3655L47.7884 20.933L47.7441 20.9846C47.6664 21.0781 47.6288 21.1985 47.6396 21.3195C47.6504 21.4406 47.7086 21.5525 47.8016 21.6308L48.756 22.4291C48.8495 22.5068 48.9699 22.5444 49.091 22.5335C49.2121 22.5227 49.324 22.4644 49.4022 22.3713L49.4463 22.3197L50.1239 22.8872C50.2347 22.9804 50.304 23.1136 50.3169 23.2578C50.3297 23.402 50.285 23.5454 50.1925 23.6567L44.503 30.4595C44.4098 30.5703 44.2766 30.6396 44.1325 30.6525C43.9884 30.6653 43.845 30.6206 43.7338 30.5281L40.7204 28.0082C40.6097 27.9151 40.5403 27.7818 40.5274 27.6377C40.5146 27.4935 40.5593 27.3501 40.6518 27.2388L46.3416 20.4341C46.4347 20.3233 46.5679 20.2539 46.7121 20.2411C46.8562 20.2282 46.9996 20.273 47.1108 20.3655Z" fill="#011D41"/>
<path d="M43.4031 27.8604C43.504 27.9449 43.5776 28.0573 43.6146 28.1836C43.6516 28.3098 43.6503 28.4442 43.6109 28.5697C43.5715 28.6952 43.4958 28.8063 43.3934 28.8888C43.2909 28.9713 43.1663 29.0216 43.0352 29.0332C42.9042 29.0449 42.7726 29.0175 42.6572 28.9544C42.5418 28.8913 42.4476 28.7954 42.3866 28.6789C42.3257 28.5623 42.3007 28.4302 42.3147 28.2994C42.3288 28.1686 42.3813 28.045 42.4657 27.944C42.5789 27.8086 42.7413 27.7238 42.9171 27.7081C43.0929 27.6924 43.2677 27.7472 43.4031 27.8604Z" fill="white"/>
</g>
<defs>
<linearGradient id="paint0_linear_214_220" x1="44.8627" y1="53.5367" x2="13.3847" y2="3.06607" gradientUnits="userSpaceOnUse">
<stop stop-color="#BBE888"/>
<stop offset="1" stop-color="#38AD55"/>
</linearGradient>
<clipPath id="clip0_214_220">
<rect width="59" height="59" fill="white" transform="translate(0.768555 0.5)"/>
</clipPath>
</defs>
</svg>
