<svg width="28" height="35" viewBox="0 0 28 35" fill="none" xmlns="http://www.w3.org/2000/svg">
<path d="M23.3815 18.3919C23.343 14.1074 26.8906 12.023 27.0528 11.9259C25.0436 8.9974 21.9295 8.59727 20.8352 8.56537C18.2196 8.29019 15.6826 10.13 14.3502 10.13C12.9913 10.13 10.9396 8.59195 8.7283 8.63715C5.88276 8.68102 3.22071 10.3281 1.76071 12.8857C-1.25237 18.1007 0.994808 25.7644 3.88157 29.9797C5.32562 32.0455 7.013 34.3493 9.22162 34.2682C11.3824 34.1804 12.1895 32.8923 14.797 32.8923C17.3806 32.8923 18.1385 34.2682 20.391 34.2163C22.71 34.1804 24.17 32.1426 25.5635 30.0595C27.2323 27.6946 27.9025 25.3629 27.9291 25.2433C27.8759 25.2247 23.4267 23.5258 23.3815 18.3919ZM19.1265 5.79236C20.2887 4.33939 21.0838 2.36266 20.8631 0.356689C19.181 0.431133 17.0774 1.51986 15.8661 2.94093C14.7944 4.19317 13.837 6.24567 14.0843 8.17587C15.9738 8.31678 17.9138 7.22273 19.1265 5.79236Z" fill="white"/>
</svg>
