<svg width="264" height="137" viewBox="0 0 264 137" fill="none" xmlns="http://www.w3.org/2000/svg">
<g filter="url(#filter0_d_214_846)">
<rect x="43.292" y="41.4214" width="177.5" height="50.5" rx="5.25" stroke="#989898" stroke-width="1.5" shape-rendering="crispEdges"/>
</g>
<path d="M96.702 59.6714V55.9634C96.702 54.7514 96.678 53.8634 96.618 53.4434L99.138 59.6714H100.242L102.774 53.4194C102.714 54.0314 102.702 54.6194 102.702 56.2394V59.6714H103.854V50.9954H102.678L99.69 58.2914L96.702 50.9954H95.55V59.6714H96.702ZM107.098 59.8154C108.046 59.8154 108.85 59.3954 109.15 58.7234L109.27 59.6714H110.23V55.9874C110.23 54.4034 109.246 53.6354 107.794 53.6354C106.282 53.6354 105.274 54.4394 105.274 55.6634H106.258C106.258 54.9554 106.798 54.5354 107.746 54.5354C108.538 54.5354 109.126 54.8834 109.126 55.8674V56.0354L107.278 56.1794C105.898 56.2874 105.094 56.9594 105.094 58.0394C105.094 59.1074 105.838 59.8154 107.098 59.8154ZM107.422 58.9394C106.69 58.9394 106.234 58.6274 106.234 58.0034C106.234 57.4274 106.642 57.0434 107.638 56.9474L109.138 56.8274V57.1394C109.138 58.2434 108.49 58.9394 107.422 58.9394ZM112.62 59.6714V56.5634C112.62 55.4234 113.232 54.6674 114.288 54.6674C115.152 54.6674 115.704 55.1474 115.704 56.3354V59.6714H116.832V56.0834C116.832 54.5834 116.124 53.6354 114.576 53.6354C113.748 53.6354 113.004 54.0314 112.632 54.7034L112.512 53.8034H111.492V59.6714H112.62ZM119.811 59.8154C120.759 59.8154 121.563 59.3954 121.863 58.7234L121.983 59.6714H122.943V55.9874C122.943 54.4034 121.959 53.6354 120.507 53.6354C118.995 53.6354 117.987 54.4394 117.987 55.6634H118.971C118.971 54.9554 119.511 54.5354 120.459 54.5354C121.251 54.5354 121.839 54.8834 121.839 55.8674V56.0354L119.991 56.1794C118.611 56.2874 117.807 56.9594 117.807 58.0394C117.807 59.1074 118.551 59.8154 119.811 59.8154ZM120.135 58.9394C119.403 58.9394 118.947 58.6274 118.947 58.0034C118.947 57.4274 119.355 57.0434 120.351 56.9474L121.851 56.8274V57.1394C121.851 58.2434 121.203 58.9394 120.135 58.9394ZM123.833 56.5874C123.833 58.2314 124.889 59.5154 126.557 59.5154C127.481 59.5154 128.249 59.1074 128.633 58.4234V59.5994C128.633 60.7154 127.913 61.4354 126.809 61.4354C125.825 61.4354 125.177 60.9314 125.033 60.0674H123.905C124.121 61.5554 125.213 62.4554 126.809 62.4554C128.609 62.4554 129.749 61.2794 129.749 59.4314V53.8034H128.741L128.657 54.7994C128.285 54.0674 127.553 53.6354 126.605 53.6354C124.901 53.6354 123.833 54.9314 123.833 56.5874ZM124.961 56.5634C124.961 55.4834 125.633 54.6194 126.761 54.6194C127.913 54.6194 128.585 55.4354 128.585 56.5634C128.585 57.7154 127.889 58.5314 126.749 58.5314C125.645 58.5314 124.961 57.6674 124.961 56.5634ZM133.609 59.8154C135.061 59.8154 136.045 59.1074 136.333 57.8474H135.277C135.085 58.5194 134.509 58.8794 133.633 58.8794C132.517 58.8794 131.869 58.1954 131.785 56.9594L136.321 56.9474V56.5274C136.321 54.7874 135.229 53.6354 133.561 53.6354C131.857 53.6354 130.693 54.9074 130.693 56.7434C130.693 58.5674 131.881 59.8154 133.609 59.8154ZM133.561 54.5834C134.557 54.5834 135.193 55.2314 135.193 56.2034H131.809C131.953 55.1714 132.577 54.5834 133.561 54.5834ZM139.878 56.7314C139.878 58.5434 141.174 59.8154 142.938 59.8154C144.69 59.8154 145.986 58.5434 145.986 56.7314C145.986 54.9194 144.69 53.6474 142.938 53.6474C141.174 53.6474 139.878 54.9194 139.878 56.7314ZM141.018 56.7314C141.018 55.5074 141.798 54.6554 142.938 54.6554C144.066 54.6554 144.858 55.5074 144.858 56.7314C144.858 57.9554 144.066 58.8074 142.938 58.8074C141.798 58.8074 141.018 57.9554 141.018 56.7314ZM148.063 59.6714V56.5634C148.063 55.4234 148.675 54.6674 149.731 54.6674C150.595 54.6674 151.147 55.1474 151.147 56.3354V59.6714H152.275V56.0834C152.275 54.5834 151.567 53.6354 150.019 53.6354C149.191 53.6354 148.447 54.0314 148.075 54.7034L147.955 53.8034H146.935V59.6714H148.063ZM158.174 59.6714V54.7514H159.326V53.8034H158.174V51.9674H157.046V53.8034H155.894V54.7514H157.046V59.6714H158.174ZM161.166 59.6594V56.4674C161.166 55.4594 161.754 54.6674 162.846 54.6674C163.686 54.6674 164.25 55.1474 164.25 56.3354V59.6714H165.378V56.0834C165.378 54.5834 164.658 53.6354 163.158 53.6354C162.246 53.6354 161.538 54.0674 161.166 54.7034V50.8394H160.038V59.6594H161.166ZM169.173 59.8154C170.625 59.8154 171.609 59.1074 171.897 57.8474H170.841C170.649 58.5194 170.073 58.8794 169.197 58.8794C168.081 58.8794 167.433 58.1954 167.349 56.9594L171.885 56.9474V56.5274C171.885 54.7874 170.793 53.6354 169.125 53.6354C167.421 53.6354 166.257 54.9074 166.257 56.7434C166.257 58.5674 167.445 59.8154 169.173 59.8154ZM169.125 54.5834C170.121 54.5834 170.757 55.2314 170.757 56.2034H167.373C167.517 55.1714 168.141 54.5834 169.125 54.5834Z" fill="white"/>
<path d="M101.11 81.6714C105.774 81.6714 108.986 78.3934 108.986 73.6634C108.986 68.8674 105.708 65.5894 100.956 65.5894H95.324V81.6714H101.11ZM100.692 68.1854C104.014 68.1854 106.016 70.2534 106.016 73.6634C106.016 77.0074 104.058 79.0754 100.846 79.0754H98.14V68.1854H100.692ZM114.147 81.9574C115.841 81.9574 117.315 81.1874 117.777 80.0654L117.975 81.6714H120.329V75.0714C120.329 72.0574 118.525 70.4734 115.599 70.4734C112.651 70.4734 110.715 72.0134 110.715 74.3674H113.003C113.003 73.2234 113.883 72.5634 115.467 72.5634C116.831 72.5634 117.711 73.1574 117.711 74.6314V74.8734L114.455 75.1154C111.881 75.3134 110.429 76.5674 110.429 78.5694C110.429 80.6154 111.837 81.9574 114.147 81.9574ZM115.027 79.9334C113.817 79.9334 113.157 79.4494 113.157 78.4594C113.157 77.5794 113.795 77.0294 115.467 76.8754L117.733 76.6994V77.2714C117.733 78.9434 116.677 79.9334 115.027 79.9334ZM121.83 78.3714C121.83 80.5054 123.546 81.9574 126.252 81.9574C128.936 81.9574 130.806 80.5934 130.806 78.3934C130.806 76.7214 129.882 75.8854 128.056 75.4674L126.098 75.0054C125.174 74.7854 124.69 74.3894 124.69 73.7734C124.69 72.9594 125.306 72.4754 126.362 72.4754C127.396 72.4754 128.012 73.0694 128.034 73.9934H130.586C130.564 71.8814 128.914 70.4734 126.472 70.4734C123.964 70.4734 122.16 71.7494 122.16 73.8834C122.16 75.6214 123.106 76.5454 125.064 76.9854L127.022 77.4474C127.99 77.6674 128.276 78.0634 128.276 78.6134C128.276 79.4054 127.594 79.9114 126.34 79.9114C125.108 79.9114 124.404 79.3174 124.382 78.3714H121.83ZM135.233 81.6714V75.7314C135.233 74.1034 136.223 72.9154 137.917 72.9154C139.281 72.9154 140.183 73.7954 140.183 75.6214V81.6714H142.867V74.9834C142.867 72.1674 141.459 70.4734 138.775 70.4734C137.213 70.4734 135.937 71.1554 135.255 72.2114V65.3034H132.549V81.6714H135.233ZM147.691 81.6714L147.867 79.9774C148.505 81.2314 149.891 81.9574 151.519 81.9574C154.643 81.9574 156.689 79.6474 156.689 76.3034C156.689 72.8714 154.797 70.4514 151.695 70.4514C150.045 70.4514 148.593 71.1774 147.889 72.3874V65.3034H145.205V81.6714H147.691ZM147.911 76.1934C147.911 74.2354 149.121 72.8714 150.969 72.8714C152.861 72.8714 153.983 74.2574 153.983 76.1934C153.983 78.1294 152.861 79.4934 150.969 79.4934C149.121 79.4934 147.911 78.1514 147.911 76.1934ZM157.888 76.2154C157.888 79.6034 160.33 81.9354 163.696 81.9354C167.062 81.9354 169.504 79.6034 169.504 76.2154C169.504 72.8274 167.062 70.4954 163.696 70.4954C160.33 70.4954 157.888 72.8274 157.888 76.2154ZM160.572 76.2154C160.572 74.2354 161.848 72.8934 163.696 72.8934C165.544 72.8934 166.82 74.2354 166.82 76.2154C166.82 78.1954 165.544 79.5374 163.696 79.5374C161.848 79.5374 160.572 78.1954 160.572 76.2154ZM174.565 81.9574C176.259 81.9574 177.733 81.1874 178.195 80.0654L178.393 81.6714H180.747V75.0714C180.747 72.0574 178.943 70.4734 176.017 70.4734C173.069 70.4734 171.133 72.0134 171.133 74.3674H173.421C173.421 73.2234 174.301 72.5634 175.885 72.5634C177.249 72.5634 178.129 73.1574 178.129 74.6314V74.8734L174.873 75.1154C172.299 75.3134 170.847 76.5674 170.847 78.5694C170.847 80.6154 172.255 81.9574 174.565 81.9574ZM175.445 79.9334C174.235 79.9334 173.575 79.4494 173.575 78.4594C173.575 77.5794 174.213 77.0294 175.885 76.8754L178.151 76.6994V77.2714C178.151 78.9434 177.095 79.9334 175.445 79.9334ZM189.904 70.7594C189.464 70.6494 189.09 70.6054 188.716 70.6054C187.264 70.6054 186.23 71.3314 185.768 72.4094L185.614 70.8254H183.084V81.6714H185.768V76.3914C185.768 74.2794 186.978 73.2454 188.914 73.2454H189.904V70.7594ZM195.521 81.9574C197.171 81.9574 198.579 81.2314 199.239 79.9774L199.415 81.6714H201.879V65.3034H199.217V72.1894C198.535 71.1114 197.193 70.4734 195.675 70.4734C192.397 70.4734 190.417 72.8934 190.417 76.2814C190.417 79.6474 192.375 81.9574 195.521 81.9574ZM196.115 79.4934C194.245 79.4934 193.101 78.1294 193.101 76.1934C193.101 74.2574 194.245 72.8714 196.115 72.8714C197.985 72.8714 199.195 74.2354 199.195 76.1934C199.195 78.1514 197.985 79.4934 196.115 79.4934Z" fill="white"/>
<path d="M75.3134 83.0158V74.7789L83.0541 70.5116V78.6492L75.3134 83.0158Z" fill="#BB6A37"/>
<path fill-rule="evenodd" clip-rule="evenodd" d="M58.542 56.8166L71.0461 49.6714L83.0541 56.8166V67.8322L75.115 72.298H66.2826V83.0159L58.542 78.6493V56.8166ZM66.2828 61.3818L70.8478 58.7024L75.3136 61.3818V68.0309H66.2828V61.3818Z" fill="#BB6A37"/>
<defs>
<filter id="filter0_d_214_846" x="0.541962" y="0.671387" width="263" height="136" filterUnits="userSpaceOnUse" color-interpolation-filters="sRGB">
<feFlood flood-opacity="0" result="BackgroundImageFix"/>
<feColorMatrix in="SourceAlpha" type="matrix" values="0 0 0 0 0 0 0 0 0 0 0 0 0 0 0 0 0 0 127 0" result="hardAlpha"/>
<feOffset dy="2"/>
<feGaussianBlur stdDeviation="21"/>
<feComposite in2="hardAlpha" operator="out"/>
<feColorMatrix type="matrix" values="0 0 0 0 0.733333 0 0 0 0 0.415686 0 0 0 0 0.215686 0 0 0 0.08 0"/>
<feBlend mode="normal" in2="BackgroundImageFix" result="effect1_dropShadow_214_846"/>
<feBlend mode="normal" in="SourceGraphic" in2="effect1_dropShadow_214_846" result="shape"/>
</filter>
</defs>
</svg>
