<svg width="179" height="54" viewBox="0 0 179 54" fill="none" xmlns="http://www.w3.org/2000/svg">
<path d="M171.893 0.183594H6.61127C2.97511 0.183594 0 3.16347 0 6.80558V46.5372C0 50.1793 2.97505 53.1592 6.61127 53.1592H171.893C175.529 53.1592 178.504 50.1793 178.504 46.5373V6.80558C178.504 3.16347 175.529 0.183594 171.893 0.183594M171.893 1.24307C174.955 1.24307 177.446 3.7388 177.446 6.80558V46.5372C177.446 49.6046 174.955 52.1003 171.893 52.1003H6.61127C3.54949 52.1003 1.05781 49.6045 1.05781 46.5373V6.80558C1.05781 3.7388 3.54943 1.24313 6.61127 1.24313H171.893" fill="#A6A6A6"/>
<path d="M62.6994 13.7514C62.6994 14.861 62.3713 15.7446 61.7144 16.4037C60.968 17.1875 59.9954 17.5797 58.7997 17.5797C57.6546 17.5797 56.681 17.1824 55.8804 16.3866C55.0783 15.5915 54.678 14.6055 54.678 13.429C54.678 12.2521 55.0783 11.2666 55.8804 10.4708C56.681 9.67573 57.6546 9.27783 58.7997 9.27783C59.3678 9.27783 59.9118 9.38914 60.4283 9.61109C60.9447 9.83358 61.359 10.1289 61.6689 10.4988L60.9716 11.1977C60.4464 10.5691 59.7232 10.2551 58.7997 10.2551C57.9646 10.2551 57.2425 10.549 56.633 11.1372C56.0235 11.726 55.7188 12.4895 55.7188 13.429C55.7188 14.3686 56.0235 15.132 56.633 15.7209C57.2425 16.3091 57.9645 16.6029 58.7997 16.6029C59.6856 16.6029 60.4242 16.3075 61.0155 15.7157C61.3994 15.3302 61.6213 14.7943 61.6807 14.1062H58.7996V13.1517H62.6441C62.6812 13.3593 62.6993 13.5584 62.6993 13.7514" fill="white"/>
<path d="M62.6989 13.7514H62.5666C62.5656 14.8357 62.2494 15.6778 61.6202 16.3101L61.6189 16.3112L61.6183 16.3122C60.8957 17.069 59.9669 17.4456 58.799 17.4472C57.6846 17.4456 56.7517 17.0649 55.9727 16.293C55.1955 15.5196 54.8112 14.5754 54.8097 13.429C54.8112 12.2821 55.1955 11.3384 55.9727 10.5656C56.7517 9.79316 57.6846 9.41186 58.799 9.41026C59.3502 9.41026 59.875 9.51799 60.3755 9.73262C60.8765 9.94892 61.2722 10.2324 61.5671 10.5843L61.6683 10.4988L61.5749 10.4052L60.8775 11.1045L60.971 11.1977L61.0728 11.1129C60.5231 10.4532 59.7516 10.1207 58.7991 10.1227C57.933 10.1216 57.1711 10.4316 56.5409 11.0421C55.9046 11.6546 55.5849 12.4611 55.586 13.429C55.5849 14.397 55.9046 15.2035 56.5409 15.816C57.1711 16.4265 57.933 16.7364 58.799 16.7354C59.7143 16.737 60.4943 16.426 61.1084 15.8093C61.5185 15.3974 61.751 14.8269 61.812 14.1176L61.8243 13.9738H58.9313V13.2841H62.6435V13.1517L62.5133 13.175C62.5495 13.3758 62.5666 13.5666 62.5666 13.7514H62.831C62.831 13.5501 62.8124 13.3432 62.7736 13.128L62.7541 13.0193H58.6669V14.2386H61.6802V14.1062L61.5485 14.0948C61.4902 14.7612 61.2783 15.263 60.9215 15.6221C60.3533 16.1891 59.656 16.4689 58.7991 16.4705C57.995 16.4694 57.3127 16.1921 56.7244 15.6256C56.1418 15.0612 55.852 14.3406 55.8505 13.429C55.852 12.5174 56.1418 11.7968 56.7244 11.2324C57.3127 10.6659 57.9949 10.3886 58.7991 10.3875C59.6932 10.3897 60.3684 10.6856 60.8699 11.2831L60.9629 11.3938L61.7619 10.5925L61.8476 10.5066L61.7696 10.4139C61.4447 10.026 61.0119 9.7181 60.4799 9.48954C59.9469 9.26026 59.3844 9.14539 58.7991 9.14539C57.6236 9.14438 56.6092 9.55823 55.7864 10.3772C54.9605 11.1946 54.5442 12.2221 54.5454 13.429C54.5442 14.6354 54.9605 15.6634 55.7869 16.4813C56.6092 17.2998 57.6236 17.7132 58.7991 17.7121C60.0233 17.7132 61.0388 17.3059 61.8094 16.4953L61.7137 16.4037L61.8073 16.4974C62.4922 15.8119 62.832 14.8859 62.8311 13.7514H62.6988M68.7935 10.4321H65.1806V12.9516H68.4388V13.9064H65.1806V16.426H68.7935V17.4022H64.162V9.45585H68.7935V10.4321Z" fill="white"/>
<path d="M68.7938 10.4319V10.2995H65.0486V13.0839H68.3068V13.7735L65.0486 13.7738V16.5582H68.6615V17.2696H64.2945V9.58811H68.6615V10.4319H68.7938V10.2995V10.4319H68.926V9.32324H64.0301V17.5344H68.926V16.2934H65.313V14.0387H68.5712V12.819H65.313V10.5643H68.926V10.4319H68.7938ZM73.0926 17.4021H72.0725V10.4318H69.8567V9.45562H75.3085V10.4318H73.0926V17.402" fill="white"/>
<path d="M73.0929 17.4021V17.2696H72.205V10.2995H69.9892V9.58817H75.1765V10.2995H72.9607V17.402H73.0929V17.2696V17.402H73.2252V10.5643H75.441V9.32324H69.7248V10.5643H71.9406V17.5344H73.2252V17.4019H73.0929M79.2533 17.4021V9.45562H80.2724V17.4019H79.2533" fill="white"/>
<path d="M79.253 17.4021H79.3852V9.58811H80.1398V17.2696H79.253V17.402H79.3852H79.253V17.5344H80.4042V9.32324H79.1208V17.5344H79.253V17.402M84.794 17.4021H83.7739V10.4318H81.5582V9.45562H87.0099V10.4318H84.794V17.402" fill="white"/>
<path d="M84.7943 17.4023V17.2698H83.9065V10.2996H81.6908V9.58835H86.8779V10.2996H84.6621V17.4022H84.7943V17.2698V17.4022H84.9266V10.5645H87.1424V9.32342H81.4263V10.5644H83.642V17.5346H84.9266V17.4021H84.7943M92.2662 15.7101C92.8534 16.3054 93.5719 16.6029 94.4216 16.6029C95.2712 16.6029 95.9901 16.3054 96.5764 15.7101C97.1642 15.1146 97.4586 14.3535 97.4586 13.429C97.4586 12.5047 97.1642 11.7435 96.5764 11.148C95.9901 10.5526 95.2712 10.2551 94.4216 10.2551C93.5719 10.2551 92.8534 10.5526 92.2662 11.148C91.6799 11.7435 91.3856 12.5046 91.3856 13.429C91.3856 14.3535 91.6799 15.1146 92.2662 15.7101ZM97.3305 16.3753C96.5505 17.1786 95.5806 17.5797 94.4216 17.5797C93.2614 17.5797 92.2919 17.1786 91.5136 16.3753C90.7331 15.5728 90.3448 14.5905 90.3448 13.429C90.3448 12.2675 90.7331 11.2851 91.5136 10.4828C92.2919 9.67924 93.2614 9.27783 94.4216 9.27783C95.5744 9.27783 96.5418 9.68139 97.3254 10.488C98.1078 11.2945 98.4994 12.2748 98.4994 13.429C98.4994 14.5905 98.1088 15.5728 97.3305 16.3753Z" fill="white"/>
<path d="M92.2658 15.7101L92.1718 15.8031C92.7808 16.4224 93.5406 16.737 94.4212 16.7354C95.3013 16.737 96.0621 16.4224 96.6701 15.8031C97.2831 15.1833 97.5914 14.3814 97.5905 13.429C97.5914 12.4767 97.2831 11.6747 96.6701 11.0549C96.0621 10.4356 95.3013 10.1211 94.4212 10.1227C93.5406 10.1211 92.7808 10.4356 92.1718 11.0549C91.5603 11.6747 91.2513 12.4767 91.2529 13.429C91.2513 14.3814 91.5603 15.1833 92.1718 15.8031L92.2658 15.7101L92.3599 15.6169C91.7989 15.0452 91.5185 14.3261 91.5174 13.429C91.5185 12.532 91.7989 11.8129 92.3598 11.2411C92.9259 10.6696 93.602 10.3891 94.4212 10.3876C95.2398 10.3891 95.9175 10.6696 96.4821 11.2411C97.044 11.8129 97.3245 12.532 97.3255 13.429C97.3245 14.326 97.044 15.0452 96.4821 15.6169C95.9175 16.1885 95.2399 16.4689 94.4212 16.4704C93.602 16.4689 92.9259 16.1885 92.3598 15.6169L92.2658 15.7101ZM97.3301 16.3753L97.2356 16.2832C96.4774 17.0613 95.5503 17.4457 94.4212 17.4472C93.2916 17.4456 92.3644 17.0613 91.6077 16.2832L91.6041 16.2791L91.6077 16.2832C90.8511 15.5025 90.4777 14.561 90.4767 13.429C90.4777 12.297 90.8511 11.3555 91.6077 10.5749C92.3644 9.79673 93.2916 9.41187 94.4212 9.41032C95.543 9.41187 96.468 9.79834 97.2304 10.5805C97.9897 11.3648 98.3652 12.3048 98.3668 13.429C98.3652 14.561 97.9908 15.5025 97.2356 16.2832L97.3301 16.3753L97.4252 16.4673C98.2268 15.6427 98.6322 14.6199 98.6313 13.429C98.6322 12.2449 98.2252 11.2242 97.4199 10.3959C96.6143 9.56442 95.605 9.14396 94.4212 9.14539C93.2312 9.14396 92.2189 9.56246 91.4182 10.3908V10.3902C90.6151 11.2153 90.2111 12.2381 90.2122 13.429C90.2111 14.6199 90.6151 15.6427 91.4182 16.4678L91.4218 16.4716L91.4182 16.4673C92.2189 17.2956 93.2312 17.7132 94.4212 17.7121C95.6107 17.7132 96.623 17.2956 97.4252 16.4673L97.3301 16.3753ZM99.9297 17.4022V9.45579H101.17L105.026 15.6375H105.07L105.026 14.1061V9.45579H106.046V17.4021H104.982L100.948 10.9208H100.904L100.948 12.4527V17.4021H99.9297" fill="white"/>
<path d="M99.9297 17.4021H100.062V9.58811H101.097L104.953 15.7698H105.206L105.158 14.1041V9.58817H105.914V17.2696H105.056L101.022 10.7883H100.769L100.816 12.4548V17.2696H99.9297V17.402H100.062H99.9297V17.5344H101.08V12.4505L101.037 10.9172L100.904 10.9207V11.0532H100.948V10.9207L100.836 10.9911L104.909 17.5344H106.178V9.32324H104.894V14.1076L104.938 15.6409L105.07 15.6374V15.5049H105.026V15.6374L105.138 15.5671L101.244 9.32324H99.7975V17.5344H99.9298V17.402M141.396 39.9166H143.864V23.3602H141.396L141.396 39.9166ZM163.619 29.3242L160.791 36.5023H160.707L157.771 29.3242H155.113L159.515 39.3568L157.006 44.9374H159.58L166.363 29.3242L163.619 29.3242ZM149.627 38.0362C148.818 38.0362 147.692 37.6316 147.692 36.6301C147.692 35.3521 149.096 34.8623 150.307 34.8623C151.393 34.8623 151.902 35.0965 152.561 35.4164C152.37 36.9497 151.051 38.0362 149.627 38.0362ZM149.925 28.962C148.138 28.962 146.289 29.7503 145.523 31.497L147.713 32.4127C148.181 31.497 149.052 31.1984 149.967 31.1984C151.243 31.1984 152.54 31.9657 152.561 33.3289V33.4991C152.115 33.2435 151.159 32.8602 149.988 32.8602C147.628 32.8602 145.224 34.1591 145.224 36.5876C145.224 38.8029 147.16 40.2301 149.329 40.2301C150.988 40.2301 151.902 39.4846 152.477 38.6115H152.561V39.8893H154.943V33.5414C154.943 30.6025 152.753 28.962 149.925 28.962ZM134.677 31.3396H131.167V25.6645H134.677C136.521 25.6645 137.568 27.1942 137.568 28.502C137.568 29.785 136.521 31.3396 134.677 31.3396ZM134.613 23.3602H128.701V39.9166H131.167V33.6439H134.613C137.348 33.6439 140.036 31.6609 140.036 28.502C140.036 25.3432 137.348 23.3602 134.613 23.3602ZM102.375 38.0392C100.671 38.0392 99.2437 36.6098 99.2437 34.6465C99.2437 32.6626 100.671 31.2114 102.375 31.2114C104.058 31.2114 105.379 32.6625 105.379 34.6465C105.379 36.6098 104.058 38.0392 102.375 38.0392H102.375ZM105.208 30.2513H105.123C104.569 29.59 103.504 28.9926 102.162 28.9926C99.3502 28.9926 96.7728 31.4675 96.7728 34.6465C96.7728 37.8044 99.3501 40.2581 102.162 40.2581C103.504 40.2581 104.569 39.6605 105.123 38.9782H105.208V39.7888C105.208 41.9442 104.058 43.0963 102.205 43.0963C100.692 43.0963 99.7552 42.0077 99.3713 41.0905L97.2202 41.9865C97.8379 43.4801 99.4783 45.3152 102.205 45.3152C105.102 45.3152 107.552 43.6078 107.552 39.4474V29.334H105.208V30.2513ZM109.256 39.9166H111.727V23.3596H109.256V39.9166ZM115.37 34.4546C115.306 32.2781 117.052 31.1689 118.309 31.1689C119.29 31.1689 120.12 31.6594 120.396 32.3641L115.37 34.4546ZM123.038 32.5771C122.57 31.3179 121.142 28.9926 118.224 28.9926C115.327 28.9926 112.92 31.2755 112.92 34.6253C112.92 37.7832 115.306 40.2581 118.501 40.2581C121.079 40.2581 122.57 38.6791 123.188 37.7618L121.27 36.4814C120.632 37.4204 119.758 38.0392 118.501 38.0392C117.244 38.0392 116.349 37.4629 115.774 36.3324L123.293 33.2171L123.038 32.5771ZM63.1293 30.7209V33.1105H68.8381C68.6677 34.4546 68.2203 35.436 67.5386 36.1188C66.7081 36.9512 65.4086 37.8685 63.1292 37.8685C59.6143 37.8685 56.8666 35.0308 56.8666 31.5103C56.8666 27.9899 59.6143 25.1519 63.1293 25.1519C65.0253 25.1519 66.4095 25.8988 67.4322 26.8589L69.115 25.1735C67.6879 23.8077 65.7918 22.7623 63.1293 22.7623C58.3149 22.7623 54.2675 26.6883 54.2675 31.5103C54.2675 36.3324 58.3149 40.2581 63.1293 40.2581C65.7283 40.2581 67.6879 39.4051 69.2214 37.8044C70.7978 36.2254 71.288 34.0066 71.288 32.2145C71.288 31.6594 71.2456 31.1477 71.1598 30.7209H63.1293ZM77.7784 38.0392C76.0739 38.0392 74.6039 36.6309 74.6039 34.6253C74.6039 32.5983 76.0739 31.2114 77.7784 31.2114C79.4822 31.2114 80.9522 32.5983 80.9522 34.6253C80.9522 36.631 79.4822 38.0392 77.7784 38.0392ZM77.7784 28.9926C74.6679 28.9926 72.1329 31.3608 72.1329 34.6253C72.1329 37.8685 74.6679 40.2581 77.7784 40.2581C80.8882 40.2581 83.4232 37.8685 83.4232 34.6253C83.4232 31.3608 80.8882 28.9926 77.7784 28.9926ZM90.0928 38.0392C88.389 38.0392 86.9188 36.6309 86.9188 34.6253C86.9188 32.5983 88.389 31.2114 90.0928 31.2114C91.7968 31.2114 93.2667 32.5983 93.2667 34.6253C93.2667 36.631 91.7968 38.0392 90.0928 38.0392H90.0928ZM90.0928 28.9926C86.9825 28.9926 84.448 31.3608 84.448 34.6253C84.448 37.8685 86.9825 40.2581 90.0928 40.2581C93.2027 40.2581 95.7378 37.8685 95.7378 34.6253C95.7378 31.3608 93.2027 28.9926 90.0928 28.9926H90.0928Z" fill="white"/>
<path d="M13.8947 10.2626C13.451 10.6636 13.1861 11.3324 13.1861 12.2202V12.0195V41.3165V41.1235C13.1861 41.9434 13.4133 42.5766 13.798 42.9844L13.8962 43.0785V43.079C14.2077 43.3604 14.607 43.5099 15.0646 43.5094C15.5118 43.5094 16.015 43.3666 16.546 43.0651L35.7387 32.1425L42.3313 28.3902C43.1686 27.9138 43.6386 27.2992 43.7172 26.6731V26.6705C43.6386 26.0431 43.1686 25.4289 42.3314 24.9525L35.7382 21.2007L16.546 10.278C16.0139 9.97597 15.5104 9.83264 15.062 9.83264C14.6049 9.83264 14.2061 9.98162 13.8948 10.2626H13.8947Z" fill="#00C1FF"/>
<path d="M13.8963 43.0789L13.798 42.9847C13.4133 42.577 13.1861 41.9437 13.1861 41.1238V41.3168V12.0271V12.2205C13.1861 11.3327 13.451 10.6639 13.8947 10.2629L30.2772 26.6714L13.8963 43.0789Z" fill="url(#paint0_linear_214_817)"/>
<path d="M35.739 32.1427L30.2775 26.6714L35.7385 21.201L42.3317 24.9527C43.1689 25.4292 43.6389 26.0433 43.7175 26.6709V26.6734C43.6389 27.2994 43.1689 27.9141 42.3317 28.3904L35.7391 32.1426" fill="url(#paint1_linear_214_817)"/>
<path d="M15.0654 43.5099C14.6078 43.5103 14.2085 43.3608 13.8971 43.0794V43.079L30.278 26.6715L35.7395 32.1428L16.5467 43.0655C16.0157 43.3671 15.5126 43.5099 15.0654 43.5099Z" fill="url(#paint2_linear_214_817)"/>
<path d="M30.2772 26.673L13.8947 10.2644C14.2061 9.98349 14.6049 9.83451 15.0619 9.83451C15.5103 9.83451 16.0138 9.97777 16.5459 10.2799L35.7382 21.2025L30.2771 26.673" fill="url(#paint3_linear_214_817)"/>
<path d="M15.0652 43.7063C14.6076 43.7063 14.2077 43.5568 13.8963 43.2754L13.8958 43.2758C13.8945 43.2746 13.8931 43.2734 13.8917 43.2723L13.8065 43.1889C13.8038 43.1863 13.8013 43.1833 13.7982 43.1802L13.8964 43.0819C14.2078 43.3633 14.6071 43.5128 15.0648 43.5123C15.5119 43.5123 16.015 43.3695 16.546 43.0679L35.7388 32.1453L35.8617 32.2685L35.7372 32.3393L16.546 43.2614C16.062 43.5361 15.6018 43.6794 15.186 43.7033C15.1458 43.7052 15.1055 43.7062 15.0652 43.7062" fill="url(#paint4_linear_214_817)"/>
<path d="M13.798 43.1802C13.4133 42.7725 13.1861 42.1397 13.1861 41.3193V41.1263C13.1861 41.9462 13.4133 42.5794 13.798 42.9872L13.8962 43.0814L13.798 43.1802Z" fill="url(#paint5_linear_214_817)"/>
<path d="M35.8617 32.2663L35.7387 32.1431L42.3313 28.3909C43.1686 27.9145 43.6386 27.2998 43.7172 26.6738C43.7172 26.9035 43.666 27.1332 43.5643 27.3568C43.3592 27.8074 42.9482 28.2331 42.3313 28.5844L35.8617 32.2664" fill="url(#paint6_linear_214_817)"/>
<path d="M43.7173 26.6729C43.6387 26.0453 43.1687 25.4312 42.3315 24.9547L35.7383 21.203L35.8613 21.0798H35.8618L42.3315 24.7617C43.2545 25.2874 43.7168 25.98 43.7173 26.6729Z" fill="url(#paint7_linear_214_817)"/>
<path d="M13.1861 12.2206V12.0182C13.1861 11.9452 13.1881 11.8739 13.1918 11.8046V11.8014C13.1918 11.8005 13.1918 11.7995 13.1922 11.7984V11.7906C13.232 11.0844 13.451 10.5335 13.798 10.1657L13.8947 10.2629C13.451 10.6639 13.1861 11.3328 13.1861 12.2206Z" fill="url(#paint8_linear_214_817)"/>
<path d="M35.7381 21.2008L16.5459 10.278C16.0138 9.97598 15.5103 9.83271 15.062 9.83271C14.6048 9.83271 14.2061 9.98169 13.8947 10.2626L13.798 10.1654C13.8282 10.1334 13.8596 10.1025 13.8921 10.0728C13.8931 10.0717 13.8947 10.0707 13.8957 10.0697C14.2046 9.79087 14.5992 9.64188 15.0522 9.63921H15.062C15.5103 9.63921 16.0138 9.78253 16.5459 10.0847L35.8616 21.0772L35.8611 21.0776L35.7381 21.2008Z" fill="url(#paint9_linear_214_817)"/>
<defs>
<linearGradient id="paint0_linear_214_817" x1="23.6555" y1="11.7175" x2="9.53748" y2="25.8583" gradientUnits="userSpaceOnUse">
<stop stop-color="#00A0FF"/>
<stop offset="0.00657" stop-color="#00A1FF"/>
<stop offset="0.2601" stop-color="#00BEFF"/>
<stop offset="0.5122" stop-color="#00D2FF"/>
<stop offset="0.7604" stop-color="#00DFFF"/>
<stop offset="1" stop-color="#00E3FF"/>
</linearGradient>
<linearGradient id="paint1_linear_214_817" x1="44.7376" y1="26.5768" x2="12.7431" y2="26.5768" gradientUnits="userSpaceOnUse">
<stop stop-color="#FFE000"/>
<stop offset="0.4087" stop-color="#FFBD00"/>
<stop offset="0.7754" stop-color="#FFA500"/>
<stop offset="1" stop-color="#FF9C00"/>
</linearGradient>
<linearGradient id="paint2_linear_214_817" x1="32.8399" y1="31.8734" x2="8.91589" y2="55.661" gradientUnits="userSpaceOnUse">
<stop stop-color="#FF3A44"/>
<stop offset="1" stop-color="#C31162"/>
</linearGradient>
<linearGradient id="paint3_linear_214_817" x1="9.67242" y1="7.83178" x2="20.3348" y2="18.4497" gradientUnits="userSpaceOnUse">
<stop stop-color="#32A071"/>
<stop offset="0.0685" stop-color="#2DA771"/>
<stop offset="0.4762" stop-color="#15CF74"/>
<stop offset="0.8009" stop-color="#06E775"/>
<stop offset="1" stop-color="#00F076"/>
</linearGradient>
<linearGradient id="paint4_linear_214_817" x1="32.8273" y1="35.6711" x2="13.6677" y2="54.8616" gradientUnits="userSpaceOnUse">
<stop stop-color="#CC2E36"/>
<stop offset="1" stop-color="#9C0E4E"/>
</linearGradient>
<linearGradient id="paint5_linear_214_817" x1="15.3685" y1="11.72" x2="2.93072" y2="24.178" gradientUnits="userSpaceOnUse">
<stop stop-color="#008DE0"/>
<stop offset="0.00657" stop-color="#008DE0"/>
<stop offset="0.2601" stop-color="#00A7E0"/>
<stop offset="0.5122" stop-color="#00B8E0"/>
<stop offset="0.7604" stop-color="#00C4E0"/>
<stop offset="1" stop-color="#00C7E0"/>
</linearGradient>
<linearGradient id="paint6_linear_214_817" x1="44.7373" y1="26.6726" x2="12.7427" y2="26.6726" gradientUnits="userSpaceOnUse">
<stop stop-color="#E0C500"/>
<stop offset="0.4087" stop-color="#E0A600"/>
<stop offset="0.7754" stop-color="#E09100"/>
<stop offset="1" stop-color="#E08900"/>
</linearGradient>
<linearGradient id="paint7_linear_214_817" x1="44.7374" y1="26.6742" x2="12.7429" y2="26.6742" gradientUnits="userSpaceOnUse">
<stop stop-color="#FFE840"/>
<stop offset="0.4087" stop-color="#FFCE40"/>
<stop offset="0.7754" stop-color="#FFBC40"/>
<stop offset="1" stop-color="#FFB540"/>
</linearGradient>
<linearGradient id="paint8_linear_214_817" x1="15.355" y1="11.7401" x2="3.37523" y2="23.2194" gradientUnits="userSpaceOnUse">
<stop stop-color="#40B8FF"/>
<stop offset="0.00657" stop-color="#40B9FF"/>
<stop offset="0.2601" stop-color="#40CEFF"/>
<stop offset="0.5122" stop-color="#40DDFF"/>
<stop offset="0.7604" stop-color="#40E7FF"/>
<stop offset="1" stop-color="#40EAFF"/>
</linearGradient>
<linearGradient id="paint9_linear_214_817" x1="9.64853" y1="11.3001" x2="18.2041" y2="19.8696" gradientUnits="userSpaceOnUse">
<stop stop-color="#65B895"/>
<stop offset="0.0685" stop-color="#62BD95"/>
<stop offset="0.4762" stop-color="#50DB97"/>
<stop offset="0.8009" stop-color="#44ED98"/>
<stop offset="1" stop-color="#40F498"/>
</linearGradient>
</defs>
</svg>
