<svg width="49" height="49" viewBox="0 0 49 49" fill="none" xmlns="http://www.w3.org/2000/svg">
<g clip-path="url(#clip0_214_539)">
<path d="M41.8213 41.8214C51.3876 32.2551 51.3876 16.7451 41.8213 7.17881C32.255 -2.38749 16.745 -2.38749 7.17868 7.17881C-2.38762 16.7451 -2.38762 32.2551 7.17868 41.8214C16.745 51.3877 32.255 51.3877 41.8213 41.8214Z" fill="#011D41"/>
<path d="M4.32974 36.1456C-2.10201 25.0058 1.71488 10.7614 12.8547 4.32983C23.9945 -2.1017 38.2396 1.71497 44.6705 12.8548C51.1013 23.9946 47.2853 38.2397 36.1455 44.6705C25.0057 51.1014 10.7613 47.2854 4.32974 36.1456Z" fill="url(#paint0_linear_214_539)"/>
<mask id="mask0_214_539" style="mask-type:luminance" maskUnits="userSpaceOnUse" x="4" y="4" width="41" height="41">
<path d="M24.5001 4.25269C35.6828 4.25269 44.7476 13.3177 44.7476 24.5002C44.7476 35.6826 35.6823 44.7476 24.5001 44.7476C13.3179 44.7476 4.25262 35.6826 4.25262 24.5002C4.25262 13.3177 13.3177 4.25269 24.5001 4.25269Z" fill="white"/>
</mask>
<g mask="url(#mask0_214_539)">
<path d="M24.5001 24.5002L44.431 -0.95813L45.3545 -0.207263L24.5001 24.5002Z" fill="#3AAE56"/>
<path d="M24.5001 24.5002L45.2005 -0.332397L45.9546 0.311998L24.5001 24.5002Z" fill="#3AAE56"/>
<path d="M24.5001 24.5001L45.8037 0.182983L46.5415 0.845803L24.5001 24.5001Z" fill="#3BAF57"/>
<path d="M24.5001 24.5002L46.3939 0.713257L47.1155 1.39386L24.5001 24.5002Z" fill="#3BAF57"/>
<path d="M24.5001 24.5002L46.9713 1.25757L47.6757 1.95574L24.5001 24.5002Z" fill="#3CAF57"/>
<path d="M24.5001 24.5001L47.5347 1.81604L48.2219 2.53135L24.5001 24.5001Z" fill="#3CAF57"/>
<path d="M24.5001 24.5002L48.0846 2.38831L48.7541 3.12011L24.5001 24.5002Z" fill="#3DB057"/>
<path d="M24.5001 24.5002L48.6202 2.97375L49.2714 3.72184L24.5001 24.5002Z" fill="#3DB058"/>
<path d="M24.5001 24.5001L49.1412 3.57202L49.7738 4.33596L24.5001 24.5001Z" fill="#3EB058"/>
<path d="M24.5001 24.5001L49.6474 4.18323L50.2612 4.96216L24.5001 24.5001Z" fill="#3EB058"/>
<path d="M24.5001 24.5001L50.1384 4.8064L50.7329 5.60032L24.5001 24.5001Z" fill="#3FB158"/>
<path d="M24.5001 24.5002L50.614 5.44165L51.1888 6.24993L24.5001 24.5002Z" fill="#3FB158"/>
<path d="M24.5001 24.5001L51.0737 6.08813L51.6286 6.91034L24.5001 24.5001Z" fill="#40B159"/>
<path d="M24.5001 24.5002L51.5176 6.74585L52.0521 7.58134L24.5001 24.5002Z" fill="#40B159"/>
<path d="M24.5001 24.5001L51.9452 7.41418L52.4591 8.26252L24.5001 24.5001Z" fill="#41B159"/>
<path d="M24.5001 24.5001L52.3563 8.0929L52.849 8.95366L24.5001 24.5001Z" fill="#41B259"/>
<path d="M24.5001 24.5002L52.7505 8.78149L53.2222 9.65404L24.5001 24.5002Z" fill="#42B259"/>
<path d="M24.5001 24.5002L53.1277 9.47961L53.5778 10.3633L24.5001 24.5002Z" fill="#42B25A"/>
<path d="M24.5001 24.5001L53.4879 10.1865L53.9159 11.0814L24.5001 24.5001Z" fill="#43B25A"/>
<path d="M24.5001 24.5002L53.8304 10.9023L54.2364 11.8072L24.5001 24.5002Z" fill="#43B35A"/>
<path d="M24.5001 24.5002L54.1552 11.6262L54.5389 12.5408L24.5001 24.5002Z" fill="#44B35A"/>
<path d="M24.5001 24.5001L54.4622 12.3579L54.8234 13.2817L24.5001 24.5001Z" fill="#44B35A"/>
<path d="M24.5001 24.5001L54.7512 13.0968L55.0896 14.0291L24.5001 24.5001Z" fill="#45B35B"/>
<path d="M24.5001 24.5001L55.0219 13.8425L55.3373 14.783L24.5001 24.5001Z" fill="#45B35B"/>
<path d="M24.5001 24.5002L55.2743 14.595L55.5665 15.5427L24.5001 24.5002Z" fill="#46B45B"/>
<path d="M24.5001 24.5001L55.508 15.353L55.7771 16.3078L24.5001 24.5001Z" fill="#46B45B"/>
<path d="M24.5001 24.5002L55.7233 16.1168L55.9686 17.0778L24.5001 24.5002Z" fill="#47B45B"/>
<path d="M24.5001 24.5001L55.9196 16.8856L56.1413 17.8524L24.5001 24.5001Z" fill="#47B45B"/>
<path d="M24.5001 24.5002L56.0969 17.6591L56.2949 18.631L24.5001 24.5002Z" fill="#48B55C"/>
<path d="M24.5001 24.5001L56.2552 18.4364L56.4294 19.4128L24.5001 24.5001Z" fill="#48B55C"/>
<path d="M24.5001 24.5002L56.3945 19.2178L56.5447 20.1981L24.5001 24.5002Z" fill="#49B55C"/>
<path d="M24.5001 24.5002L56.5147 20.0021L56.6406 20.9858L24.5001 24.5002Z" fill="#49B55C"/>
<path d="M24.5001 24.5002L56.6154 20.7889L56.7171 21.7757L24.5001 24.5002Z" fill="#4AB65C"/>
<path d="M24.5001 24.5002L56.6968 21.5784L56.7743 22.567L24.5001 24.5002Z" fill="#4AB65D"/>
<path d="M24.5001 24.5002L56.7587 22.3693L56.812 23.3596L24.5001 24.5002Z" fill="#4BB65D"/>
<path d="M24.5001 24.5001L56.8013 23.1616L56.8302 24.1528L24.5001 24.5001Z" fill="#4BB65D"/>
<path d="M24.5001 24.5001L56.8245 23.9547L56.829 24.9466L24.5001 24.5001Z" fill="#4CB65D"/>
<path d="M24.5001 24.5001L56.8281 24.7482L56.8084 25.7399L24.5001 24.5001Z" fill="#4CB75D"/>
<path d="M24.5001 24.5001L56.8122 25.5415L56.7681 26.5323L24.5001 24.5001Z" fill="#4DB75E"/>
<path d="M24.5001 24.5001L56.7769 26.3341L56.7086 27.3236L24.5001 24.5001Z" fill="#4DB75E"/>
<path d="M24.5001 24.5001L56.7223 27.1257L56.6295 28.1131L24.5001 24.5001Z" fill="#4EB75E"/>
<path d="M24.5001 24.5001L56.6481 27.9155L56.5312 28.9006L24.5001 24.5001Z" fill="#4EB85E"/>
<path d="M24.5001 24.5001L56.5545 28.7035L56.4136 29.6853L24.5001 24.5001Z" fill="#4FB85E"/>
<path d="M24.5001 24.5001L56.4418 29.489L56.2767 30.467L24.5001 24.5001Z" fill="#4FB85F"/>
<path d="M24.5001 24.5001L56.3099 30.2714L56.1207 31.2451L24.5001 24.5001Z" fill="#50B85F"/>
<path d="M24.5001 24.5001L56.1586 31.0501L55.9457 32.0191L24.5001 24.5001Z" fill="#50B85F"/>
<path d="M24.5001 24.5001L55.9883 31.8252L55.7516 32.7884L24.5001 24.5001Z" fill="#51B95F"/>
<path d="M24.5001 24.5001L55.7989 32.5958L55.5389 33.5529L24.5001 24.5001Z" fill="#51B95F"/>
<path d="M24.5001 24.5001L55.5909 33.3614L55.3073 34.3119L24.5001 24.5001Z" fill="#52B960"/>
<path d="M24.5001 24.5001L55.3641 34.1217L55.0573 35.065L24.5001 24.5001Z" fill="#52B960"/>
<path d="M24.5001 24.5001L55.1186 34.8762L54.7889 35.8118L24.5001 24.5001Z" fill="#53BA60"/>
<path d="M24.5001 24.5001L54.8548 35.6245L54.502 36.5517L24.5001 24.5001Z" fill="#53BA60"/>
<path d="M24.5001 24.5001L54.5727 36.3662L54.1972 37.2844L24.5001 24.5001Z" fill="#54BA60"/>
<path d="M24.5001 24.5001L54.2724 37.1005L53.8745 38.0093L24.5001 24.5001Z" fill="#54BA61"/>
<path d="M24.5001 24.5001L53.9542 37.8274L53.5341 38.7261L24.5001 24.5001Z" fill="#55BB61"/>
<path d="M24.5001 24.5001L53.6181 38.5464L53.1764 39.4343L24.5001 24.5001Z" fill="#55BB61"/>
<path d="M24.5001 24.5001L53.2646 39.2567L52.8013 40.1336L24.5001 24.5001Z" fill="#56BB61"/>
<path d="M24.5001 24.5001L52.8938 39.9581L52.409 40.8234L24.5001 24.5001Z" fill="#56BB61"/>
<path d="M24.5001 24.5001L52.5061 40.6503L52.0001 41.5033L24.5001 24.5001Z" fill="#57BB62"/>
<path d="M24.5001 24.5001L52.1012 41.3328L51.5744 42.1732L24.5001 24.5001Z" fill="#57BC62"/>
<path d="M24.5001 24.5001L51.6798 42.0051L51.1326 42.8322L24.5001 24.5001Z" fill="#58BC62"/>
<path d="M24.5001 24.5001L51.2421 42.6668L50.6746 43.4802L24.5001 24.5001Z" fill="#58BC62"/>
<path d="M24.5001 24.5001L50.7882 43.3176L50.201 44.1169L24.5001 24.5001Z" fill="#59BC62"/>
<path d="M24.5001 24.5001L50.3184 43.9571L49.7119 44.7418L24.5001 24.5001Z" fill="#59BD63"/>
<path d="M24.5001 24.5001L49.8331 44.5848L49.2074 45.3545L24.5001 24.5001Z" fill="#5ABD63"/>
<path d="M24.5001 24.5001L49.3327 45.2005L48.6883 45.9546L24.5001 24.5001Z" fill="#5ABD63"/>
<path d="M24.5001 24.5001L48.8171 45.8037L48.1545 46.5415L24.5001 24.5001Z" fill="#5BBD63"/>
<path d="M24.5001 24.5001L48.2871 46.3939L47.6065 47.1155L24.5001 24.5001Z" fill="#5BBD63"/>
<path d="M24.5001 24.5001L47.7425 46.9713L47.0443 47.6757L24.5001 24.5001Z" fill="#5CBE64"/>
<path d="M24.5001 24.5001L47.184 47.5347L46.4689 48.2219L24.5001 24.5001Z" fill="#5CBE64"/>
<path d="M24.5001 24.5001L46.612 48.0846L45.88 48.7541L24.5001 24.5001Z" fill="#5DBE64"/>
<path d="M24.5001 24.5001L46.0265 48.6202L45.2785 49.2714L24.5001 24.5001Z" fill="#5DBE64"/>
<path d="M24.5001 24.5001L45.428 49.1412L44.6643 49.7738L24.5001 24.5001Z" fill="#5EBF64"/>
<path d="M24.5001 24.5001L44.817 49.6474L44.0379 50.2612L24.5001 24.5001Z" fill="#5EBF65"/>
<path d="M24.5001 24.5001L44.1938 50.1384L43.3999 50.7329L24.5001 24.5001Z" fill="#5FBF65"/>
<path d="M24.5001 24.5001L43.5586 50.614L42.7504 51.1888L24.5001 24.5001Z" fill="#5FBF65"/>
<path d="M24.5001 24.5001L42.9121 51.0737L42.0899 51.6286L24.5001 24.5001Z" fill="#60C065"/>
<path d="M24.5001 24.5001L42.2542 51.5176L41.4187 52.0521L24.5001 24.5001Z" fill="#60C065"/>
<path d="M24.5001 24.5001L41.5858 51.9452L40.7375 52.4591L24.5001 24.5001Z" fill="#61C065"/>
<path d="M24.5001 24.5001L40.9074 52.3563L40.0466 52.849L24.5001 24.5001Z" fill="#61C066"/>
<path d="M24.5001 24.5001L40.2186 52.7505L39.3461 53.2222L24.5001 24.5001Z" fill="#62C066"/>
<path d="M24.5001 24.5001L39.5207 53.1277L38.6368 53.5778L24.5001 24.5001Z" fill="#62C166"/>
<path d="M24.5001 24.5001L38.8135 53.4879L37.9189 53.9159L24.5001 24.5001Z" fill="#63C166"/>
<path d="M24.5001 24.5001L38.0978 53.8304L37.1929 54.2364L24.5001 24.5001Z" fill="#63C166"/>
<path d="M24.5001 24.5001L37.3739 54.1552L36.4594 54.5389L24.5001 24.5001Z" fill="#64C167"/>
<path d="M24.5001 24.5001L36.6423 54.4622L35.7186 54.8234L24.5001 24.5001Z" fill="#65C267"/>
<path d="M24.5001 24.5001L35.9034 54.7512L34.9711 55.0896L24.5001 24.5001Z" fill="#65C267"/>
<path d="M24.5001 24.5001L35.1575 55.0219L34.2173 55.3373L24.5001 24.5001Z" fill="#66C267"/>
<path d="M24.5001 24.5001L34.4054 55.2743L33.4574 55.5665L24.5001 24.5001Z" fill="#66C267"/>
<path d="M24.5001 24.5001L33.647 55.508L32.6924 55.7771L24.5001 24.5001Z" fill="#67C268"/>
<path d="M24.5001 24.5001L32.8833 55.7233L31.9222 55.9686L24.5001 24.5001Z" fill="#67C368"/>
<path d="M24.5001 24.5001L32.1146 55.9196L31.1478 56.1413L24.5001 24.5001Z" fill="#68C368"/>
<path d="M24.5001 24.5001L31.3413 56.0969L30.3693 56.2949L24.5001 24.5001Z" fill="#68C368"/>
<path d="M24.5001 24.5001L30.5636 56.2552L29.5872 56.4294L24.5001 24.5001Z" fill="#69C368"/>
<path d="M24.5001 24.5001L29.7825 56.3945L28.802 56.5447L24.5001 24.5001Z" fill="#69C469"/>
<path d="M24.5001 24.5001L28.9983 56.5147L28.0143 56.6406L24.5001 24.5001Z" fill="#6AC469"/>
<path d="M24.5001 24.5001L28.2112 56.6154L27.2247 56.7171L24.5001 24.5001Z" fill="#6AC469"/>
<path d="M24.5001 24.5001L27.422 56.6968L26.4331 56.7743L24.5001 24.5001Z" fill="#6BC469"/>
<path d="M24.5001 24.5001L26.631 56.7587L25.6405 56.812L24.5001 24.5001Z" fill="#6BC569"/>
<path d="M24.5001 24.5001L25.8386 56.8013L24.8472 56.8302L24.5001 24.5001Z" fill="#6CC56A"/>
<path d="M24.5001 24.5001L25.0455 56.8245L24.0536 56.829L24.5001 24.5001Z" fill="#6CC56A"/>
<path d="M24.5001 24.5001L24.252 56.8281L23.2604 56.8084L24.5001 24.5001Z" fill="#6DC56A"/>
<path d="M24.5001 24.5001L23.4588 56.8122L22.468 56.7681L24.5001 24.5001Z" fill="#6DC56A"/>
<path d="M24.5001 24.5001L22.6661 56.7769L21.6766 56.7086L24.5001 24.5001Z" fill="#6EC66A"/>
<path d="M24.5001 24.5001L21.8746 56.7223L20.887 56.6295L24.5001 24.5001Z" fill="#6EC66B"/>
<path d="M24.5001 24.5001L21.0845 56.6481L20.0997 56.5312L24.5001 24.5001Z" fill="#6FC66B"/>
<path d="M24.5001 24.5001L20.2965 56.5545L19.3149 56.4136L24.5001 24.5001Z" fill="#6FC66B"/>
<path d="M24.5001 24.5001L19.5112 56.4418L18.5332 56.2767L24.5001 24.5001Z" fill="#70C76B"/>
<path d="M24.5001 24.5001L18.7288 56.3099L17.7551 56.1207L24.5001 24.5001Z" fill="#70C76B"/>
<path d="M24.5001 24.5001L17.9499 56.1586L16.9811 55.9457L24.5001 24.5001Z" fill="#71C76C"/>
<path d="M24.5001 24.5001L17.175 55.9883L16.2117 55.7516L24.5001 24.5001Z" fill="#71C76C"/>
<path d="M24.5001 24.5001L16.4044 55.7989L15.4473 55.5389L24.5001 24.5001Z" fill="#72C76C"/>
<path d="M24.5001 24.5001L15.6388 55.5909L14.6883 55.3073L24.5001 24.5001Z" fill="#72C86C"/>
<path d="M24.5001 24.5001L14.8783 55.3641L13.9352 55.0573L24.5001 24.5001Z" fill="#73C86C"/>
<path d="M24.5001 24.5001L14.1238 55.1186L13.1885 54.7889L24.5001 24.5001Z" fill="#73C86D"/>
<path d="M24.5001 24.5001L13.3755 54.8548L12.4485 54.502L24.5001 24.5001Z" fill="#74C86D"/>
<path d="M24.5001 24.5001L12.6341 54.5727L11.7159 54.1972L24.5001 24.5001Z" fill="#74C96D"/>
<path d="M24.5001 24.5001L11.8994 54.2724L10.9909 53.8745L24.5001 24.5001Z" fill="#75C96D"/>
<path d="M24.5001 24.5001L11.1726 53.9542L10.2741 53.5341L24.5001 24.5001Z" fill="#75C96D"/>
<path d="M24.5001 24.5001L10.4538 53.6181L9.56586 53.1764L24.5001 24.5001Z" fill="#76C96E"/>
<path d="M24.5001 24.5001L9.74347 53.2646L8.86664 52.8013L24.5001 24.5001Z" fill="#76CA6E"/>
<path d="M24.5001 24.5001L9.04187 52.8938L8.17682 52.409L24.5001 24.5001Z" fill="#77CA6E"/>
<path d="M24.5001 24.5001L8.34991 52.5061L7.49664 52.0001L24.5001 24.5001Z" fill="#77CA6E"/>
<path d="M24.5001 24.5001L7.66738 52.1012L6.82697 51.5744L24.5001 24.5001Z" fill="#78CA6E"/>
<path d="M24.5001 24.5001L6.99513 51.6798L6.16779 51.1326L24.5001 24.5001Z" fill="#78CA6F"/>
<path d="M24.5001 24.5001L6.33341 51.2421L5.51978 50.6746L24.5001 24.5001Z" fill="#79CB6F"/>
<path d="M24.5001 24.5001L5.68255 50.7882L4.88306 50.201L24.5001 24.5001Z" fill="#79CB6F"/>
<path d="M24.5001 24.5001L5.04314 50.3184L4.25842 49.7119L24.5001 24.5001Z" fill="#7ACB6F"/>
<path d="M24.5001 24.5001L4.4152 49.8331L3.64569 49.2074L24.5001 24.5001Z" fill="#7ACB6F"/>
<path d="M24.5001 24.5001L3.79973 49.3327L3.04565 48.6883L24.5001 24.5001Z" fill="#7BCC6F"/>
<path d="M24.5001 24.5001L3.19645 48.8171L2.45844 48.1545L24.5001 24.5001Z" fill="#7BCC70"/>
<path d="M24.5001 24.5001L2.60604 48.2871L1.88452 47.6065L24.5001 24.5001Z" fill="#7CCC70"/>
<path d="M24.5001 24.5001L2.02893 47.7425L1.32434 47.0443L24.5001 24.5001Z" fill="#7CCC70"/>
<path d="M24.5001 24.5001L1.46532 47.184L0.778076 46.4689L24.5001 24.5001Z" fill="#7DCC70"/>
<path d="M24.5001 24.5001L0.915615 46.612L0.246155 45.88L24.5001 24.5001Z" fill="#7DCD70"/>
<path d="M24.5001 24.5001L0.380011 46.0265L-0.27124 45.2785L24.5001 24.5001Z" fill="#7ECD71"/>
<path d="M24.5001 24.5001L-0.140976 45.428L-0.773804 44.6643L24.5001 24.5001Z" fill="#7ECD71"/>
<path d="M24.5001 24.5001L-0.647164 44.817L-1.26093 44.0379L24.5001 24.5001Z" fill="#7FCD71"/>
<path d="M24.5001 24.5001L-1.13819 44.1938L-1.73267 43.3999L24.5001 24.5001Z" fill="#7FCE71"/>
<path d="M24.5001 24.5001L-1.61377 43.5586L-2.18854 42.7504L24.5001 24.5001Z" fill="#80CE71"/>
<path d="M24.5001 24.5001L-2.07375 42.9121L-2.6286 42.0899L24.5001 24.5001Z" fill="#80CE72"/>
<path d="M24.5001 24.5001L-2.51763 42.2542L-3.05212 41.4187L24.5001 24.5001Z" fill="#81CE72"/>
<path d="M24.5001 24.5001L-2.94499 41.5858L-3.45892 40.7377L24.5001 24.5001Z" fill="#81CF72"/>
<path d="M24.5001 24.5001L-3.35612 40.9074L-3.84906 40.0466L24.5001 24.5001Z" fill="#82CF72"/>
<path d="M24.5001 24.5001L-3.75026 40.2186L-4.22198 39.3461L24.5001 24.5001Z" fill="#82CF72"/>
<path d="M24.5001 24.5001L-4.12776 39.5207L-4.57764 38.6368L24.5001 24.5001Z" fill="#83CF73"/>
<path d="M24.5001 24.5001L-4.48765 38.8135L-4.91589 37.9189L24.5001 24.5001Z" fill="#83CF73"/>
<path d="M24.5001 24.5001L-4.83021 38.0978L-5.23639 37.1929L24.5001 24.5001Z" fill="#84D073"/>
<path d="M24.5001 24.5001L-5.15498 37.3739L-5.53888 36.4594L24.5001 24.5001Z" fill="#84D073"/>
<path d="M24.5001 24.5001L-5.46218 36.6423L-5.82336 35.7186L24.5001 24.5001Z" fill="#85D073"/>
<path d="M24.5001 24.5001L-5.75094 35.9034L-6.08942 34.9711L24.5001 24.5001Z" fill="#85D074"/>
<path d="M24.5001 24.5001L-6.02172 35.1575L-6.33728 34.2173L24.5001 24.5001Z" fill="#86D174"/>
<path d="M24.5001 24.5001L-6.27408 34.4054L-6.56628 33.4574L24.5001 24.5001Z" fill="#86D174"/>
<path d="M24.5001 24.5001L-6.508 33.647L-6.77686 32.6924L24.5001 24.5001Z" fill="#87D174"/>
<path d="M24.5001 24.5001L-6.72309 32.8833L-6.96838 31.9222L24.5001 24.5001Z" fill="#87D174"/>
<path d="M24.5001 24.5001L-6.91936 32.1146L-7.1413 31.1478L24.5001 24.5001Z" fill="#88D175"/>
<path d="M24.5001 24.5001L-7.0967 31.3413L-7.29486 30.3693L24.5001 24.5001Z" fill="#88D275"/>
<path d="M24.5001 24.5001L-7.25525 30.5636L-7.4292 29.5872L24.5001 24.5001Z" fill="#89D275"/>
<path d="M24.5001 24.5001L-7.39447 29.7825L-7.54443 28.802L24.5001 24.5001Z" fill="#89D275"/>
<path d="M24.5001 24.5001L-7.51448 28.9983L-7.64044 28.0143L24.5001 24.5001Z" fill="#8AD275"/>
<path d="M24.5001 24.5001L-7.61516 28.2112L-7.71692 27.2247L24.5001 24.5001Z" fill="#8AD376"/>
<path d="M24.5001 24.5001L-7.69656 27.422L-7.77411 26.4331L24.5001 24.5001Z" fill="#8BD376"/>
<path d="M24.5001 24.5001L-7.7587 26.631L-7.81183 25.6405L24.5001 24.5001Z" fill="#8BD376"/>
<path d="M24.5001 24.5001L-7.8011 25.8386L-7.83002 24.8472L24.5001 24.5001Z" fill="#8CD376"/>
<path d="M24.5001 24.5002L-7.82421 25.0456L-7.82892 24.0537L24.5001 24.5002Z" fill="#8CD476"/>
<path d="M24.5001 24.5001L-7.82788 24.252L-7.80817 23.2604L24.5001 24.5001Z" fill="#8DD477"/>
<path d="M24.5001 24.5002L-7.81226 23.4588L-7.76812 22.468L24.5001 24.5002Z" fill="#8DD477"/>
<path d="M24.5001 24.5002L-7.77692 22.6662L-7.70836 21.6766L24.5001 24.5002Z" fill="#8ED477"/>
<path d="M24.5001 24.5001L-7.72205 21.8746L-7.6295 20.887L24.5001 24.5001Z" fill="#8ED477"/>
<path d="M24.5001 24.5002L-7.64795 21.0845L-7.5312 20.0997L24.5001 24.5002Z" fill="#8FD577"/>
<path d="M24.5001 24.5001L-7.5545 20.2965L-7.41354 19.3149L24.5001 24.5001Z" fill="#90D578"/>
<path d="M24.5001 24.5002L-7.44165 19.5113L-7.2767 18.5333L24.5001 24.5002Z" fill="#90D578"/>
<path d="M24.5001 24.5002L-7.30963 18.7289L-7.12047 17.7552L24.5001 24.5002Z" fill="#91D578"/>
<path d="M24.5001 24.5002L-7.15839 17.9499L-6.94544 16.9812L24.5001 24.5002Z" fill="#91D678"/>
<path d="M24.5001 24.5001L-6.9881 17.175L-6.75159 16.2117L24.5001 24.5001Z" fill="#92D678"/>
<path d="M24.5001 24.5002L-6.79895 16.4046L-6.53866 15.4474L24.5001 24.5002Z" fill="#92D679"/>
<path d="M24.5001 24.5002L-6.5907 15.6389L-6.30728 14.6884L24.5001 24.5002Z" fill="#93D679"/>
<path d="M24.5001 24.5001L-6.36383 14.8783L-6.05706 13.9353L24.5001 24.5001Z" fill="#93D679"/>
<path d="M24.5001 24.5001L-6.11853 14.1238L-5.78862 13.1885L24.5001 24.5001Z" fill="#94D779"/>
<path d="M24.5001 24.5002L-5.85461 13.3756L-5.502 12.4486L24.5001 24.5002Z" fill="#94D779"/>
<path d="M24.5001 24.5002L-5.57251 12.6341L-5.19718 11.7159L24.5001 24.5002Z" fill="#95D779"/>
<path d="M24.5001 24.5001L-5.27216 11.8995L-4.87455 10.991L24.5001 24.5001Z" fill="#95D77A"/>
<path d="M24.5001 24.5002L-4.95404 11.1726L-4.53415 10.2742L24.5001 24.5002Z" fill="#96D87A"/>
<path d="M24.5001 24.5001L-4.6181 10.4539L-4.17615 9.56592L24.5001 24.5001Z" fill="#96D87A"/>
<path d="M24.5001 24.5002L-4.26465 9.74353L-3.80106 8.8667L24.5001 24.5002Z" fill="#97D87A"/>
<path d="M24.5001 24.5001L-3.8938 9.04193L-3.409 8.17688L24.5001 24.5001Z" fill="#97D87A"/>
<path d="M24.5001 24.5001L-3.50586 8.34997L-2.99985 7.4967L24.5001 24.5001Z" fill="#98D97B"/>
<path d="M24.5001 24.5001L-3.10114 7.66744L-2.57435 6.82703L24.5001 24.5001Z" fill="#98D97B"/>
<path d="M24.5001 24.5001L-2.67981 6.99519L-2.13246 6.16785L24.5001 24.5001Z" fill="#99D97B"/>
<path d="M24.5001 24.5001L-2.24188 6.33341L-1.67461 5.51978L24.5001 24.5001Z" fill="#99D97B"/>
<path d="M24.5001 24.5002L-1.78796 5.68268L-1.20077 4.88318L24.5001 24.5002Z" fill="#9AD97B"/>
<path d="M24.5001 24.5001L-1.31836 5.04314L-0.711668 4.25842L24.5001 24.5001Z" fill="#9ADA7C"/>
<path d="M24.5001 24.5001L-0.832947 4.41526L-0.207403 3.64575L24.5001 24.5001Z" fill="#9BDA7C"/>
<path d="M24.5001 24.5002L-0.33252 3.79986L0.311876 3.04578L24.5001 24.5002Z" fill="#9BDA7C"/>
<path d="M24.5001 24.5001L0.182922 3.19651L0.845742 2.4585L24.5001 24.5001Z" fill="#9CDA7C"/>
<path d="M24.5001 24.5002L0.713135 2.60616L1.39373 1.88464L24.5001 24.5002Z" fill="#9CDB7C"/>
<path d="M24.5001 24.5002L1.25751 2.02906L1.95567 1.32446L24.5001 24.5002Z" fill="#9DDB7D"/>
<path d="M24.5001 24.5001L1.81598 1.46532L2.53128 0.778076L24.5001 24.5001Z" fill="#9DDB7D"/>
<path d="M24.5001 24.5002L2.38818 0.915676L3.11998 0.246216L24.5001 24.5002Z" fill="#9EDB7D"/>
<path d="M24.5001 24.5002L2.97369 0.380133L3.72178 -0.271118L24.5001 24.5002Z" fill="#9EDB7D"/>
<path d="M24.5001 24.5002L3.57202 -0.140854L4.33596 -0.773682L24.5001 24.5002Z" fill="#9FDC7D"/>
<path d="M24.5001 24.5002L4.18323 -0.647103L4.96216 -1.26086L24.5001 24.5002Z" fill="#9FDC7E"/>
<path d="M24.5001 24.5001L4.8064 -1.13819L5.60032 -1.73267L24.5001 24.5001Z" fill="#A0DC7E"/>
<path d="M24.5001 24.5002L5.44159 -1.6137L6.24987 -2.18848L24.5001 24.5002Z" fill="#A0DC7E"/>
<path d="M24.5001 24.5001L6.08813 -2.07369L6.91034 -2.62854L24.5001 24.5001Z" fill="#A1DD7E"/>
<path d="M24.5001 24.5002L6.74579 -2.5175L7.58128 -3.052L24.5001 24.5002Z" fill="#A1DD7E"/>
<path d="M24.5001 24.5002L7.41418 -2.94493L8.26252 -3.45886L24.5001 24.5002Z" fill="#A2DD7F"/>
<path d="M24.5001 24.5001L8.09283 -3.35606L8.9536 -3.849L24.5001 24.5001Z" fill="#A2DD7F"/>
<path d="M24.5001 24.5002L8.78137 -3.7502L9.65392 -4.22192L24.5001 24.5002Z" fill="#A3DE7F"/>
<path d="M24.5001 24.5002L9.47955 -4.12764L10.3632 -4.57751L24.5001 24.5002Z" fill="#A3DE7F"/>
<path d="M24.5001 24.5002L10.1865 -4.48753L11.0814 -4.91577L24.5001 24.5002Z" fill="#A4DE7F"/>
<path d="M24.5001 24.5001L10.9022 -4.83015L11.8071 -5.23633L24.5001 24.5001Z" fill="#A4DE80"/>
<path d="M24.5001 24.5001L11.6261 -5.15492L12.5406 -5.53882L24.5001 24.5001Z" fill="#A5DE80"/>
<path d="M24.5001 24.5002L12.3579 -5.46206L13.2817 -5.82324L24.5001 24.5002Z" fill="#A5DF80"/>
<path d="M24.5001 24.5002L13.0968 -5.75088L14.0291 -6.08936L24.5001 24.5002Z" fill="#A6DF80"/>
<path d="M24.5001 24.5001L13.8425 -6.02172L14.783 -6.33728L24.5001 24.5001Z" fill="#A6DF80"/>
<path d="M24.5001 24.5001L14.5948 -6.27408L15.5426 -6.56628L24.5001 24.5001Z" fill="#A7DF81"/>
<path d="M24.5001 24.5001L15.353 -6.508L16.3078 -6.77686L24.5001 24.5001Z" fill="#A7E081"/>
<path d="M24.5001 24.5001L16.1168 -6.72309L17.0778 -6.96838L24.5001 24.5001Z" fill="#A8E081"/>
<path d="M24.5001 24.5001L16.8856 -6.9193L17.8524 -7.14124L24.5001 24.5001Z" fill="#A8E081"/>
<path d="M24.5001 24.5002L17.6589 -7.09664L18.6309 -7.2948L24.5001 24.5002Z" fill="#A9E081"/>
<path d="M24.5001 24.5002L18.4364 -7.25512L19.4128 -7.42908L24.5001 24.5002Z" fill="#A9E082"/>
<path d="M24.5001 24.5001L19.2177 -7.39447L20.198 -7.54443L24.5001 24.5001Z" fill="#AAE182"/>
<path d="M24.5001 24.5001L20.002 -7.51442L20.9857 -7.64038L24.5001 24.5001Z" fill="#AAE182"/>
<path d="M24.5001 24.5002L20.7888 -7.61504L21.7755 -7.7168L24.5001 24.5002Z" fill="#ABE182"/>
<path d="M24.5001 24.5002L21.5782 -7.6965L22.5669 -7.77405L24.5001 24.5002Z" fill="#ABE182"/>
<path d="M24.5001 24.5001L22.3692 -7.75864L23.3596 -7.81177L24.5001 24.5001Z" fill="#ACE283"/>
<path d="M24.5001 24.5002L23.1616 -7.80104L24.1528 -7.82996L24.5001 24.5002Z" fill="#ACE283"/>
<path d="M24.5001 24.5002L23.9547 -7.82414L24.9465 -7.82886L24.5001 24.5002Z" fill="#ADE283"/>
<path d="M24.5001 24.5002L24.7482 -7.82776L25.7399 -7.80805L24.5001 24.5002Z" fill="#ADE283"/>
<path d="M24.5001 24.5002L25.5415 -7.81213L26.5323 -7.768L24.5001 24.5002Z" fill="#AEE383"/>
<path d="M24.5001 24.5001L26.3341 -7.77686L27.3236 -7.7083L24.5001 24.5001Z" fill="#AEE383"/>
<path d="M24.5001 24.5001L27.1257 -7.72205L28.1131 -7.6295L24.5001 24.5001Z" fill="#AFE384"/>
<path d="M24.5001 24.5002L27.9155 -7.64783L28.9006 -7.53107L24.5001 24.5002Z" fill="#AFE384"/>
<path d="M24.5001 24.5002L28.7035 -7.55444L29.6853 -7.41348L24.5001 24.5002Z" fill="#B0E384"/>
<path d="M24.5001 24.5002L29.489 -7.44153L30.467 -7.27657L24.5001 24.5002Z" fill="#B0E484"/>
<path d="M24.5001 24.5002L30.2714 -7.30957L31.2451 -7.12041L24.5001 24.5002Z" fill="#B1E484"/>
<path d="M24.5001 24.5002L31.0501 -7.15833L32.0191 -6.94538L24.5001 24.5002Z" fill="#B1E485"/>
<path d="M24.5001 24.5002L31.8252 -6.98804L32.7884 -6.75153L24.5001 24.5002Z" fill="#B2E485"/>
<path d="M24.5001 24.5002L32.5958 -6.79883L33.5529 -6.53854L24.5001 24.5002Z" fill="#B2E585"/>
<path d="M24.5001 24.5001L33.3614 -6.5907L34.3119 -6.30728L24.5001 24.5001Z" fill="#B3E585"/>
<path d="M24.5001 24.5002L34.1217 -6.36377L35.065 -6.057L24.5001 24.5002Z" fill="#B3E585"/>
<path d="M24.5001 24.5001L34.8762 -6.11853L35.8118 -5.78862L24.5001 24.5001Z" fill="#B4E586"/>
<path d="M24.5001 24.5001L35.6245 -5.85461L36.5517 -5.502L24.5001 24.5001Z" fill="#B4E586"/>
<path d="M24.5001 24.5002L36.3662 -5.57239L37.2844 -5.19706L24.5001 24.5002Z" fill="#B5E686"/>
<path d="M24.5001 24.5001L37.1005 -5.27209L38.0093 -4.87449L24.5001 24.5001Z" fill="#B5E686"/>
<path d="M24.5001 24.5001L37.8274 -4.95398L38.7261 -4.53409L24.5001 24.5001Z" fill="#B6E686"/>
<path d="M24.5001 24.5002L38.5464 -4.61804L39.4343 -4.17609L24.5001 24.5002Z" fill="#B6E687"/>
<path d="M24.5001 24.5002L39.2567 -4.26453L40.1336 -3.80094L24.5001 24.5002Z" fill="#B7E787"/>
<path d="M24.5001 24.5001L39.9581 -3.8938L40.8234 -3.409L24.5001 24.5001Z" fill="#B7E787"/>
<path d="M24.5001 24.5002L40.6503 -3.50574L41.5033 -2.99973L24.5001 24.5002Z" fill="#B8E787"/>
<path d="M24.5001 24.5002L41.3328 -3.10107L42.1732 -2.57429L24.5001 24.5002Z" fill="#B8E787"/>
<path d="M24.5001 24.5002L42.0051 -2.67969L42.8322 -2.13234L24.5001 24.5002Z" fill="#B9E888"/>
<path d="M24.5001 24.5002L42.6668 -2.24182L43.4802 -1.67455L24.5001 24.5002Z" fill="#B9E888"/>
<path d="M24.5001 24.5002L43.3176 -1.78784L44.1169 -1.20064L24.5001 24.5002Z" fill="#BAE888"/>
<path d="M24.5001 24.5001L43.9571 -1.31836L44.5848 -0.83292L24.5001 24.5001Z" fill="#39AE56"/>
</g>
<path d="M24.5001 10.5255C32.2181 10.5255 38.4746 16.7822 38.4746 24.5002C38.4746 32.2182 32.2181 38.4753 24.5001 38.4753C16.7821 38.4753 10.5254 32.2199 10.5254 24.5008C10.5254 16.7818 16.7821 10.5255 24.5001 10.5255Z" fill="white" fill-opacity="0.43"/>
<path d="M24.5001 18.5376C27.793 18.5376 30.4624 21.2071 30.4624 24.5002C30.4624 27.7933 27.793 30.4632 24.5001 30.4632C21.2072 30.4632 18.5375 27.7937 18.5375 24.5008C18.5375 21.2079 21.207 18.5376 24.5001 18.5376Z" fill="white" fill-opacity="0.43"/>
<path d="M22.3372 4.36682C18.5105 5.13306 14.9714 6.94606 12.1137 9.60409C9.25607 12.2621 7.19197 15.6609 6.15111 19.4223C5.11026 23.1836 5.13346 27.16 6.21814 30.909C7.30281 34.658 9.40643 38.0324 12.2949 40.6569C9.0549 38.2109 6.62505 34.8474 5.32077 31.003C4.01649 27.1586 3.89802 23.0109 4.98074 19.0984C7.19628 11.0921 14.0775 5.25158 22.3372 4.36682Z" fill="black" fill-opacity="0.6"/>
<path d="M44.6535 22.5367C45.1135 25.0399 45.0543 27.6108 44.4796 30.0901C43.9049 32.5695 42.827 34.9043 41.3127 36.9498C39.7984 38.9953 37.88 40.7079 35.6765 41.9814C33.473 43.2549 31.0313 44.0621 28.5029 44.353C38.6858 42.3009 45.6636 32.8751 44.6535 22.5367Z" fill="white" fill-opacity="0.6"/>
<path d="M33.0553 13.0633C33.1209 13.1125 33.1643 13.1857 33.176 13.267C33.1876 13.3482 33.1665 13.4307 33.1173 13.4963C33.0681 13.562 32.9948 13.6054 32.9136 13.617C32.8324 13.6287 32.7499 13.6076 32.6842 13.5584C30.3244 11.7931 27.4572 10.8378 24.5102 10.835C21.5632 10.8323 18.6942 11.7821 16.331 13.5429C13.9679 15.3036 12.2371 17.7811 11.3969 20.6058C10.5566 23.4305 10.6518 26.4511 11.6684 29.2173C12.6849 31.9834 14.5683 34.3469 17.0377 35.9553C19.5071 37.5637 22.4302 38.3309 25.3712 38.1425C28.3122 37.954 31.1135 36.82 33.3574 34.9096C35.6014 32.9992 37.1677 30.4147 37.8229 27.5414C37.8318 27.5017 37.8484 27.4642 37.8719 27.431C37.8953 27.3977 37.925 27.3694 37.9594 27.3477C37.9937 27.326 38.032 27.3112 38.0721 27.3043C38.1122 27.2973 38.1532 27.2983 38.1929 27.3072C38.2325 27.3162 38.27 27.3328 38.3033 27.3562C38.3365 27.3796 38.3648 27.4094 38.3866 27.4437C38.4083 27.4781 38.4231 27.5164 38.43 27.5565C38.4369 27.5965 38.4359 27.6376 38.427 27.6772C37.7426 30.6809 36.1057 33.3828 33.7603 35.3802C31.4149 37.3776 28.4868 38.5634 25.4125 38.7607C22.3382 38.9581 19.2824 38.1564 16.7009 36.4754C14.1194 34.7943 12.1504 32.3238 11.0876 29.4323C10.0248 26.5408 9.92501 23.3833 10.8032 20.4305C11.6814 17.4777 13.4905 14.8878 15.9608 13.0471C18.431 11.2065 21.4301 10.2135 24.5107 10.2164C27.5913 10.2193 30.5885 11.2179 33.0553 13.0633Z" fill="white"/>
<path d="M27.5203 19.0048C27.5568 19.0239 27.5892 19.0501 27.6155 19.0819C27.6418 19.1137 27.6614 19.1504 27.6734 19.1898C27.6853 19.2293 27.6892 19.2708 27.6849 19.3118C27.6806 19.3528 27.6682 19.3926 27.6483 19.4287C27.6285 19.4649 27.6016 19.4967 27.5693 19.5223C27.537 19.5479 27.4999 19.5669 27.4602 19.578C27.4205 19.5891 27.3789 19.5922 27.338 19.587C27.2971 19.5819 27.2576 19.5687 27.2219 19.5481C26.1859 18.979 24.9976 18.749 23.8241 18.8904C22.6506 19.0317 21.5509 19.5374 20.6797 20.3362C19.8085 21.1349 19.2096 22.1867 18.9672 23.3436C18.7247 24.5004 18.851 25.7041 19.3282 26.7855C19.8054 27.8669 20.6096 28.7714 21.6276 29.3721C22.6456 29.9727 23.8263 30.2391 25.0036 30.1338C26.1808 30.0286 27.2955 29.557 28.1909 28.7854C29.0862 28.0137 29.7172 26.9808 29.995 25.832C30.0043 25.7922 30.0214 25.7546 30.0452 25.7214C30.0691 25.6883 30.0993 25.6601 30.1341 25.6387C30.1689 25.6173 30.2076 25.6029 30.2479 25.5965C30.2883 25.5901 30.3295 25.5917 30.3693 25.6013C30.409 25.6109 30.4464 25.6283 30.4794 25.6524C30.5124 25.6766 30.5402 25.707 30.5614 25.742C30.5825 25.777 30.5966 25.8158 30.6026 25.8562C30.6087 25.8966 30.6067 25.9378 30.5968 25.9775C30.2884 27.2523 29.5882 28.3984 28.5947 29.2546C27.6011 30.1108 26.3642 30.634 25.0578 30.7507C23.7515 30.8675 22.4414 30.5718 21.3118 29.9052C20.1822 29.2387 19.2899 28.2349 18.7605 27.0349C18.231 25.8349 18.091 24.4992 18.3601 23.2155C18.6292 21.9318 19.2939 20.7648 20.2607 19.8785C21.2276 18.9922 22.4479 18.4313 23.75 18.2746C25.0522 18.1178 26.3708 18.3732 27.5203 19.0048Z" fill="white"/>
<path d="M39.0337 15.5839L41.7936 17.8922C41.929 18.0054 42.0408 18.1442 42.1225 18.3006C42.2043 18.457 42.2544 18.628 42.2701 18.8039C42.2858 18.9797 42.2667 19.1569 42.2139 19.3253C42.1611 19.4937 42.0756 19.6501 41.9624 19.7855L37.0304 25.683C36.8017 25.9564 36.4737 26.1279 36.1186 26.1595C35.7635 26.1912 35.4104 26.0805 35.1369 25.8518L32.377 23.5437C32.2416 23.4305 32.1298 23.2917 32.048 23.1352C31.9663 22.9788 31.9161 22.8078 31.9005 22.632C31.8848 22.4562 31.9039 22.279 31.9567 22.1106C32.0095 21.9421 32.0949 21.7857 32.2082 21.6503L37.1401 15.7529C37.3688 15.4794 37.6968 15.3079 38.0519 15.2762C38.407 15.2445 38.7602 15.3552 39.0337 15.5839Z" fill="#011D41"/>
<path d="M38.629 15.9478L41.5072 18.3549C41.8114 18.6092 41.8341 19.0832 41.5577 19.4136L36.5928 25.3502C36.3167 25.6806 35.846 25.7423 35.5418 25.4878L32.6637 23.0809C32.3595 22.8264 32.3367 22.3526 32.6131 22.022L37.578 16.0853C37.854 15.755 38.3253 15.6935 38.629 15.9478Z" fill="white"/>
<path d="M38.4877 16.4986L39.0504 16.9699L39.0136 17.0127C38.9491 17.0904 38.9179 17.1904 38.9268 17.2909C38.9358 17.3915 38.9841 17.4844 39.0614 17.5494L39.854 18.2124C39.9316 18.277 40.0317 18.3082 40.1322 18.2992C40.2328 18.2902 40.3257 18.2417 40.3906 18.1644L40.4273 18.1216L40.9901 18.5929C41.082 18.6703 41.1397 18.7809 41.1503 18.9007C41.161 19.0204 41.1239 19.1395 41.047 19.2319L36.3218 24.8817C36.2445 24.9737 36.1339 25.0313 36.0142 25.042C35.8945 25.0527 35.7754 25.0156 35.683 24.9387L33.1804 22.8459C33.0884 22.7686 33.0308 22.6579 33.0201 22.5382C33.0094 22.4184 33.0466 22.2993 33.1234 22.2069L37.8488 16.5556C37.9262 16.4636 38.0368 16.4059 38.1565 16.3952C38.2762 16.3846 38.3953 16.4217 38.4877 16.4986Z" fill="#011D41"/>
<path d="M35.4083 22.7232C35.4921 22.7933 35.5533 22.8867 35.584 22.9915C35.6147 23.0964 35.6136 23.208 35.5809 23.3122C35.5482 23.4165 35.4854 23.5087 35.4003 23.5772C35.3152 23.6457 35.2117 23.6875 35.1028 23.6972C34.994 23.7069 34.8848 23.6841 34.7889 23.6317C34.693 23.5793 34.6148 23.4997 34.5642 23.4029C34.5135 23.3061 34.4928 23.1964 34.5045 23.0878C34.5161 22.9792 34.5598 22.8764 34.6298 22.7926C34.7239 22.6802 34.8587 22.6097 35.0047 22.5967C35.1507 22.5837 35.2959 22.6292 35.4083 22.7232Z" fill="white"/>
</g>
<defs>
<linearGradient id="paint0_linear_214_539" x1="36.6205" y1="44.0475" x2="10.4777" y2="2.13122" gradientUnits="userSpaceOnUse">
<stop stop-color="#BBE888"/>
<stop offset="1" stop-color="#38AD55"/>
</linearGradient>
<clipPath id="clip0_214_539">
<rect width="49" height="49" fill="white"/>
</clipPath>
</defs>
</svg>
