<svg width="13" height="13" viewBox="0 0 13 13" fill="none" xmlns="http://www.w3.org/2000/svg">
<path opacity="0.87" d="M6.58283 3.07962C4.78919 3.07962 3.34244 4.5267 3.34244 6.32074C3.34244 8.11477 4.78919 9.56185 6.58283 9.56185C8.37647 9.56185 9.82322 8.11477 9.82322 6.32074C9.82322 4.5267 8.37647 3.07962 6.58283 3.07962ZM6.58283 8.42789C5.42373 8.42789 4.47615 7.48291 4.47615 6.32074C4.47615 5.15856 5.42091 4.21359 6.58283 4.21359C7.74474 4.21359 8.68951 5.15856 8.68951 6.32074C8.68951 7.48291 7.74192 8.42789 6.58283 8.42789ZM10.7116 2.94704C10.7116 3.36735 10.3732 3.70302 9.95577 3.70302C9.53556 3.70302 9.19996 3.36453 9.19996 2.94704C9.19996 2.52956 9.53838 2.19107 9.95577 2.19107C10.3732 2.19107 10.7116 2.52956 10.7116 2.94704ZM12.8577 3.71431C12.8098 2.70163 12.5785 1.80462 11.8368 1.06556C11.0979 0.326509 10.2011 0.0952024 9.18868 0.0444278C8.14521 -0.0148093 5.01763 -0.0148093 3.97416 0.0444278C2.96453 0.0923816 2.06771 0.323688 1.32601 1.06274C0.584297 1.80179 0.355862 2.69881 0.305099 3.71148C0.245875 4.75519 0.245875 7.88347 0.305099 8.92717C0.353042 9.93984 0.584297 10.8369 1.32601 11.5759C2.06771 12.315 2.96171 12.5463 3.97416 12.597C5.01763 12.6563 8.14521 12.6563 9.18868 12.597C10.2011 12.5491 11.0979 12.3178 11.8368 11.5759C12.5757 10.8369 12.807 9.93984 12.8577 8.92717C12.917 7.88347 12.917 4.75801 12.8577 3.71431ZM11.5097 10.047C11.2897 10.5999 10.8639 11.0259 10.3083 11.2487C9.47634 11.5787 7.50221 11.5026 6.58283 11.5026C5.66345 11.5026 3.6865 11.5759 2.85737 11.2487C2.30461 11.0287 1.87876 10.6027 1.65597 10.047C1.32601 9.21489 1.40215 7.24032 1.40215 6.32074C1.40215 5.40115 1.32883 3.42376 1.65597 2.59444C1.87594 2.04156 2.30179 1.61562 2.85737 1.39278C3.68932 1.06274 5.66345 1.1389 6.58283 1.1389C7.50221 1.1389 9.47916 1.06556 10.3083 1.39278C10.861 1.6128 11.2869 2.03874 11.5097 2.59444C11.8397 3.42658 11.7635 5.40115 11.7635 6.32074C11.7635 7.24032 11.8397 9.21771 11.5097 10.047Z" fill="#BB6A37"/>
</svg>
