<svg width="15" height="15" viewBox="0 0 15 15" fill="none" xmlns="http://www.w3.org/2000/svg">
<g opacity="0.87">
<path d="M2.49986 0C1.61744 0 0.9021 0.716656 0.9021 1.6007C0.9021 2.48474 1.61744 3.20141 2.49986 3.20141C3.38227 3.20141 4.09762 2.48474 4.09762 1.6007C4.09762 0.716656 3.38227 0 2.49986 0Z" fill="#BB6A37"/>
<path d="M0.996086 4.51978C0.944175 4.51978 0.9021 4.56193 0.9021 4.61393V14.4065C0.9021 14.4585 0.944175 14.5006 0.996086 14.5006H4.00363C4.05554 14.5006 4.09762 14.4585 4.09762 14.4065V4.61393C4.09762 4.56193 4.05554 4.51978 4.00363 4.51978H0.996086Z" fill="#BB6A37"/>
<path d="M5.88329 4.51978C5.83138 4.51978 5.78931 4.56193 5.78931 4.61393V14.4065C5.78931 14.4585 5.83138 14.5006 5.88329 14.5006H8.89084C8.94272 14.5006 8.98483 14.4585 8.98483 14.4065V9.13357C8.98483 8.75897 9.13333 8.39973 9.39776 8.13488C9.66213 7.86996 10.0207 7.72118 10.3946 7.72118C10.7685 7.72118 11.1271 7.86996 11.3915 8.13488C11.6559 8.39973 11.8044 8.75897 11.8044 9.13357V14.4065C11.8044 14.4585 11.8465 14.5006 11.8984 14.5006H14.9059C14.9578 14.5006 14.9999 14.4585 14.9999 14.4065V7.91342C14.9999 6.08545 13.413 4.65536 11.5975 4.82071C11.0376 4.8717 10.4841 5.01114 9.96717 5.23308L8.98483 5.65485V4.61393C8.98483 4.56193 8.94272 4.51978 8.89084 4.51978H5.88329Z" fill="#BB6A37"/>
</g>
</svg>
